<svg id="レイヤー_1" data-name="レイヤー 1" xmlns="http://www.w3.org/2000/svg" viewBox="0 0 343.93 40.01"><defs><style>.cls-1{fill:#fefefe;}.cls-1,.cls-2,.cls-3{fill-rule:evenodd;}.cls-2{fill:#1f0f08;}.cls-3,.cls-4,.cls-7{fill:#fff;}.cls-4{isolation:isolate;font-size:22.44px;font-family:HiraMinPro-W6-83pv-RKSJ-H, Hiragino Mincho Pro;}.cls-5{letter-spacing:-0.01em;}.cls-6{letter-spacing:-0.02em;}</style></defs><path id="Fill-1" class="cls-1" d="M34.68,39.73a.34.34,0,0,1-.22-.07l-7-5.22a.37.37,0,0,1-.14-.29V6.88a.36.36,0,0,1,.19-.33.39.39,0,0,1,.39,0l6.77,5.16,6.76-5.16a.36.36,0,0,1,.5.06.4.4,0,0,1,.08.23V34.15a.37.37,0,0,1-.14.29l-7,5.22A.32.32,0,0,1,34.68,39.73Z" transform="translate(0 0.01)"/><g id="Group-5"><path id="Fill-3" class="cls-2" d="M27.94,34.14l6.74,5,6.73-5V7.36l-6.51,5a.38.38,0,0,1-.45,0l-6.51-5ZM34.68,40a.39.39,0,0,1-.23-.07l-7.1-5.3a.38.38,0,0,1-.15-.3V6.61a.36.36,0,0,1,.21-.33.39.39,0,0,1,.39,0l6.88,5.24,6.87-5.24a.39.39,0,0,1,.39,0,.34.34,0,0,1,.2.33V34.33a.37.37,0,0,1-.14.3l-7.11,5.3A.31.31,0,0,1,34.68,40Z" transform="translate(0 0.01)"/></g><path id="Fill-6" class="cls-2" d="M29.44,33.4l5.24,3.91,5.23-3.91v-23l-5.08,3.87a.26.26,0,0,1-.31,0L29.44,10.4Zm5.24,4.48a.3.3,0,0,1-.16-.05L29,33.73a.26.26,0,0,1-.1-.2V9.86A.24.24,0,0,1,29,9.63a.32.32,0,0,1,.27,0l5.34,4.08L40,9.65a.32.32,0,0,1,.27,0,.24.24,0,0,1,.14.23V33.53a.22.22,0,0,1-.1.2l-5.49,4.1a.27.27,0,0,1-.15.05Z" transform="translate(0 0.01)"/><path id="Fill-8" class="cls-1" d="M7.47,39.73a.34.34,0,0,1-.22-.07l-7-5.22a.33.33,0,0,1-.15-.29V6.87A.38.38,0,0,1,.47,6.5a.4.4,0,0,1,.23.08l6.77,5.17,6.77-5.17a.37.37,0,0,1,.51.09.37.37,0,0,1,.07.2V34.15a.37.37,0,0,1-.14.29l-7,5.22a.34.34,0,0,1-.22.07" transform="translate(0 0.01)"/><g id="Group-12"><path id="Fill-10" class="cls-2" d="M.74,34.14l6.73,5,6.73-5V7.36l-6.5,5a.38.38,0,0,1-.45,0l-6.51-5ZM7.47,40a.34.34,0,0,1-.22-.07l-7.1-5.3a.38.38,0,0,1-.15-.3V6.61a.37.37,0,0,1,.2-.33.35.35,0,0,1,.39,0l6.88,5.24,6.88-5.24a.39.39,0,0,1,.39,0,.37.37,0,0,1,.2.33V34.33a.37.37,0,0,1-.14.3l-7.11,5.3A.34.34,0,0,1,7.47,40Z" transform="translate(0 0.01)"/></g><path id="Fill-13" class="cls-2" d="M2.23,33.4l5.24,3.91,5.24-3.91v-23L7.63,14.25a.26.26,0,0,1-.31,0L2.23,10.38Zm5.24,4.48a.27.27,0,0,1-.15-.05l-5.49-4.1a.23.23,0,0,1-.11-.2V9.86a.25.25,0,0,1,.15-.23.3.3,0,0,1,.26,0l5.34,4.08,5.34-4.08a.32.32,0,0,1,.27,0,.24.24,0,0,1,.14.23V33.53a.26.26,0,0,1-.1.2l-5.5,4.1A.27.27,0,0,1,7.47,37.88Z" transform="translate(0 0.01)"/><path id="Fill-15" class="cls-1" d="M21.07,35.39a.41.41,0,0,1-.24-.08l-9.67-7A.38.38,0,0,1,11,28V.67a.44.44,0,0,1,.23-.38.42.42,0,0,1,.43,0l9.43,6.59L30.5.32a.43.43,0,0,1,.44,0,.43.43,0,0,1,.22.38V28a.42.42,0,0,1-.17.34l-9.67,7a.44.44,0,0,1-.25.08" transform="translate(0 0.01)"/><g id="Group-19"><path id="Fill-17" class="cls-2" d="M11.69,27.93l9.38,6.76,9.38-6.76V1.24L21.32,7.62a.44.44,0,0,1-.49,0L11.69,1.24Zm9.38,7.71a.41.41,0,0,1-.24-.08L11,28.49a.42.42,0,0,1-.18-.34V.43a.43.43,0,0,1,.23-.38.39.39,0,0,1,.44,0l9.56,6.68L30.64.08a.39.39,0,0,1,.44,0,.43.43,0,0,1,.23.38V28.15a.42.42,0,0,1-.18.34l-9.81,7.07A.44.44,0,0,1,21.07,35.64Z" transform="translate(0 0.01)"/></g><path id="Fill-20" class="cls-2" d="M13.19,27.16l7.88,5.68L29,27.16v-23L21.25,9.49a.29.29,0,0,1-.35,0L13.19,4.11Zm7.88,6.38a.3.3,0,0,1-.18-.06l-8.2-5.9a.33.33,0,0,1-.13-.26V3.51a.35.35,0,0,1,.17-.28.31.31,0,0,1,.32,0l8,5.6,8-5.6a.33.33,0,0,1,.33,0,.33.33,0,0,1,.16.28V27.32a.3.3,0,0,1-.13.26l-8.19,5.9a.33.33,0,0,1-.19.06Z" transform="translate(0 0.01)"/><path id="Fill-42" class="cls-3" d="M57.23,36a7.5,7.5,0,0,1-.7,1.71A2.53,2.53,0,0,1,54.25,39c-.38,0-.77-.11-.77-.38a.71.71,0,0,1,.19-.41A.44.44,0,0,1,54,38a.84.84,0,0,1,.47.21c.17.13.28.23.45.23s.44-.4.64-.88c.07-.19.33-1,.68-2.06l1.28-4.11c.27-.92.3-1.15-.26-1.22h-.38a.21.21,0,0,1,.07-.29h2.9c.08.06.08.25,0,.29h-.24c-.47.08-.59.2-.91,1.23Z" transform="translate(0 0.01)"/><path id="Fill-43" class="cls-3" d="M60.23,33.6c.07-.17.06-.28,0-.28a5.54,5.54,0,0,0-1,.71.17.17,0,0,1-.17-.21,3,3,0,0,1,2-1.25.42.42,0,0,1,.4.37,1,1,0,0,1-.07.29l-1.08,2.71c-.08.19,0,.29.07.29a2.72,2.72,0,0,0,.77-.56,11.31,11.31,0,0,0,2-3.06.86.86,0,0,1,.32,0,.67.67,0,0,1,.53.21c-.27.68-.81,2.06-1.25,3.21,0,.17,0,.29.06.29a3.69,3.69,0,0,0,1-.77.17.17,0,0,1,.19.15v0A3.08,3.08,0,0,1,62,37a.33.33,0,0,1-.34-.32.4.4,0,0,1,0-.15l.65-1.7h0c-.67.89-1.9,2.17-2.6,2.17a.52.52,0,0,1-.5-.51A1.35,1.35,0,0,1,59.3,36Z" transform="translate(0 0.01)"/><path id="Fill-44" class="cls-3" d="M69.36,33.16a2.7,2.7,0,0,1-.19.83c-.18.51-.69,1.66-.86,2.09,0,.12-.07.21,0,.21a2.41,2.41,0,0,0,1-.72.17.17,0,0,1,.19.19,2.68,2.68,0,0,1-2,1.26.38.38,0,0,1-.35-.34,1.5,1.5,0,0,1,.19-.62c.27-.64.63-1.51.88-2.13a2,2,0,0,0,.17-.64c0-.09,0-.18-.15-.18a2.54,2.54,0,0,0-1.11.94,15.88,15.88,0,0,0-1.61,2.8.35.35,0,0,1-.35.17c-.2,0-.56-.07-.47-.36,0-.14,1-2.76,1.12-3s.08-.32,0-.32a2,2,0,0,0-.91.55.16.16,0,0,1-.17-.15v0a2.44,2.44,0,0,1,1.82-1.1c.38,0,.41.31.31.54l-.64,1.64h0c.67-.94,1.63-2.18,2.54-2.18a.56.56,0,0,1,.63.48v.11" transform="translate(0 0.01)"/><path id="Fill-45" class="cls-3" d="M72,30.79a.74.74,0,0,1,.71-.77h0a.46.46,0,0,1,.5.41.41.41,0,0,1,0,.11.74.74,0,0,1-.71.77h0a.48.48,0,0,1-.5-.46Zm-.59,5.29c0,.1-.06.2,0,.2a2.67,2.67,0,0,0,1-.73.18.18,0,0,1,.18.18v0a3.25,3.25,0,0,1-2,1.24c-.18,0-.34-.24-.34-.33a1,1,0,0,1,.09-.41l1.17-2.78v-.16a2.48,2.48,0,0,0-.9.56.16.16,0,0,1-.16-.16.09.09,0,0,1,0,0,3.24,3.24,0,0,1,1.94-1.12.4.4,0,0,1,.34.29.77.77,0,0,1-.11.45Z" transform="translate(0 0.01)"/><path id="Fill-46" class="cls-3" d="M75.4,36a5.87,5.87,0,0,0,.89-2.5c0-.28,0-.57-.34-.57s-.41.12-.69.47a5.51,5.51,0,0,0-1,2.68c0,.31.14.54.38.54s.48-.16.8-.62m-1-2.74a2.2,2.2,0,0,1,1.6-.71,1.25,1.25,0,0,1,1.24,1.24,1.49,1.49,0,0,1,0,.21,3.46,3.46,0,0,1-1,2.29,2.29,2.29,0,0,1-1.67.72,1.26,1.26,0,0,1-1.32-1.16,1.62,1.62,0,0,1,0-.22,3.59,3.59,0,0,1,1.11-2.36" transform="translate(0 0.01)"/><path id="Fill-47" class="cls-3" d="M79.78,33.66l-.37,1.09h.07a11.13,11.13,0,0,1,.93-1.51c.34-.42.63-.67.94-.67a.54.54,0,0,1,.49.59c0,.3-.25.84-.57.84-.13,0-.17-.12-.21-.31s-.11-.31-.21-.31-.37.23-.72.81a25.93,25.93,0,0,0-1.27,2.66c0,.12-.18.17-.35.17s-.58-.07-.49-.36c.23-.69.76-2.15,1.06-3.11,0-.17,0-.28-.07-.28a2.5,2.5,0,0,0-.82.59.17.17,0,0,1-.17-.17s0,0,0,0a1.92,1.92,0,0,1,1.46-1.08c.57,0,.47.61.3,1.09" transform="translate(0 0.01)"/><path id="Fill-55" class="cls-3" d="M87,31.35c.29-.92.31-1.15-.25-1.22h-.26a.24.24,0,0,1,.06-.3h2.84c.08.06.08.26,0,.3h-.3c-.47.06-.59.18-.9,1.21l-.4,1.26c-.1.31-.09.33.4.33h2.17c.51,0,.55,0,.64-.33l.39-1.26c.29-.92.32-1.15-.24-1.22h-.27a.25.25,0,0,1,.07-.3H93.8c.08.06.08.26,0,.3h-.29c-.48.06-.59.18-.92,1.21l-1.22,3.92c-.29.92-.31,1.15.25,1.2h.31a.26.26,0,0,1-.06.31H89a.21.21,0,0,1,0-.3h.29c.47-.06.58-.19.91-1.21l.49-1.6c.08-.24.09-.26-.43-.26H88c-.48,0-.5,0-.58.3l-.5,1.56c-.29.92-.31,1.15.24,1.2h.37a.22.22,0,0,1-.06.31H84.58a.21.21,0,0,1,0-.3h.26c.47-.06.58-.19.9-1.21Z" transform="translate(0 0.01)"/><path id="Fill-56" class="cls-3" d="M94.76,30.71a.74.74,0,0,1,.71-.77h0a.47.47,0,0,1,.51.43v.09a.75.75,0,0,1-.72.77.48.48,0,0,1-.5-.46ZM94.16,36v.2a3,3,0,0,0,1-.73.18.18,0,0,1,.18.18v0a3.26,3.26,0,0,1-2.11,1.26c-.18,0-.34-.24-.34-.33a1.17,1.17,0,0,1,.1-.41l1.17-2.78v-.16a2.55,2.55,0,0,0-.91.57.17.17,0,0,1-.15-.2v0A3.24,3.24,0,0,1,95,32.49a.38.38,0,0,1,.35.29.79.79,0,0,1-.11.45Z" transform="translate(0 0.01)"/><path id="Fill-57" class="cls-3" d="M98.47,32.86c-.16,0-.37.13-.65.46a3.8,3.8,0,0,0-.8,1.81.32.32,0,0,0,.29.35h0c.19,0,.44-.21.73-.6a4.13,4.13,0,0,0,.7-1.64.35.35,0,0,0-.3-.38m.11,5.73c0-.23-.17-.46-.51-.7a3.07,3.07,0,0,0-.9-.46,1.68,1.68,0,0,0-.71.31.93.93,0,0,0-.44.68c0,.5.64.79,1.34.79.55,0,1.22-.21,1.22-.62m-3.6,0c0-.8,1.23-1.25,1.81-1.42-.27-.17-.39-.31-.39-.53s.39-.63.58-.82a1.06,1.06,0,0,1-.86-1.09A2.39,2.39,0,0,1,97,33.06a2.3,2.3,0,0,1,1.56-.57,1.12,1.12,0,0,1,.44.09,1.51,1.51,0,0,0,.35.14,1.84,1.84,0,0,0,.47-.07,2.73,2.73,0,0,1,.48-.1c.17,0,.3.1.3.36a.34.34,0,0,1-.3.37,1.77,1.77,0,0,1-.32-.05,1.3,1.3,0,0,0-.33-.07.09.09,0,0,0-.09.08,2,2,0,0,1,.06.34,2.41,2.41,0,0,1-1.45,2.08,3,3,0,0,1-.77.2.46.46,0,0,0-.19.31c0,.12.2.33.55.52s.66.36,1,.57a1.24,1.24,0,0,1,.72,1.06c0,.83-1.36,1.31-2.65,1.31-.77,0-1.85-.26-1.85-1" transform="translate(0 0.01)"/><path id="Fill-58" class="cls-3" d="M102.15,30.68c.19-.53.24-.66,0-.78l-.25-.15a.17.17,0,0,1,0-.19,7.28,7.28,0,0,1,1.61-.31l.08.08c-.19.53-.44,1.19-.64,1.76l-1.13,3.19h0a7.22,7.22,0,0,1,1.3-1.29,2.09,2.09,0,0,1,1.16-.52.72.72,0,0,1,.74.7s0,.07,0,.11a5.46,5.46,0,0,1-.92,2.55,2.28,2.28,0,0,1-1.54,1.09c-.34,0-.51-.19-.51-.38a.41.41,0,0,1,.34-.41.31.31,0,0,1,.19.11c.11.11.2.17.26.17s.17-.15.29-.41a10.89,10.89,0,0,0,.8-2.68c0-.19-.06-.28-.19-.28a.88.88,0,0,0-.48.22,5.71,5.71,0,0,0-1.08,1.17,20.47,20.47,0,0,0-1.33,2.32.38.38,0,0,1-.36.17c-.19,0-.55-.07-.44-.36Z" transform="translate(0 0.01)"/><path id="Fill-59" class="cls-3" d="M108.38,36.14a4.23,4.23,0,0,1,0-1.42.29.29,0,0,1,.33,0,2.89,2.89,0,0,0,.38,1.1,1.5,1.5,0,0,0,1.3.71,1.34,1.34,0,0,0,1.39-1.29v-.08a2.19,2.19,0,0,0-1.11-1.63,2.38,2.38,0,0,1-1-1.77,2.18,2.18,0,0,1,2.23-2.13h.18a3.08,3.08,0,0,1,1.77.52,8.49,8.49,0,0,0-.4,1.3.22.22,0,0,1-.31,0l0,0a1.09,1.09,0,0,0-.74-1.35,1.23,1.23,0,0,0-.38,0,1.22,1.22,0,0,0-1.29,1.13v.08c0,.7.67,1.19,1,1.45a2.37,2.37,0,0,1,1.2,2c0,1.27-1,2.21-2.61,2.21a2.07,2.07,0,0,1-1.89-.82" transform="translate(0 0.01)"/><path id="Fill-60" class="cls-3" d="M113.65,35.77a3.93,3.93,0,0,1,1.19-2.48,2.42,2.42,0,0,1,1.68-.8c.54,0,.91.29.9.71a.62.62,0,0,1-.63.58.28.28,0,0,1-.31-.25v0c0-.23,0-.58-.27-.58s-.48.21-.78.67a4.12,4.12,0,0,0-.66,2.07c0,.47.18.63.43.63a1.74,1.74,0,0,0,1.13-.64.17.17,0,0,1,.19.17v0a2.7,2.7,0,0,1-1.94,1.09c-.57,0-.93-.41-.93-1.17" transform="translate(0 0.01)"/><path id="Fill-61" class="cls-3" d="M119.47,30.68c.19-.53.23-.66,0-.78l-.25-.15a.17.17,0,0,1,0-.19,7.3,7.3,0,0,1,1.6-.31l.09.08c-.19.53-.45,1.19-.65,1.76l-1.13,3.19h0A7,7,0,0,1,120.52,33a2.12,2.12,0,0,1,1.16-.52.73.73,0,0,1,.75.69s0,.08,0,.12a5.48,5.48,0,0,1-.93,2.55,2.29,2.29,0,0,1-1.49,1.1c-.33,0-.5-.19-.5-.38a.41.41,0,0,1,.34-.41.27.27,0,0,1,.18.11c.11.11.2.17.27.17s.17-.15.28-.41a10.38,10.38,0,0,0,.81-2.68c0-.19-.07-.28-.19-.28a.88.88,0,0,0-.48.22,5.49,5.49,0,0,0-1.09,1.17,20.39,20.39,0,0,0-1.32,2.32.4.4,0,0,1-.36.17c-.19,0-.55-.07-.45-.36Z" transform="translate(0 0.01)"/><path id="Fill-62" class="cls-3" d="M125,35.93a5.87,5.87,0,0,0,.89-2.5c0-.28,0-.57-.34-.57s-.41.12-.69.47a5.51,5.51,0,0,0-1,2.68c0,.31.14.54.38.54s.49-.16.8-.62m-1-2.74a2.19,2.19,0,0,1,1.6-.7A1.24,1.24,0,0,1,127,33.65a1.22,1.22,0,0,1,0,.27,3.46,3.46,0,0,1-1,2.29,2.34,2.34,0,0,1-1.67.73A1.25,1.25,0,0,1,123,35.78a1.77,1.77,0,0,1,0-.23,3.66,3.66,0,0,1,1-2.36" transform="translate(0 0.01)"/><path id="Fill-63" class="cls-3" d="M129.68,35.93a5.87,5.87,0,0,0,.89-2.5c0-.28,0-.57-.34-.57s-.41.12-.69.47a5.51,5.51,0,0,0-1,2.68c0,.31.14.54.38.54s.48-.16.8-.62m-1-2.74a2.16,2.16,0,0,1,1.6-.7,1.24,1.24,0,0,1,1.31,1.16,1.22,1.22,0,0,1,0,.27,3.41,3.41,0,0,1-1,2.29,2.28,2.28,0,0,1-1.66.73,1.25,1.25,0,0,1-1.32-1.16,1.77,1.77,0,0,1,0-.23,3.59,3.59,0,0,1,1.11-2.36" transform="translate(0 0.01)"/><path id="Fill-64" class="cls-3" d="M133.17,35.92c-.09.28-.1.43,0,.43a5.09,5.09,0,0,0,1.15-1c.13,0,.21.07.19.19a2.31,2.31,0,0,1-2,1.42c-.42,0-.55-.22-.55-.38a2.35,2.35,0,0,1,.19-.78l1.74-5.1c.19-.55.15-.65,0-.76l-.24-.12a.16.16,0,0,1,0-.22,9.6,9.6,0,0,1,1.68-.33s.07.06.07.08c-.15.42-.27.76-.56,1.61Z" transform="translate(0 0.01)"/><path id="Fill-65" class="cls-3" d="M139.69,33.53a4.79,4.79,0,0,0-1.16,2.53c0,.12,0,.21.12.21a3.28,3.28,0,0,0,1.08-.84,6.27,6.27,0,0,0,1.16-2,.49.49,0,0,0-.47-.36c-.23,0-.4.09-.73.45Zm1.75-1.21h.21a.67.67,0,0,1,.59.25c-.3.68-1,2.42-1.36,3.52-.06.14,0,.19.05.19a2.4,2.4,0,0,0,1-.69c.09,0,.17.07.17.21a3,3,0,0,1-2,1.18.35.35,0,0,1-.35-.34,1.3,1.3,0,0,1,.11-.43l.38-1h0A4,4,0,0,1,137.83,37a.61.61,0,0,1-.57-.64A4.83,4.83,0,0,1,138.5,34a5.12,5.12,0,0,1,1.31-1,1.84,1.84,0,0,1,.83-.23.68.68,0,0,1,.24.08.7.7,0,0,1,.22.2Z" transform="translate(0 0.01)"/><path id="Fill-66" class="cls-3" d="M144.88,33.16l-.95,2.73c-.06.17,0,.25.07.25a3.47,3.47,0,0,0,1.16-.88.18.18,0,0,1,.17.17.13.13,0,0,1,0,.06,3.34,3.34,0,0,1-2.17,1.45.39.39,0,0,1-.38-.36,1.63,1.63,0,0,1,.13-.58l1-2.84h-.8c-.07-.09,0-.27.1-.34l.89-.17.67-1a.47.47,0,0,1,.26,0c.14,0,.29,0,.33.14l-.29,1h1.05a.32.32,0,0,1-.06.45h0Z" transform="translate(0 0.01)"/><path id="Fill-67" class="cls-3" d="M150.75,31.35c.3-.92.32-1.15-.24-1.22h-.26a.23.23,0,0,1,.06-.3h2.83c.09.06.09.26,0,.3h-.29c-.47.06-.59.18-.91,1.21l-.44,1.37c-.06.23,0,.3.12.3a1,1,0,0,0,.38,0,5.29,5.29,0,0,0,.93-.77l1.19-1.11c.17-.17.51-.49.59-.6s.11-.12.11-.17-.06-.1-.23-.14l-.17-.05a.2.2,0,0,1,0-.28l0,0H157a.18.18,0,0,1,.05.25.12.12,0,0,1-.05,0h-.2q-.35.08-.69.18a7.45,7.45,0,0,0-1.93,1.37l-1,.92c-.16.15-.25.25-.25.34a2,2,0,0,0,.09.33c.18.47,1,2.07,1.18,2.53s.35.61.75.66l.27.06a.22.22,0,0,1,0,.3h-2.65a.21.21,0,0,1,0-.3h.28c.33,0,.33-.18.19-.46a9.25,9.25,0,0,0-.48-1.06L152,34c-.24-.52-.33-.65-.49-.65s-.27.15-.39.5l-.43,1.39c-.3.92-.32,1.15.24,1.2h.35a.26.26,0,0,1-.06.31H148.3a.2.2,0,0,1,0-.28l0,0h.29c.47,0,.58-.18.91-1.2Z" transform="translate(0 0.01)"/><path id="Fill-68" class="cls-3" d="M157.86,35.93a5.87,5.87,0,0,0,.89-2.5c0-.28,0-.57-.34-.57s-.41.12-.69.47a5.51,5.51,0,0,0-1,2.68c0,.31.14.54.38.54s.48-.16.8-.62m-1-2.74a2.16,2.16,0,0,1,1.6-.7,1.24,1.24,0,0,1,1.31,1.16,1.22,1.22,0,0,1,0,.27,3.41,3.41,0,0,1-1,2.29,2.28,2.28,0,0,1-1.66.73,1.25,1.25,0,0,1-1.32-1.16,1.77,1.77,0,0,1,0-.23,3.59,3.59,0,0,1,1.11-2.36" transform="translate(0 0.01)"/><path id="Fill-69" class="cls-3" d="M162.61,33,162,34.59h0c.67-1,1.61-2.1,2.42-2.1.64,0,.61.59.53.91a10.68,10.68,0,0,1-.48,1.24h0c.86-1.38,1.71-2.15,2.45-2.15a.58.58,0,0,1,.65.5v.11a2.52,2.52,0,0,1-.19.81c-.19.52-.69,1.67-.87,2.09v.21a2.32,2.32,0,0,0,1-.72.17.17,0,0,1,.19.19,2.57,2.57,0,0,1-2,1.26.41.41,0,0,1-.38-.34,1.69,1.69,0,0,1,.21-.62c.27-.64.63-1.49.88-2.13a2,2,0,0,0,.17-.63c0-.1,0-.19-.16-.19s-.59.31-1.09.95a18.56,18.56,0,0,0-1.59,2.77.3.3,0,0,1-.32.19c-.3,0-.61-.07-.53-.32,0-.07.85-2.22,1.08-2.77a2.47,2.47,0,0,0,.19-.6c0-.13,0-.22-.16-.22s-.65.3-1.17,1a15,15,0,0,0-1.52,2.75A.3.3,0,0,1,161,37c-.32,0-.6-.07-.53-.32s1-2.79,1.11-3.09.07-.36-.07-.36c-.34,0-.68.34-.89.59a.2.2,0,0,1-.19-.19h0a2,2,0,0,1,1.84-1.08c.38,0,.43.3.34.54" transform="translate(0 0.01)"/><path id="Fill-70" class="cls-3" d="M170.53,33.53a4.79,4.79,0,0,0-1.16,2.53c0,.12,0,.21.12.21a3.07,3.07,0,0,0,1.08-.84,6,6,0,0,0,1.16-2,.46.46,0,0,0-.46-.36c-.24,0-.41.09-.74.45Zm1.75-1.21h.21a.67.67,0,0,1,.59.25c-.3.68-1,2.42-1.36,3.52-.05.14,0,.19.05.19a2.36,2.36,0,0,0,1.06-.69c.08,0,.16.07.16.21A3,3,0,0,1,171,37a.34.34,0,0,1-.34-.34,1.28,1.28,0,0,1,.1-.43l.38-1h0A4.09,4.09,0,0,1,168.72,37a.61.61,0,0,1-.57-.64A4.83,4.83,0,0,1,169.39,34a5.17,5.17,0,0,1,1.32-1,1.8,1.8,0,0,1,.82-.23.68.68,0,0,1,.24.08.7.7,0,0,1,.22.2Z" transform="translate(0 0.01)"/><path id="Fill-71" class="cls-3" d="M175.49,34.13a3.47,3.47,0,0,0-.83,1.93c0,.33.14.5.29.5a1.84,1.84,0,0,0,.93-.67,5.68,5.68,0,0,0,1.33-2.53c0-.26-.15-.37-.32-.37a3,3,0,0,0-1.4,1.14m1.63,1.62a3.48,3.48,0,0,1-2.4,1.19.94.94,0,0,1-1-.88v-.12a5.55,5.55,0,0,1,.47-1.83l1.3-3.45c.19-.49.19-.64,0-.75l-.26-.17a.15.15,0,0,1,.05-.19,7.44,7.44,0,0,1,1.62-.29.14.14,0,0,1,.08.1l-.58,1.43-1.28,3.34h0c.63-.91,1.36-1.63,2.1-1.63a.92.92,0,0,1,1,.83.49.49,0,0,1,0,.17,3.55,3.55,0,0,1-1.1,2.26" transform="translate(0 0.01)"/><path id="Fill-72" class="cls-3" d="M180.65,33.53a4.79,4.79,0,0,0-1.16,2.53c0,.12,0,.21.13.21a3.25,3.25,0,0,0,1.07-.84,5.74,5.74,0,0,0,1.16-2,.46.46,0,0,0-.46-.36c-.23,0-.4.09-.74.45Zm1.75-1.21h.21c.2,0,.5.06.59.25-.29.68-1,2.42-1.36,3.52-.05.14,0,.19.06.19a2.4,2.4,0,0,0,1-.69c.09,0,.17.07.17.21a3,3,0,0,1-2,1.18.34.34,0,0,1-.35-.33h0a1.3,1.3,0,0,1,.11-.43l.38-1h0a4.07,4.07,0,0,1-2.4,1.78.6.6,0,0,1-.57-.63h0A4.74,4.74,0,0,1,179.47,34a5.17,5.17,0,0,1,1.32-1,1.8,1.8,0,0,1,.82-.23.73.73,0,0,1,.25.08.83.83,0,0,1,.22.2Z" transform="translate(0 0.01)"/><path id="Fill-73" class="cls-3" d="M226,37.6a.23.23,0,0,1-.12-.29h0c.47-.17,1-.57,1-1.07a.51.51,0,0,0-.34-.47.32.32,0,0,1-.19-.31.58.58,0,0,1,.59-.55.91.91,0,0,1,.84,1v0c0,.83-.88,1.46-1.83,1.71" transform="translate(0 0.01)"/><path id="Fill-74" class="cls-3" d="M191.1,30.13c-.47.07-.59.19-.91,1.22l-.76,2.42a5.8,5.8,0,0,0-.25,1.24,1.32,1.32,0,0,0,1.15,1.47,1,1,0,0,0,.34,0c1.35,0,2-1.23,2.4-2.52l.51-1.58c.21-.71.39-1.45.43-1.69s0-.49-.48-.56h-.28a.2.2,0,0,1,0-.28h2.44a.19.19,0,0,1,0,.27s0,0,0,0l-.27.06a.85.85,0,0,0-.73.47,12.21,12.21,0,0,0-.61,1.76L193.6,34a4.78,4.78,0,0,1-1.21,2.2,3.17,3.17,0,0,1-2.06.73C188.9,37,188,36.4,188,35.1a4.63,4.63,0,0,1,.2-1.1l.83-2.63c.28-.92.3-1.15-.26-1.23h-.26a.2.2,0,0,1,0-.28h2.87c.07.06.07.25,0,.29Z" transform="translate(0 0.01)"/><path id="Fill-75" class="cls-3" d="M199.49,33.08a3,3,0,0,1-.19.83c-.19.52-.7,1.67-.87,2.09-.05.12-.06.21,0,.21a2.41,2.41,0,0,0,1-.72.17.17,0,0,1,.19.19,2.64,2.64,0,0,1-2,1.26.39.39,0,0,1-.36-.34,1.5,1.5,0,0,1,.19-.62c.28-.64.63-1.51.89-2.13a2.33,2.33,0,0,0,.17-.64c0-.09,0-.18-.15-.18a2.6,2.6,0,0,0-1.12.94,14.91,14.91,0,0,0-1.6,2.8.38.38,0,0,1-.36.17c-.19,0-.56-.07-.47-.36s1-2.75,1.12-3,.09-.32,0-.32a2,2,0,0,0-.91.55.18.18,0,0,1-.17-.17,2.44,2.44,0,0,1,1.82-1.1c.38,0,.41.31.32.54l-.65,1.64h0c.67-.94,1.64-2.18,2.54-2.18a.57.57,0,0,1,.64.5v.09" transform="translate(0 0.01)"/><path id="Fill-76" class="cls-3" d="M202.09,30.71a.75.75,0,0,1,.72-.77.47.47,0,0,1,.51.43v.09a.75.75,0,0,1-.72.77.48.48,0,0,1-.51-.45ZM201.5,36c0,.1-.05.2,0,.2a2.88,2.88,0,0,0,1.06-.73.18.18,0,0,1,.18.2h0a3.26,3.26,0,0,1-2.11,1.26c-.18,0-.34-.24-.34-.33a1,1,0,0,1,.1-.41l1.17-2.78v-.16a2.65,2.65,0,0,0-.9.57.18.18,0,0,1-.16-.18v0a3.24,3.24,0,0,1,1.94-1.12.38.38,0,0,1,.35.29.71.71,0,0,1-.12.45Z" transform="translate(0 0.01)"/><path id="Fill-77" class="cls-3" d="M203.68,36.27a3,3,0,0,1,.21-.93l.71-1.79c.07-.18.06-.34,0-.34a2.1,2.1,0,0,0-.94.7.21.21,0,0,1-.19-.19,2.6,2.6,0,0,1,1.88-1.23.48.48,0,0,1,.45.52.28.28,0,0,1,0,.09,3.93,3.93,0,0,1-.19.58L205,35.36a2.29,2.29,0,0,0-.17.62.28.28,0,0,0,.26.3h0a1.84,1.84,0,0,0,1.06-.77,3.37,3.37,0,0,0,.69-1.69,2.32,2.32,0,0,0-.11-.79.55.55,0,0,1,.55-.54c.45,0,.53.44.52.72a5,5,0,0,1-1.79,3,2.67,2.67,0,0,1-1.7.76c-.36,0-.57-.43-.57-.67" transform="translate(0 0.01)"/><path id="Fill-78" class="cls-3" d="M210,33.29a3.55,3.55,0,0,0-.76,1.35,2.69,2.69,0,0,0,1.2-.72,1.27,1.27,0,0,0,.39-.79c0-.14-.06-.27-.2-.27s-.36.13-.63.43m-2,2.5a3.75,3.75,0,0,1,1.49-2.73,2.45,2.45,0,0,1,1.48-.57.79.79,0,0,1,.84.72c0,.95-1.43,1.47-2.6,1.79a2.24,2.24,0,0,0-.1.68c0,.39.17.6.47.6a2,2,0,0,0,1.24-.66.17.17,0,0,1,.17.17s0,0,0,0a2.45,2.45,0,0,1-2,1.11,1,1,0,0,1-1-1,.86.86,0,0,1,0-.16" transform="translate(0 0.01)"/><path id="Fill-79" class="cls-3" d="M214,33.58l-.37,1.09h.06a13.1,13.1,0,0,1,.94-1.51c.34-.42.63-.67.94-.67a.54.54,0,0,1,.49.59c0,.3-.24.84-.57.84-.13,0-.17-.12-.21-.31s-.11-.31-.21-.31-.37.23-.72.81a25.93,25.93,0,0,0-1.27,2.66.35.35,0,0,1-.35.17c-.22,0-.59-.07-.49-.36.23-.69.76-2.15,1-3.11.06-.17,0-.28-.06-.28a2.15,2.15,0,0,0-.82.59.17.17,0,0,1-.17-.17s0,0,0,0a1.93,1.93,0,0,1,1.45-1.08c.58,0,.48.61.31,1.09" transform="translate(0 0.01)"/><path id="Fill-80" class="cls-3" d="M215.71,36.25c0-.23.17-.51.4-.51s.16.07.24.15a1.08,1.08,0,0,0,.8.47.39.39,0,0,0,.42-.36h0a1.85,1.85,0,0,0-.53-1,1.78,1.78,0,0,1-.44-1,1.45,1.45,0,0,1,.61-1.13,1.53,1.53,0,0,1,.95-.4.8.8,0,0,1,.84.72.44.44,0,0,1-.34.45.28.28,0,0,1-.23-.13c-.29-.34-.46-.45-.74-.45a.34.34,0,0,0-.35.32c0,.35.34.66.53.91a1.66,1.66,0,0,1,.46,1.12,1.41,1.41,0,0,1-.59,1.08,1.82,1.82,0,0,1-1.18.43.8.8,0,0,1-.85-.69" transform="translate(0 0.01)"/><path id="Fill-81" class="cls-3" d="M221.14,30.71a.74.74,0,0,1,.71-.77h0a.46.46,0,0,1,.5.41.41.41,0,0,1,0,.11.74.74,0,0,1-.71.77h0a.48.48,0,0,1-.51-.45ZM220.55,36c0,.1-.05.2,0,.2a2.67,2.67,0,0,0,1-.73.19.19,0,0,1,.19.19v0a3.26,3.26,0,0,1-2.11,1.26c-.18,0-.34-.24-.34-.33a1,1,0,0,1,.09-.41l1.17-2.78c0-.1,0-.16,0-.16a2.51,2.51,0,0,0-.9.57.18.18,0,0,1-.16-.18v0a3.24,3.24,0,0,1,1.94-1.12.38.38,0,0,1,.35.29.71.71,0,0,1-.12.45Z" transform="translate(0 0.01)"/><path id="Fill-82" class="cls-3" d="M224.6,33.16l-.95,2.73c-.06.17-.05.25.06.25a3.23,3.23,0,0,0,1.16-.88c.13,0,.19.08.17.23a3.34,3.34,0,0,1-2.17,1.45.39.39,0,0,1-.38-.36,1.94,1.94,0,0,1,.12-.58l1-2.84h-.81a.28.28,0,0,1,.11-.34l.88-.17.68-1a.43.43,0,0,1,.25,0c.15,0,.3,0,.34.14l-.29,1h1a.33.33,0,0,1-.08.46h0Z" transform="translate(0 0.01)"/><path id="Fill-83" class="cls-3" d="M228,34.34a13.36,13.36,0,0,1-.14,2.19h0a9.59,9.59,0,0,0,.93-2.36,9.28,9.28,0,0,0,.23-1.28c0-.32.16-.38.3-.38a.87.87,0,0,1,.39.1.29.29,0,0,1,.14.28A9.18,9.18,0,0,1,228.67,36a15.84,15.84,0,0,1-1.79,2.58,2.48,2.48,0,0,1-1.78,1,.62.62,0,0,1-.68-.55.55.55,0,0,1,.5-.6h0c.17,0,.25.09.36.23s.22.28.36.28a.89.89,0,0,0,.59-.26,2.91,2.91,0,0,0,.65-1.27,8.21,8.21,0,0,0,.18-2.32c0-1.21-.16-1.81-.39-1.81s-.46.41-.65.81a.2.2,0,0,1-.26-.08s0,0,0,0c.2-.64.67-1.53,1.4-1.53.56,0,.81.77.84,1.85" transform="translate(0 0.01)"/><path id="Fill-84" class="cls-3" d="M234.24,35.93a5.91,5.91,0,0,0,.88-2.5c0-.28,0-.57-.33-.57s-.42.12-.69.47a5.42,5.42,0,0,0-1,2.68c0,.31.13.54.38.54s.48-.16.8-.62m-1.05-2.74a2.19,2.19,0,0,1,1.6-.7,1.24,1.24,0,0,1,1.31,1.16,1.22,1.22,0,0,1,0,.27,3.46,3.46,0,0,1-1,2.29,2.3,2.3,0,0,1-1.67.73,1.25,1.25,0,0,1-1.32-1.18,1.48,1.48,0,0,1,0-.21,3.59,3.59,0,0,1,1.11-2.36" transform="translate(0 0.01)"/><path id="Fill-85" class="cls-3" d="M238.86,33.1c-.36,1-.85,3-1.17,4a6.19,6.19,0,0,1-.82,1.79,2,2,0,0,1-1.43.72.81.81,0,0,1-.89-.7.47.47,0,0,1,.41-.5.35.35,0,0,1,.32.21c.2.32.43.53.61.53s.31-.17.52-.9c.36-1.26.87-3.31,1.39-5.16h-.94a.35.35,0,0,1,.13-.47h.94a7.44,7.44,0,0,1,.9-2.16,2.45,2.45,0,0,1,2-1.22c.65,0,1,.38,1,.81a.68.68,0,0,1-.57.72.21.21,0,0,1-.23-.19v0c-.08-.72-.39-.94-.6-.94s-.48.26-.71.71a13.26,13.26,0,0,0-.81,2.29h1.26a.35.35,0,0,1-.13.47Z" transform="translate(0 0.01)"/><path id="Fill-86" class="cls-3" d="M249.24,29.83c.47,0,.62-.06.81-.25a.23.23,0,0,1,.27,0,9.27,9.27,0,0,0-.63,1.64.22.22,0,0,1-.32,0l0,0c0-.43,0-.77-.15-.88a1.54,1.54,0,0,0-.76-.14h-.58c-.32,0-.33,0-.44.38L246,35.27c-.3.92-.32,1.15.24,1.2h.44a.25.25,0,0,1-.06.31h-3.14a.21.21,0,0,1,0-.3h.43c.48,0,.58-.17.91-1.19l1.46-4.65c.11-.36.1-.38-.26-.38h-.54a1.76,1.76,0,0,0-.9.18,2.5,2.5,0,0,0-.81.84c-.11.06-.3,0-.32-.1a15.52,15.52,0,0,0,.79-1.58c0-.07.17-.07.25,0s.11.28.79.28Z" transform="translate(0 0.01)"/><path id="Fill-87" class="cls-3" d="M248.07,36.25c0-.23.17-.51.4-.51s.16.07.24.15a1.08,1.08,0,0,0,.8.47.39.39,0,0,0,.42-.36h0a1.85,1.85,0,0,0-.53-1,1.78,1.78,0,0,1-.44-1,1.45,1.45,0,0,1,.61-1.13,1.56,1.56,0,0,1,1-.4.8.8,0,0,1,.84.72.44.44,0,0,1-.33.45.29.29,0,0,1-.24-.13c-.29-.34-.46-.45-.74-.45a.34.34,0,0,0-.35.32c0,.35.34.66.54.91a1.7,1.7,0,0,1,.45,1.12,1.41,1.41,0,0,1-.59,1.08,1.82,1.82,0,0,1-1.18.43.8.8,0,0,1-.85-.69" transform="translate(0 0.01)"/><path id="Fill-88" class="cls-3" d="M253,33.52c.06-.17.05-.27,0-.27a5.68,5.68,0,0,0-1,.7.17.17,0,0,1-.17-.21,3,3,0,0,1,2-1.25.41.41,0,0,1,.41.37,1.37,1.37,0,0,1-.07.29L253,35.86c-.08.19,0,.3.07.3a2.86,2.86,0,0,0,.77-.57,11.31,11.31,0,0,0,2-3.06.86.86,0,0,1,.32,0,.67.67,0,0,1,.53.21c-.27.68-.82,2.06-1.25,3.21-.05.17-.05.29,0,.29a4.66,4.66,0,0,0,1-.77c.11,0,.2,0,.2.19a3.08,3.08,0,0,1-2,1.32.35.35,0,0,1-.35-.33.32.32,0,0,1,0-.14l.66-1.7h0c-.67.89-1.9,2.17-2.6,2.17a.52.52,0,0,1-.5-.51A1.58,1.58,0,0,1,252,36Z" transform="translate(0 0.01)"/><path id="Fill-89" class="cls-3" d="M260.19,34.28c.42-.29.72-.62.72-.9a.28.28,0,0,0-.28-.28h0a2.2,2.2,0,0,0-1.29.81,2.47,2.47,0,0,0-.55.77c0,.06,0,.15.1.15a3,3,0,0,0,1.33-.55M262,33.17a1.43,1.43,0,0,1-.65,1,3.4,3.4,0,0,1-1.38.63c-.06,0-.06.1,0,.19a4.6,4.6,0,0,0,.31.88c.09.2.18.31.3.31a1.65,1.65,0,0,0,.7-.53.16.16,0,0,1,.19.13v0a1.85,1.85,0,0,1-1.4,1.09c-.25,0-.45-.17-.61-.49a7.15,7.15,0,0,1-.38-1.1.2.2,0,0,0-.25-.19c-.13,0-.27.08-.4.39L258,36.72a.4.4,0,0,1-.36.17c-.19,0-.57-.07-.49-.36l2-5.84c.19-.57.19-.68,0-.77l-.25-.13a.17.17,0,0,1,0-.21,7.57,7.57,0,0,1,1.63-.38.12.12,0,0,1,.09.08c-.12.38-.27.73-.52,1.45L259,33.85h0c.57-.59,1.25-1.36,2.17-1.36.62,0,.85.38.85.68" transform="translate(0 0.01)"/><path id="Fill-90" class="cls-3" d="M263.63,33.52c.06-.17.05-.27,0-.27a5.68,5.68,0,0,0-1,.7.16.16,0,0,1-.16-.18v0a3,3,0,0,1,2-1.25.4.4,0,0,1,.4.37,1.36,1.36,0,0,1-.06.29l-1.09,2.71c-.07.19,0,.3.07.3a2.86,2.86,0,0,0,.77-.57,11.31,11.31,0,0,0,2-3.06.81.81,0,0,1,.31,0,.67.67,0,0,1,.53.21c-.26.68-.81,2.06-1.24,3.21-.06.17-.06.29,0,.29a3.54,3.54,0,0,0,1-.77c.11,0,.19,0,.19.19a3.07,3.07,0,0,1-2,1.32.33.33,0,0,1-.35-.31.45.45,0,0,1,0-.16l.65-1.7h0c-.67.89-1.9,2.17-2.59,2.17a.53.53,0,0,1-.51-.51,1.33,1.33,0,0,1,.13-.52Z" transform="translate(0 0.01)"/><path id="Fill-91" class="cls-3" d="M269.9,34.13a3.47,3.47,0,0,0-.83,1.93c0,.33.14.5.29.5a1.84,1.84,0,0,0,.93-.67,5.44,5.44,0,0,0,1.33-2.53c0-.26-.15-.37-.32-.37a3,3,0,0,0-1.4,1.14m1.63,1.62a3.48,3.48,0,0,1-2.4,1.19.94.94,0,0,1-1-.88v-.12a5.54,5.54,0,0,1,.46-1.83l1.3-3.45c.19-.49.2-.64,0-.75l-.25-.17a.14.14,0,0,1,0-.19,7.44,7.44,0,0,1,1.62-.29.14.14,0,0,1,.08.1c-.21.51-.36.89-.57,1.43l-1.29,3.34h0c.63-.91,1.36-1.63,2.1-1.63a.92.92,0,0,1,1,.83.49.49,0,0,1,0,.17,3.55,3.55,0,0,1-1.1,2.26" transform="translate(0 0.01)"/><path id="Fill-92" class="cls-3" d="M275.06,33.53a5,5,0,0,0-1.16,2.53c0,.12.05.21.13.21a3.28,3.28,0,0,0,1.08-.84,6.27,6.27,0,0,0,1.16-2,.49.49,0,0,0-.47-.36c-.23,0-.4.09-.74.45Zm1.75-1.21H277c.2,0,.49.06.58.25-.29.68-1,2.42-1.35,3.52-.06.14,0,.19.05.19a2.33,2.33,0,0,0,1.05-.69c.09,0,.17.07.17.21a3,3,0,0,1-2,1.18.35.35,0,0,1-.35-.34,1.3,1.3,0,0,1,.11-.43l.38-1h0a4,4,0,0,1-2.4,1.78.6.6,0,0,1-.57-.63h0A4.68,4.68,0,0,1,273.94,34a5.12,5.12,0,0,1,1.31-1,1.84,1.84,0,0,1,.83-.23.68.68,0,0,1,.24.08.7.7,0,0,1,.22.2Z" transform="translate(0 0.01)"/><text class="cls-4" transform="translate(56.7 23.75) scale(0.98 1)">筑波大学附属駒<tspan class="cls-5" x="157.08" y="0">場</tspan><tspan class="cls-6" x="179.32" y="0">中</tspan><tspan x="201.4" y="0">学生徒会</tspan></text><path class="cls-7" d="M281.48,34.93a1.43,1.43,0,0,0,1.46,1.42h.18c.92,0,1.53-.42,1.53-1.26,0-.63-.31-1-1.44-1.45s-1.74-1-1.74-1.79c0-1,.71-1.94,2.28-1.94s2.21.89,2.21,1.93h-.86a1.22,1.22,0,0,0-1.24-1.22h-.18c-.87,0-1.32.51-1.32,1.12s.22.78,1.27,1.17c1.43.54,1.93,1.14,1.93,2.05,0,1.09-.69,2.1-2.54,2.1a2.12,2.12,0,0,1-2.4-1.8c0-.11,0-.22,0-.33Z" transform="translate(0 0.01)"/><path class="cls-7" d="M286.79,31.89h.84l.32-1.47h.82l-.31,1.47h1.08l-.15.68h-1.08l-.64,3.06c-.1.47-.08.69.36.69h.5l-.15.65a2.07,2.07,0,0,1-.7.09c-.8,0-1.06-.39-.88-1.23l.68-3.22h-.84Z" transform="translate(0 0.01)"/><path class="cls-7" d="M293.52,35.6c-.1.45-.19.95-.26,1.36h-.81a8.49,8.49,0,0,1,.14-.88,1.91,1.91,0,0,1-1.7,1c-.93,0-1.52-.54-1.24-1.87l.72-3.3h.81l-.68,3.22c-.15.65-.12,1.23.71,1.23s1.44-.58,1.75-2l.52-2.44h.83Z" transform="translate(0 0.01)"/><path class="cls-7" d="M300.41,29.62l-1.25,5.92c-.1.48-.21,1-.29,1.42h-.8a7.62,7.62,0,0,1,.14-.81,1.82,1.82,0,0,1-1.68.91c-1.09,0-1.64-.82-1.64-2,0-1.49.89-3.29,2.65-3.29a1.41,1.41,0,0,1,1.42.79l.62-3ZM295.76,35c0,.9.39,1.33,1.06,1.33,1.05,0,1.59-.95,1.81-2.08s-.1-1.73-1.07-1.73C296.38,32.52,295.76,33.89,295.76,35Z" transform="translate(0 0.01)"/><path class="cls-7" d="M301.4,34.55a3.84,3.84,0,0,0,0,.48c0,.85.4,1.34,1.12,1.34a1.4,1.4,0,0,0,1.31-.84h.86a2.31,2.31,0,0,1-2.27,1.53,1.78,1.78,0,0,1-1.87-1.68,1.69,1.69,0,0,1,0-.32c0-1.42.78-3.25,2.65-3.25a1.65,1.65,0,0,1,1.79,1.5,1.4,1.4,0,0,1,0,.29,3.81,3.81,0,0,1-.12.95Zm2.75-.63a2.29,2.29,0,0,0,0-.37,1,1,0,0,0-.9-1.09h-.15c-.77,0-1.33.53-1.59,1.46Z" transform="translate(0 0.01)"/><path class="cls-7" d="M306.37,33.17c.09-.43.17-.86.25-1.28h.81a5.7,5.7,0,0,1-.16.86,1.91,1.91,0,0,1,1.71-1c1,0,1.57.56,1.26,2L309.57,37h-.82l.66-3.15c.16-.76,0-1.29-.78-1.29-.94,0-1.48.87-1.7,1.9L306.39,37h-.82Z" transform="translate(0 0.01)"/><path class="cls-7" d="M311.44,31.89h.84l.32-1.47h.82l-.31,1.47h1.08l-.15.68h-1l-.65,3.06c-.09.47-.07.69.37.69h.5l-.15.65a2.07,2.07,0,0,1-.7.09c-.8,0-1.06-.39-.88-1.23l.68-3.22h-.84Z" transform="translate(0 0.01)"/><path class="cls-7" d="M322.56,34.9a3,3,0,0,1-3,2.14c-1.76,0-2.53-1.22-2.53-2.79,0-2,1.13-4.35,3.55-4.35a2.2,2.2,0,0,1,2.41,2,1.62,1.62,0,0,1,0,.22h-.91a1.47,1.47,0,0,0-1.45-1.49h-.18c-1.67,0-2.53,1.84-2.53,3.6,0,1.13.47,2.08,1.71,2.08a2.06,2.06,0,0,0,2-1.41Z" transform="translate(0 0.01)"/><path class="cls-7" d="M328.09,33.88c0,1.34-.76,3.18-2.7,3.18a1.8,1.8,0,0,1-1.92-1.69,1.53,1.53,0,0,1,0-.37c0-1.4.86-3.22,2.69-3.22a1.85,1.85,0,0,1,1.94,1.76A1.94,1.94,0,0,1,328.09,33.88ZM324.34,35c0,.85.4,1.35,1.14,1.35,1.22,0,1.75-1.44,1.75-2.51,0-.85-.37-1.37-1.14-1.37C324.92,32.48,324.34,33.92,324.34,35Z" transform="translate(0 0.01)"/><path class="cls-7" d="M329.48,33.17c.1-.43.18-.86.26-1.28h.81a5.7,5.7,0,0,1-.16.86,1.91,1.91,0,0,1,1.71-1c1,0,1.57.56,1.26,2L332.69,37h-.82l.66-3.15c.16-.76,0-1.29-.78-1.29-.94,0-1.48.87-1.7,1.9L329.51,37h-.83Z" transform="translate(0 0.01)"/><path class="cls-7" d="M338.44,35.44a2.22,2.22,0,0,1-2.25,1.62,1.76,1.76,0,0,1-1.86-1.64,2.17,2.17,0,0,1,0-.36c0-1.52.85-3.28,2.61-3.28a1.6,1.6,0,0,1,1.77,1.4,1.15,1.15,0,0,1,0,.32h-.82a.94.94,0,0,0-.88-1h-.12c-1.17,0-1.7,1.45-1.7,2.55s.43,1.36,1.09,1.36a1.44,1.44,0,0,0,1.3-.94Z" transform="translate(0 0.01)"/><path class="cls-7" d="M340.28,31.89h.83L340,37h-.82Zm.48-2.27h.82l-.22,1.09h-.83Z" transform="translate(0 0.01)"/><path class="cls-7" d="M341.55,37l1.56-7.34h.82L342.38,37Z" transform="translate(0 0.01)"/></svg>