<?xml version="1.0" encoding="utf-8"?>
<!-- Generator: Adobe Illustrator 25.0.0, SVG Export Plug-In . SVG Version: 6.00 Build 0)  -->
<svg version="1.1" id="レイヤー_1" xmlns="http://www.w3.org/2000/svg" xmlns:xlink="http://www.w3.org/1999/xlink" x="0px"
	 y="0px" viewBox="0 0 354 40" style="enable-background:new 0 0 354 40;" xml:space="preserve">
<style type="text/css">
	.st0{fill-rule:evenodd;clip-rule:evenodd;fill:#FEFEFE;}
	.st1{filter:url(#Adobe_OpacityMaskFilter);}
	.st2{fill-rule:evenodd;clip-rule:evenodd;fill:#FFFFFF;}
	.st3{mask:url(#mask-2_1_);fill-rule:evenodd;clip-rule:evenodd;fill:#1F0F08;}
	.st4{fill-rule:evenodd;clip-rule:evenodd;fill:#1F0F08;}
	.st5{filter:url(#Adobe_OpacityMaskFilter_1_);}
	.st6{mask:url(#mask-4_1_);fill-rule:evenodd;clip-rule:evenodd;fill:#1F0F08;}
	.st7{filter:url(#Adobe_OpacityMaskFilter_2_);}
	.st8{mask:url(#mask-6_1_);fill-rule:evenodd;clip-rule:evenodd;fill:#1F0F08;}
	.st9{filter:url(#Adobe_OpacityMaskFilter_3_);}
	.st10{mask:url(#mask-8_1_);fill-rule:evenodd;clip-rule:evenodd;fill:#1F0F08;}
	.st11{filter:url(#Adobe_OpacityMaskFilter_4_);}
	.st12{mask:url(#mask-8_2_);fill-rule:evenodd;clip-rule:evenodd;fill:#1F0F08;}
	.st13{filter:url(#Adobe_OpacityMaskFilter_5_);}
	.st14{mask:url(#mask-8_3_);fill-rule:evenodd;clip-rule:evenodd;fill:#1F0F08;}
	.st15{filter:url(#Adobe_OpacityMaskFilter_6_);}
	.st16{mask:url(#mask-8_4_);fill-rule:evenodd;clip-rule:evenodd;fill:#1F0F08;}
	.st17{filter:url(#Adobe_OpacityMaskFilter_7_);}
	.st18{mask:url(#mask-8_8_);fill-rule:evenodd;clip-rule:evenodd;fill:#1F0F08;}
	.st19{filter:url(#Adobe_OpacityMaskFilter_8_);}
	.st20{mask:url(#mask-8_10_);fill-rule:evenodd;clip-rule:evenodd;fill:#1F0F08;}
	.st21{filter:url(#Adobe_OpacityMaskFilter_9_);}
	.st22{mask:url(#mask-8_11_);fill-rule:evenodd;clip-rule:evenodd;fill:#1F0F08;}
	.st23{filter:url(#Adobe_OpacityMaskFilter_10_);}
	.st24{mask:url(#mask-8_12_);fill-rule:evenodd;clip-rule:evenodd;fill:#1F0F08;}
	.st25{filter:url(#Adobe_OpacityMaskFilter_11_);}
	.st26{mask:url(#mask-8_13_);fill-rule:evenodd;clip-rule:evenodd;fill:#1F0F08;}
	.st27{filter:url(#Adobe_OpacityMaskFilter_12_);}
	.st28{mask:url(#mask-8_14_);fill-rule:evenodd;clip-rule:evenodd;fill:#1F0F08;}
	.st29{filter:url(#Adobe_OpacityMaskFilter_13_);}
	.st30{mask:url(#mask-8_15_);fill-rule:evenodd;clip-rule:evenodd;fill:#1F0F08;}
	.st31{filter:url(#Adobe_OpacityMaskFilter_14_);}
	.st32{mask:url(#mask-8_23_);fill-rule:evenodd;clip-rule:evenodd;fill:#1F0F08;}
	.st33{filter:url(#Adobe_OpacityMaskFilter_15_);}
	.st34{mask:url(#mask-8_24_);fill-rule:evenodd;clip-rule:evenodd;fill:#1F0F08;}
	.st35{filter:url(#Adobe_OpacityMaskFilter_16_);}
	.st36{mask:url(#mask-8_25_);fill-rule:evenodd;clip-rule:evenodd;fill:#1F0F08;}
	.st37{filter:url(#Adobe_OpacityMaskFilter_17_);}
	.st38{mask:url(#mask-8_26_);fill-rule:evenodd;clip-rule:evenodd;fill:#1F0F08;}
	.st39{filter:url(#Adobe_OpacityMaskFilter_18_);}
	.st40{mask:url(#mask-8_27_);fill-rule:evenodd;clip-rule:evenodd;fill:#1F0F08;}
	.st41{filter:url(#Adobe_OpacityMaskFilter_19_);}
	.st42{mask:url(#mask-8_28_);fill-rule:evenodd;clip-rule:evenodd;fill:#1F0F08;}
	.st43{filter:url(#Adobe_OpacityMaskFilter_20_);}
	.st44{mask:url(#mask-8_29_);fill-rule:evenodd;clip-rule:evenodd;fill:#1F0F08;}
	.st45{filter:url(#Adobe_OpacityMaskFilter_21_);}
	.st46{mask:url(#mask-8_30_);fill-rule:evenodd;clip-rule:evenodd;fill:#1F0F08;}
	.st47{filter:url(#Adobe_OpacityMaskFilter_22_);}
	.st48{mask:url(#mask-8_31_);fill-rule:evenodd;clip-rule:evenodd;fill:#1F0F08;}
	.st49{filter:url(#Adobe_OpacityMaskFilter_23_);}
	.st50{mask:url(#mask-8_32_);fill-rule:evenodd;clip-rule:evenodd;fill:#1F0F08;}
	.st51{filter:url(#Adobe_OpacityMaskFilter_24_);}
	.st52{mask:url(#mask-8_33_);fill-rule:evenodd;clip-rule:evenodd;fill:#1F0F08;}
	.st53{filter:url(#Adobe_OpacityMaskFilter_25_);}
	.st54{mask:url(#mask-8_34_);fill-rule:evenodd;clip-rule:evenodd;fill:#1F0F08;}
	.st55{filter:url(#Adobe_OpacityMaskFilter_26_);}
	.st56{mask:url(#mask-8_35_);fill-rule:evenodd;clip-rule:evenodd;fill:#1F0F08;}
	.st57{filter:url(#Adobe_OpacityMaskFilter_27_);}
	.st58{mask:url(#mask-8_36_);fill-rule:evenodd;clip-rule:evenodd;fill:#1F0F08;}
	.st59{filter:url(#Adobe_OpacityMaskFilter_28_);}
	.st60{mask:url(#mask-8_37_);fill-rule:evenodd;clip-rule:evenodd;fill:#1F0F08;}
	.st61{filter:url(#Adobe_OpacityMaskFilter_29_);}
	.st62{mask:url(#mask-8_38_);fill-rule:evenodd;clip-rule:evenodd;fill:#1F0F08;}
	.st63{filter:url(#Adobe_OpacityMaskFilter_30_);}
	.st64{mask:url(#mask-8_39_);fill-rule:evenodd;clip-rule:evenodd;fill:#1F0F08;}
	.st65{filter:url(#Adobe_OpacityMaskFilter_31_);}
	.st66{mask:url(#mask-8_40_);fill-rule:evenodd;clip-rule:evenodd;fill:#1F0F08;}
	.st67{filter:url(#Adobe_OpacityMaskFilter_32_);}
	.st68{mask:url(#mask-8_41_);fill-rule:evenodd;clip-rule:evenodd;fill:#1F0F08;}
	.st69{filter:url(#Adobe_OpacityMaskFilter_33_);}
	.st70{mask:url(#mask-8_42_);fill-rule:evenodd;clip-rule:evenodd;fill:#1F0F08;}
	.st71{filter:url(#Adobe_OpacityMaskFilter_34_);}
	.st72{mask:url(#mask-8_43_);fill-rule:evenodd;clip-rule:evenodd;fill:#1F0F08;}
	.st73{filter:url(#Adobe_OpacityMaskFilter_35_);}
	.st74{mask:url(#mask-8_44_);fill-rule:evenodd;clip-rule:evenodd;fill:#1F0F08;}
	.st75{filter:url(#Adobe_OpacityMaskFilter_36_);}
	.st76{mask:url(#mask-8_45_);fill-rule:evenodd;clip-rule:evenodd;fill:#1F0F08;}
	.st77{filter:url(#Adobe_OpacityMaskFilter_37_);}
	.st78{mask:url(#mask-8_46_);fill-rule:evenodd;clip-rule:evenodd;fill:#1F0F08;}
	.st79{filter:url(#Adobe_OpacityMaskFilter_38_);}
	.st80{mask:url(#mask-8_47_);fill-rule:evenodd;clip-rule:evenodd;fill:#1F0F08;}
	.st81{filter:url(#Adobe_OpacityMaskFilter_39_);}
	.st82{mask:url(#mask-8_48_);fill-rule:evenodd;clip-rule:evenodd;fill:#1F0F08;}
	.st83{filter:url(#Adobe_OpacityMaskFilter_40_);}
	.st84{mask:url(#mask-8_49_);fill-rule:evenodd;clip-rule:evenodd;fill:#1F0F08;}
	.st85{filter:url(#Adobe_OpacityMaskFilter_41_);}
	.st86{mask:url(#mask-8_50_);fill-rule:evenodd;clip-rule:evenodd;fill:#1F0F08;}
	.st87{filter:url(#Adobe_OpacityMaskFilter_42_);}
	.st88{mask:url(#mask-8_51_);fill-rule:evenodd;clip-rule:evenodd;fill:#1F0F08;}
	.st89{filter:url(#Adobe_OpacityMaskFilter_43_);}
	.st90{mask:url(#mask-8_52_);fill-rule:evenodd;clip-rule:evenodd;fill:#1F0F08;}
	.st91{filter:url(#Adobe_OpacityMaskFilter_44_);}
	.st92{mask:url(#mask-8_53_);fill-rule:evenodd;clip-rule:evenodd;fill:#1F0F08;}
	.st93{filter:url(#Adobe_OpacityMaskFilter_45_);}
	.st94{mask:url(#mask-8_54_);fill-rule:evenodd;clip-rule:evenodd;fill:#1F0F08;}
	.st95{filter:url(#Adobe_OpacityMaskFilter_46_);}
	.st96{mask:url(#mask-8_55_);fill-rule:evenodd;clip-rule:evenodd;fill:#1F0F08;}
	.st97{filter:url(#Adobe_OpacityMaskFilter_47_);}
	.st98{mask:url(#mask-8_56_);fill-rule:evenodd;clip-rule:evenodd;fill:#1F0F08;}
	.st99{filter:url(#Adobe_OpacityMaskFilter_48_);}
	.st100{mask:url(#mask-8_57_);fill-rule:evenodd;clip-rule:evenodd;fill:#1F0F08;}
	.st101{filter:url(#Adobe_OpacityMaskFilter_49_);}
	.st102{mask:url(#mask-8_58_);fill-rule:evenodd;clip-rule:evenodd;fill:#1F0F08;}
	.st103{filter:url(#Adobe_OpacityMaskFilter_50_);}
	.st104{mask:url(#mask-8_59_);fill-rule:evenodd;clip-rule:evenodd;fill:#1F0F08;}
	.st105{filter:url(#Adobe_OpacityMaskFilter_51_);}
	.st106{mask:url(#mask-8_60_);fill-rule:evenodd;clip-rule:evenodd;fill:#1F0F08;}
	.st107{font-family:'HiraMinPro-W6-83pv-RKSJ-H';}
	.st108{font-size:22.4378px;}
</style>
<desc>Created with Sketch.</desc>
<path id="Fill-1" class="st0" d="M34.7,39.7c-0.1,0-0.2,0-0.2-0.1l-7-5.2c-0.1-0.1-0.1-0.2-0.1-0.3V6.9c0-0.1,0.1-0.3,0.2-0.3
	c0.1-0.1,0.3,0,0.4,0l6.8,5.2l6.8-5.2c0.1-0.1,0.3-0.1,0.4,0C41.9,6.6,42,6.7,42,6.9v27.3c0,0.1-0.1,0.2-0.1,0.3l-7,5.2
	C34.8,39.7,34.8,39.7,34.7,39.7z"/>
<g id="Group-5" transform="translate(27.000000, 6.000000)">
	<g id="Clip-4">
	</g>
	<defs>
		<filter id="Adobe_OpacityMaskFilter" filterUnits="userSpaceOnUse" x="0.2" y="0.2" width="14.9" height="33.8">
			<feColorMatrix  type="matrix" values="1 0 0 0 0  0 1 0 0 0  0 0 1 0 0  0 0 0 1 0"/>
		</filter>
	</defs>
	<mask maskUnits="userSpaceOnUse" x="0.2" y="0.2" width="14.9" height="33.8" id="mask-2_1_">
		<g class="st1">
			<polygon id="path-1_1_" class="st2" points="0.2,34 15.1,34 15.1,0.2 0.2,0.2 			"/>
		</g>
	</mask>
	<path id="Fill-3" class="st3" d="M0.9,28.1l6.7,5l6.7-5V1.4l-6.5,5c-0.1,0.1-0.3,0.1-0.4,0l-6.5-5V28.1z M7.7,34
		c-0.1,0-0.2,0-0.2-0.1l-7.1-5.3c-0.1-0.1-0.2-0.2-0.2-0.3V0.6c0-0.1,0.1-0.3,0.2-0.3c0.1-0.1,0.3,0,0.4,0l6.9,5.2l6.9-5.2
		c0.1-0.1,0.3-0.1,0.4,0c0.1,0.1,0.2,0.2,0.2,0.3v27.7c0,0.1-0.1,0.2-0.1,0.3l-7.1,5.3C7.8,34,7.8,34,7.7,34L7.7,34z"/>
</g>
<path id="Fill-6" class="st4" d="M29.4,33.4l5.2,3.9l5.2-3.9v-23l-5.1,3.9c-0.1,0.1-0.2,0.1-0.3,0l-5.1-3.9V33.4z M34.7,37.9
	c-0.1,0-0.1,0-0.2-0.1L29,33.7c-0.1,0-0.1-0.1-0.1-0.2V9.9c0-0.1,0.1-0.2,0.1-0.2c0.1,0,0.2,0,0.3,0l5.3,4.1L40,9.7
	c0.1-0.1,0.2-0.1,0.3,0c0.1,0,0.1,0.1,0.1,0.2v23.7c0,0.1,0,0.2-0.1,0.2l-5.5,4.1C34.8,37.9,34.7,37.9,34.7,37.9L34.7,37.9z"/>
<path id="Fill-8" class="st0" d="M7.5,39.7c-0.1,0-0.2,0-0.2-0.1l-7-5.2c-0.1-0.1-0.1-0.2-0.1-0.3V6.9c0-0.1,0.1-0.3,0.2-0.3
	c0.1-0.1,0.3,0,0.4,0l6.8,5.2l6.8-5.2c0.1-0.1,0.3-0.1,0.4,0c0.1,0.1,0.2,0.2,0.2,0.3v27.3c0,0.1-0.1,0.2-0.1,0.3l-7,5.2
	C7.6,39.7,7.5,39.7,7.5,39.7"/>
<g id="Group-12" transform="translate(0.000000, 6.000000)">
	<g id="Clip-11">
	</g>
	<defs>
		<filter id="Adobe_OpacityMaskFilter_1_" filterUnits="userSpaceOnUse" x="0" y="0.2" width="14.9" height="33.8">
			<feColorMatrix  type="matrix" values="1 0 0 0 0  0 1 0 0 0  0 0 1 0 0  0 0 0 1 0"/>
		</filter>
	</defs>
	<mask maskUnits="userSpaceOnUse" x="0" y="0.2" width="14.9" height="33.8" id="mask-4_1_">
		<g class="st5">
			<polygon id="path-3_1_" class="st2" points="14.9,34 0,34 0,17.1 0,0.2 14.9,0.2 			"/>
		</g>
	</mask>
	<path id="Fill-10" class="st6" d="M0.7,28.1l6.7,5l6.7-5V1.4l-6.5,5c-0.1,0.1-0.3,0.1-0.4,0l-6.5-5V28.1z M7.5,34
		c-0.1,0-0.2,0-0.2-0.1l-7.1-5.3C0.1,28.6,0,28.4,0,28.3V0.6c0-0.1,0.1-0.3,0.2-0.3c0.1-0.1,0.3,0,0.4,0l6.9,5.2l6.9-5.2
		c0.1-0.1,0.3-0.1,0.4,0c0.1,0.1,0.2,0.2,0.2,0.3v27.7c0,0.1-0.1,0.2-0.1,0.3l-7.1,5.3C7.6,34,7.5,34,7.5,34L7.5,34z"/>
</g>
<path id="Fill-13" class="st4" d="M2.2,33.4l5.2,3.9l5.2-3.9v-23l-5.1,3.9c-0.1,0.1-0.2,0.1-0.3,0l-5.1-3.9V33.4z M7.5,37.9
	c-0.1,0-0.1,0-0.2-0.1l-5.5-4.1c-0.1,0-0.1-0.1-0.1-0.2V9.9c0-0.1,0.1-0.2,0.1-0.2c0.1,0,0.2,0,0.3,0l5.3,4.1l5.3-4.1
	c0.1-0.1,0.2-0.1,0.3,0c0.1,0,0.1,0.1,0.1,0.2v23.7c0,0.1,0,0.2-0.1,0.2l-5.5,4.1C7.6,37.9,7.5,37.9,7.5,37.9L7.5,37.9z"/>
<path id="Fill-15" class="st0" d="M21.1,35.4c-0.1,0-0.2,0-0.2-0.1l-9.7-7C11,28.3,11,28.1,11,28V0.7c0-0.2,0.1-0.3,0.2-0.4
	c0.1-0.1,0.3-0.1,0.4,0l9.4,6.6l9.4-6.6c0.1-0.1,0.3-0.1,0.4,0c0.1,0.1,0.2,0.2,0.2,0.4V28c0,0.1-0.1,0.3-0.2,0.3l-9.7,7
	C21.2,35.4,21.2,35.4,21.1,35.4"/>
<g id="Group-19" transform="translate(10.000000, 0.000000)">
	<g id="Clip-18">
	</g>
	<defs>
		<filter id="Adobe_OpacityMaskFilter_2_" filterUnits="userSpaceOnUse" x="0.8" y="0" width="20.5" height="35.6">
			<feColorMatrix  type="matrix" values="1 0 0 0 0  0 1 0 0 0  0 0 1 0 0  0 0 0 1 0"/>
		</filter>
	</defs>
	<mask maskUnits="userSpaceOnUse" x="0.8" y="0" width="20.5" height="35.6" id="mask-6_1_">
		<g class="st7">
			<polygon id="path-5_1_" class="st2" points="21.3,0 0.8,0 0.8,35.6 21.3,35.6 			"/>
		</g>
	</mask>
	<path id="Fill-17" class="st8" d="M1.7,27.9l9.4,6.8l9.4-6.8V1.2l-9.1,6.4c-0.1,0.1-0.3,0.1-0.5,0L1.7,1.2V27.9z M11.1,35.6
		c-0.1,0-0.2,0-0.2-0.1L1,28.5c-0.1-0.1-0.2-0.2-0.2-0.3V0.4c0-0.2,0.1-0.3,0.2-0.4C1.2,0,1.4,0,1.5,0.1l9.6,6.7l9.6-6.7
		C20.8,0,20.9,0,21.1,0c0.1,0.1,0.2,0.2,0.2,0.4v27.7c0,0.1-0.1,0.3-0.2,0.3l-9.8,7.1C11.2,35.6,11.2,35.6,11.1,35.6L11.1,35.6z"/>
</g>
<path id="Fill-20" class="st4" d="M13.2,27.2l7.9,5.7l7.9-5.7V4.1l-7.7,5.4c-0.1,0.1-0.2,0.1-0.4,0l-7.7-5.4V27.2z M21.1,33.5
	c-0.1,0-0.1,0-0.2-0.1l-8.2-5.9c-0.1-0.1-0.1-0.2-0.1-0.3V3.5c0-0.1,0.1-0.2,0.2-0.3c0.1-0.1,0.2,0,0.3,0l8,5.6l8-5.6
	c0.1-0.1,0.2-0.1,0.3,0c0.1,0.1,0.2,0.2,0.2,0.3v23.8c0,0.1,0,0.2-0.1,0.3l-8.2,5.9C21.2,33.5,21.1,33.5,21.1,33.5L21.1,33.5z"/>
<path id="Fill-22" class="st4" d="M65.7,14.6l0.1-0.1c1,0.7,1.7,1.5,2.2,2.2c0.3,0.5,0.5,1,0.5,1.5c0,0.5-0.2,1-0.6,1.5
	c-0.3,0.3-0.5,0.5-0.8,0.5c-0.2,0-0.4-0.1-0.4-0.4c0-0.1-0.1-0.4-0.1-0.7c0-0.8-0.1-1.6-0.2-2.3C66.3,16,66.1,15.3,65.7,14.6
	L65.7,14.6z M66.6,7.4h3.7c0.5-0.6,1-1.2,1.5-1.7c0.8,0.6,1.5,1.2,2.2,1.8c0.1,0.1,0.1,0.2,0.1,0.2c0,0.1-0.1,0.1-0.3,0.1h-6.4
	c0.9,0.4,1.6,0.8,1.9,1c0.5,0.3,0.7,0.7,0.7,1c0,0.4-0.1,0.7-0.4,1c-0.3,0.3-0.6,0.5-0.9,0.5c-0.2,0-0.3-0.1-0.4-0.2
	c-0.1-0.1-0.1-0.3-0.2-0.6C67.9,10,67.7,9.5,67.6,9c-0.1-0.3-0.3-0.7-0.6-1.1h-0.7c-0.3,0.4-0.8,0.9-1.3,1.4
	c-0.7,0.7-1.5,1.3-2.4,1.9L62.4,11c0.9-1.3,1.7-2.6,2.3-4.1c0.4-1,0.7-1.9,0.8-2.6c1,0.2,1.9,0.4,2.7,0.6c0.4,0.1,0.5,0.2,0.5,0.4
	c0,0.2-0.3,0.4-1,0.4C67.3,6.4,66.9,7,66.6,7.4L66.6,7.4z M58.6,24.4l-0.1-0.3c0.9-0.6,1.6-1.1,2.1-1.5c1.3-1.3,2.2-2.9,2.5-4.8
	c0.2-1,0.3-2.6,0.3-4.7c0-0.7,0-1.5-0.1-2.4c0.9,0.4,1.7,0.8,2.6,1.2h3.1c0.4-0.4,0.8-0.8,1.1-1.2c0.6,0.4,1.2,0.8,1.7,1.1
	c0.2,0.1,0.3,0.3,0.3,0.4c0,0.1,0,0.2-0.1,0.2c-0.1,0.1-0.3,0.2-0.6,0.4v8.3c0,0.2,0,0.3,0,0.3c0,0.1,0.2,0.1,0.4,0.1
	c0.3,0,0.5-0.1,0.6-0.2c0.1-0.1,0.2-0.4,0.3-0.7c0.1-0.4,0.5-1.6,1-3.6l0.2,0L73.8,21v0.2l0,0c0,0.2,0.1,0.3,0.3,0.4
	c0.2,0.1,0.4,0.2,0.4,0.3c0.1,0.1,0.2,0.4,0.2,0.6c0,0.7-0.4,1.1-1.2,1.3c-0.4,0.1-1.2,0.1-2.4,0.1c-0.8,0-1.3-0.1-1.6-0.3
	c-0.2-0.1-0.3-0.3-0.4-0.5c-0.1-0.2-0.1-0.4-0.1-0.6c0-1.5,0-2.4,0-2.7v-7.2h-3.4c0,1.4-0.1,2.4-0.1,3.1c0,0.7-0.1,1.4-0.2,2.1
	c-0.4,2.1-1.3,3.7-2.8,4.9c-0.7,0.5-1.6,1-2.5,1.4C59.7,24,59.2,24.2,58.6,24.4L58.6,24.4z M57.5,12.9H56c-0.5,0-0.9,0.1-1.2,0.2
	l-0.1-0.8c0.4,0.1,0.9,0.2,1.3,0.2h3.9c0.4-0.5,0.8-0.9,1.2-1.4c0.6,0.5,1.2,1,1.7,1.5c0.1,0.1,0.1,0.1,0.1,0.2
	c0,0.1-0.1,0.1-0.2,0.1h-2.9v5.8c0.9-0.3,1.9-0.6,2.9-1l0.1,0.2c-1.2,0.9-2.4,1.7-3.5,2.3c-0.6,0.3-1.8,0.9-3.4,1.8
	c0,0.4-0.1,0.7-0.1,0.8c-0.1,0.1-0.2,0.2-0.3,0.2c-0.1,0-0.3-0.1-0.4-0.4c-0.3-0.8-0.7-1.7-1-2.8c1-0.1,2.1-0.3,3.3-0.5V12.9z
	 M58.2,7.4h2.6c0.5-0.5,0.9-1.1,1.3-1.6c0.7,0.5,1.3,1.1,1.9,1.7c0.1,0.1,0.1,0.2,0.1,0.2c0,0.1-0.1,0.2-0.3,0.2H59
	c0.8,0.5,1.4,0.8,1.7,1.1c0.5,0.4,0.7,0.8,0.7,1.2c0,0.4-0.2,0.7-0.5,0.9c-0.3,0.3-0.6,0.4-0.9,0.4c-0.4,0-0.6-0.3-0.7-0.9
	c-0.1-0.8-0.2-1.3-0.4-1.7c-0.1-0.3-0.3-0.6-0.5-1h-0.7c-0.2,0.3-0.5,0.6-0.7,0.9c-0.8,0.9-1.5,1.6-2.4,2.3c-0.2,0.1-0.5,0.4-1,0.8
	l-0.2-0.2c1-1.3,1.8-2.8,2.6-4.5c0.4-1,0.7-2,0.9-2.9c1.3,0.3,2.3,0.5,2.9,0.7c0.3,0.1,0.4,0.2,0.4,0.4c0,0.1-0.1,0.2-0.3,0.3
	c-0.1,0-0.3,0.1-0.7,0.1C59,6.3,58.6,6.9,58.2,7.4L58.2,7.4z"/>
<path id="Fill-24" class="st4" d="M88,13.6c0.3,0.9,0.7,1.7,1.1,2.3c0.5,0.8,1.1,1.5,1.8,2.2c0.9-1.3,1.7-2.7,2.4-4.5H88z
	 M89.2,13.2V8.3h-2.6c0,2,0,3.6-0.1,4.8H89.2z M91.5,13.2h1.7c0.4-0.5,0.8-0.9,1.3-1.4c0.7,0.5,1.3,0.9,2,1.4
	c0.2,0.2,0.3,0.3,0.3,0.4c0,0.1-0.1,0.2-0.3,0.3c-0.1,0.1-0.3,0.1-0.7,0.3c-0.9,2.1-2,3.8-3.2,5.2c0.5,0.3,1.1,0.6,1.6,0.9
	c0.8,0.4,1.7,0.7,2.6,0.8c0.2,0,0.7,0.1,1.4,0.2v0.2c-0.4,0.2-0.7,0.4-0.9,0.6c-0.3,0.3-0.5,0.6-0.8,1.1c-0.1,0.2-0.2,0.4-0.2,0.5
	c-0.1,0.2-0.1,0.3-0.2,0.3c-0.1,0-0.4-0.1-1-0.5c-1.4-0.7-2.6-1.7-3.8-2.9c-2,1.7-4.6,3-7.7,3.8l-0.1-0.2c1.8-0.9,3.4-1.9,4.9-3.2
	c0.6-0.6,1.2-1.1,1.8-1.8c-0.8-1.1-1.3-2.2-1.8-3.4c-0.2-0.6-0.4-1.4-0.6-2.2h-1.2c-0.1,1.1-0.2,2.1-0.3,2.8c-0.5,3.3-2,6-4.5,8
	l-0.2-0.2c0.5-0.9,0.9-1.6,1.2-2.3c0.6-1.6,1.1-3.5,1.3-5.7c0.2-1.6,0.3-3.6,0.3-6c0-1.4,0-2.7-0.1-4c1,0.5,1.9,1,2.8,1.5h2.4V6.7
	c0-0.9-0.1-1.7-0.2-2.5c1.3,0.1,2.3,0.2,3,0.3c0.3,0,0.5,0.2,0.5,0.3c0,0.1-0.1,0.2-0.2,0.3c-0.1,0.1-0.4,0.2-0.7,0.3v2.4h2.6
	c0.4-0.5,0.8-1,1.2-1.4c0.7,0.5,1.5,1.1,2.2,1.6c0.2,0.2,0.3,0.3,0.3,0.4c0,0.1-0.1,0.3-0.4,0.3c0,0-0.3,0.1-0.8,0.2
	c-1.2,1-2.3,1.8-3.2,2.4l-0.2-0.2c0.5-0.9,0.8-1.9,1.2-2.9h-2.8V13.2z M78.5,4.8l0.1-0.2c1.7,0.4,2.7,0.7,3.3,1
	c0.4,0.2,0.7,0.5,0.8,0.8c0.1,0.2,0.2,0.5,0.2,0.8c0,0.5-0.2,1-0.5,1.3c-0.2,0.2-0.5,0.4-0.8,0.4c-0.2,0-0.4-0.1-0.5-0.2
	C81,8.6,80.9,8.4,80.7,8c-0.3-0.6-0.6-1.2-0.9-1.6C79.5,5.9,79.1,5.4,78.5,4.8L78.5,4.8z M77.2,17.8l0.1-0.3
	c0.8,0.1,1.3,0.2,1.6,0.2c0.2,0,0.4-0.1,0.5-0.2c0.3-0.3,0.8-1.2,1.5-2.8c1.1-2.3,1.9-4.3,2.6-5.9l0.3,0.1l-2.6,8.7
	c-0.2,0.6-0.3,1.1-0.3,1.4c0,0.2,0.1,0.5,0.2,1c0.3,0.8,0.5,1.5,0.5,2c0,0.7-0.2,1.3-0.7,1.7c-0.4,0.4-0.8,0.6-1.3,0.6
	c-0.5,0-0.8-0.3-0.8-0.8c0-0.2,0-0.6,0.1-1.1c0.2-1.1,0.2-1.9,0.2-2.6c0-0.7-0.2-1.2-0.5-1.4C78.3,18.1,77.9,17.9,77.2,17.8
	L77.2,17.8z M77.1,9.7l0.1-0.2c1.4,0.3,2.3,0.6,2.9,0.9c0.4,0.2,0.7,0.4,0.8,0.7c0.2,0.2,0.2,0.5,0.2,0.8c0,0.6-0.2,1.1-0.6,1.5
	c-0.2,0.2-0.5,0.4-0.8,0.4c-0.2,0-0.3-0.1-0.4-0.2c-0.1-0.1-0.2-0.3-0.3-0.6c-0.2-0.7-0.5-1.2-0.7-1.6C78,10.7,77.6,10.2,77.1,9.7
	L77.1,9.7z"/>
<path id="Fill-26" class="st4" d="M109.4,10.9c0.2,0.9,0.5,1.8,0.8,2.6c0.8,1.9,2,3.5,3.3,4.7c1.7,1.4,3.6,2.4,5.7,2.9l0,0.3
	c-1,0.5-1.8,1.2-2.1,2.3c-0.1,0.3-0.2,0.4-0.3,0.4c-0.2,0-0.7-0.3-1.4-0.8c-1.4-1-2.5-2.2-3.4-3.7c-1.1-1.7-1.9-3.7-2.4-5.7
	c-0.1-0.7-0.3-1.4-0.4-2.2c-0.4,3.6-1.6,6.5-3.7,8.5c-1.4,1.4-2.9,2.5-4.7,3.3c-0.7,0.3-1.6,0.7-2.6,1l-0.1-0.3c1.6-1,2.9-2,3.9-2.9
	c1.9-1.8,3.2-3.9,3.9-6.4c0.4-1.2,0.6-2.5,0.7-3.9h-5.8c-0.8,0-1.4,0-2,0.1l-0.1-0.8c0.6,0.1,1.3,0.2,2.2,0.2h5.8
	c0.1-1,0.1-2.2,0.1-3.5c0-0.8,0-1.6-0.1-2.3c1.7,0.1,2.8,0.2,3.3,0.3c0.3,0.1,0.5,0.2,0.5,0.3c0,0.1-0.1,0.2-0.3,0.4
	c-0.1,0.1-0.3,0.2-0.6,0.3c-0.1,2-0.1,3.5-0.2,4.6h4.9l0.9-1.1l0.8-1c0.9,0.7,1.9,1.4,2.8,2.2c0.1,0.1,0.1,0.2,0.1,0.3
	c0,0.1-0.1,0.2-0.2,0.2H109.4z"/>
<path id="Fill-28" class="st4" d="M127.8,4.5l0.2-0.2c2.4,0.8,3.6,1.7,3.6,2.6c0,0.4-0.2,0.8-0.5,1.3c-0.3,0.4-0.7,0.6-1.1,0.6
	c-0.2,0-0.4-0.1-0.5-0.4c0-0.1-0.1-0.4-0.2-0.8c-0.2-0.8-0.4-1.5-0.7-1.9C128.4,5.4,128.1,5,127.8,4.5L127.8,4.5z M123.3,4.9
	l0.1-0.2c0.9,0.3,1.6,0.6,2.2,0.9c1,0.5,1.5,1.1,1.5,1.7c0,0.4-0.2,0.8-0.5,1.2C126.3,8.8,126,9,125.6,9c-0.2,0-0.4-0.1-0.5-0.3
	c-0.1-0.1-0.2-0.3-0.2-0.6c-0.3-0.9-0.5-1.5-0.7-1.9C123.9,5.8,123.7,5.4,123.3,4.9L123.3,4.9z M131.3,16.8h4.6l0.8-1l0.9-1
	c0.9,0.7,1.7,1.3,2.5,2c0.1,0.1,0.1,0.2,0.1,0.2c0,0.1-0.1,0.2-0.3,0.2h-8.7v2.5l0,1.5l0,1.3c0,0.5-0.1,0.9-0.2,1.1
	c-0.4,0.6-1.1,0.9-2.2,1c-0.3,0-0.5,0.1-0.7,0.1c-0.2,0-0.3,0-0.3-0.1c0,0-0.1-0.1-0.1-0.3c-0.1-0.5-0.3-0.8-0.6-1.1
	c-0.2-0.2-0.7-0.4-1.4-0.6c-0.1,0-0.7-0.2-1.7-0.4l0-0.3c2,0.1,3.4,0.2,4.3,0.2h0.1c0.2,0,0.3-0.1,0.3-0.3v-4.5h-6.9
	c-0.7,0-1.3,0-1.7,0.1l-0.1-0.8c0.5,0.1,1.2,0.2,1.9,0.2h7v-0.4c0-0.9,0-1.6-0.1-2.2c0.8,0.1,1.5,0.2,2.3,0.3c0.7-0.6,1.3-1.4,2-2.4
	h-7.4c-0.6,0-1.1,0-1.6,0.1l-0.1-0.8c0.5,0.1,1.1,0.1,1.7,0.2h7.5c0.4-0.4,0.8-0.8,1.2-1.2c0.7,0.5,1.3,0.9,1.7,1.2
	c0.3-0.7,0.5-1.4,0.6-2.2H123v0.2c0,1-0.1,1.8-0.3,2.4c-0.2,0.5-0.4,0.8-0.7,1c-0.3,0.2-0.5,0.3-0.8,0.3s-0.5-0.1-0.8-0.4
	c-0.3-0.3-0.4-0.8-0.4-1.3c0-0.3,0.1-0.6,0.3-0.7c0,0,0.2-0.2,0.6-0.3c0.5-0.3,0.8-0.6,1.1-1.1c0.2-0.3,0.3-0.5,0.4-0.8
	c0.1-0.3,0.1-0.7,0.2-1.2h0.3c0.1,0.6,0.2,1.1,0.2,1.5h9.5c1-1.6,1.6-3.2,2-4.6c0.8,0.2,1.7,0.5,2.9,0.9c0.4,0.1,0.6,0.3,0.6,0.4
	c0,0.2-0.3,0.3-0.8,0.3c0,0-0.1,0-0.3,0c-1.2,1.2-2.4,2.1-3.5,2.9h3.1c0.4-0.5,0.9-0.9,1.4-1.3c0.8,0.6,1.5,1.2,2.3,1.7
	c0.2,0.2,0.3,0.3,0.3,0.4c0,0.2-0.1,0.3-0.4,0.4c-0.1,0-0.4,0-0.9,0.1c-0.4,0.3-0.7,0.5-0.8,0.5l-1.5,0.9c-0.1,0.1-0.2,0.1-0.4,0.3
	l0.3,0.2c0.2,0.2,0.3,0.3,0.3,0.4c0,0.2-0.3,0.3-0.8,0.3c-0.1,0-0.2,0-0.3,0c-1.4,0.7-2.7,1.3-3.9,1.8c0.2,0.1,0.2,0.1,0.2,0.3
	c0,0.1-0.1,0.2-0.3,0.3c-0.1,0-0.2,0.1-0.5,0.2V16.8z"/>
<path id="Fill-30" class="st4" d="M153.5,12.5l0.2-0.1c0.9,0.6,1.5,1.2,2,1.7c0.7,0.8,1,1.4,1,2c0,0.3-0.1,0.7-0.3,1.1
	c-0.2,0.4-0.5,0.7-0.9,0.8c-0.1,0.1-0.3,0.1-0.4,0.1c-0.3,0-0.5-0.3-0.5-0.8C154.5,15.1,154.1,13.5,153.5,12.5L153.5,12.5z
	 M157.9,10.3v-3c0-1.1,0-1.9-0.1-2.6c1.4,0.1,2.3,0.2,2.8,0.3c0.3,0.1,0.5,0.2,0.5,0.3c0,0.2-0.3,0.4-0.9,0.6v4.4h0.1
	c0.3-0.5,0.7-0.9,1.1-1.4c0.5,0.5,1,1,1.4,1.5c0.1,0.1,0.1,0.1,0.1,0.2c0,0.1-0.1,0.1-0.2,0.1h-2.5v5.7c0,1.7,0,3.7,0,5.8
	c0,0.5-0.1,0.8-0.2,1.1c-0.3,0.5-1,0.9-2,1.1c-0.3,0-0.5,0.1-0.7,0.1c-0.1,0-0.2,0-0.2-0.1c0,0,0-0.1-0.1-0.3c0-0.4-0.2-0.8-0.5-1.1
	c-0.2-0.2-0.6-0.4-1.1-0.6c-0.2-0.1-0.7-0.2-1.4-0.4v-0.3c1,0.1,2.2,0.2,3.5,0.2c0.1,0,0.2,0,0.2,0c0.1,0,0.2-0.1,0.2-0.3V10.8h-3.2
	c-0.7,0-1.3,0-1.7,0.1l-0.1-0.8c0.4,0.1,1.1,0.2,1.9,0.2H157.9z M145,6.1v11.7c0.7,0.1,1.1,0.1,1.3,0.1c0.3,0,0.4-0.1,0.5-0.2
	c0.2-0.3,0.2-0.7,0.2-1.4c0-1-0.1-1.8-0.4-2.5c-0.2-0.5-0.5-1.1-1-1.7c0.2-0.8,0.5-1.8,0.8-3c0.3-1.2,0.5-2.2,0.6-2.9H145z
	 M151.1,11.3c0.1,0,0.3,0,0.5,0.1c0.6,0.1,1,0.1,1.2,0.2c0.2,0.1,0.2,0.1,0.2,0.2c0,0.2-0.2,0.3-0.7,0.5V15v2.8v1.9
	c0,1.1,0,2.4,0,4.2c0,0.2-0.1,0.4-0.3,0.5c-0.3,0.1-0.7,0.1-1.3,0.1c-0.3,0-0.6,0-0.7-0.1c-0.1-0.1-0.1-0.2-0.1-0.4
	c0.1-1.2,0.1-2.6,0.1-4c0-0.7,0-2.7,0-5.9l0-0.8v-0.8c-0.6,0.7-1.2,1.3-1.9,2c0.5,0.9,0.7,1.9,0.7,2.9c0,1-0.3,1.8-0.8,2.3
	c-0.5,0.5-1,0.7-1.7,0.7c-0.1,0-0.2,0-0.2-0.1c0,0,0-0.1-0.1-0.3c0-0.4-0.1-0.8-0.2-1.1c-0.1-0.3-0.2-0.5-0.5-0.6
	c-0.1-0.1-0.3-0.1-0.5-0.2v1.4l0,1.5c0,1.2,0,2.2,0,2.9c0,0.3-0.1,0.5-0.3,0.5c-0.2,0.1-0.7,0.1-1.4,0.1c-0.3,0-0.5,0-0.6-0.1
	c-0.1-0.1-0.1-0.2-0.1-0.4c0.1-4,0.1-7.4,0.1-10.5c0-2.8,0-5.6-0.1-8.3l0-0.8c0.9,0.4,1.8,0.8,2.6,1.3h1.7c0.4-0.4,0.8-0.8,1.2-1.2
	c0.6,0.5,1.3,1,1.8,1.5c0.2,0.2,0.3,0.3,0.3,0.4c0,0.1-0.1,0.2-0.3,0.3c-0.1,0-0.3,0.1-0.6,0.2c-0.4,0.6-0.9,1.5-1.6,2.6
	c-0.7,1-1.3,1.9-1.8,2.5c0.6,0.5,1.1,0.9,1.5,1.4c0.2,0.3,0.4,0.5,0.5,0.8c0.8-1.4,1.5-2.9,2.2-4.5c0.8-2,1.3-3.7,1.5-5.1
	c0.8,0.2,1.7,0.5,2.8,0.9c0.3,0.1,0.5,0.2,0.5,0.4c0,0.1-0.1,0.3-0.3,0.3c-0.1,0-0.3,0.1-0.7,0.1c-0.5,1.2-1,2.2-1.6,3.1
	C152.1,9.9,151.6,10.6,151.1,11.3L151.1,11.3z"/>
<g id="Clip-33">
</g>
<defs>
	<filter id="Adobe_OpacityMaskFilter_3_" filterUnits="userSpaceOnUse" x="163.6" y="4" width="20.4" height="20.6">
		<feColorMatrix  type="matrix" values="1 0 0 0 0  0 1 0 0 0  0 0 1 0 0  0 0 0 1 0"/>
	</filter>
</defs>
<mask maskUnits="userSpaceOnUse" x="163.6" y="4" width="20.4" height="20.6" id="mask-8_1_">
	<g class="st9">
		<polygon id="path-7_1_" class="st2" points="0,40 353.1,40 353.1,0 0,0 		"/>
	</g>
</mask>
<path id="Fill-32" class="st10" d="M176.7,15.3h2.9v-2.3h-2.9V15.3z M171.8,15.3h2.8v-2.3h-2.8V15.3z M180.4,8.1V5.8h-12.1
	c0,0.5,0,1.1,0,1.6l0,0.7H180.4z M179.6,15.7h-2.9v1.8h4.1c0.4-0.4,0.8-0.8,1.2-1.2c0.6,0.4,1.2,0.8,1.8,1.3
	c0.1,0.1,0.2,0.2,0.2,0.3c0,0.1-0.1,0.2-0.2,0.3c-0.1,0.1-0.2,0.2-0.5,0.3v1.9c0,1.1,0,1.8,0,2.3c0,0.5-0.1,0.8-0.3,1
	c-0.4,0.4-1,0.7-2.1,0.8c-0.2,0-0.3,0-0.4,0c-0.1,0-0.2-0.1-0.2-0.2c0-0.4-0.2-0.7-0.3-0.9c-0.2-0.2-0.4-0.4-0.6-0.5
	c-0.4-0.2-1.1-0.4-2-0.6l0-0.3c1.3,0.1,2.4,0.1,3.4,0.1c0.2,0,0.3-0.1,0.3-0.2V18h-4.3v1.8c0.6,0,1.2-0.1,1.6-0.1
	c-0.2-0.5-0.4-0.9-0.7-1.3l0.2-0.2c0.9,0.4,1.6,0.7,1.9,1c0.5,0.4,0.8,0.8,0.8,1.2c0,0.3-0.1,0.7-0.4,0.9c-0.3,0.3-0.5,0.4-0.8,0.4
	c-0.1,0-0.2,0-0.3-0.1c-0.1-0.1-0.1-0.2-0.2-0.3c0-0.1-0.1-0.3-0.1-0.6c0-0.2-0.1-0.4-0.2-0.7c-1.2,0.4-3.2,1-6,1.7
	c-0.1,0.6-0.3,0.9-0.5,0.9c-0.1,0-0.2-0.1-0.3-0.3c-0.2-0.7-0.4-1.5-0.6-2.4c0.5,0,1,0.1,1.4,0.1c0.4,0,1.1,0,2-0.1v-2h-4.1v3.8v1.3
	V24c0,0.2,0,0.3-0.1,0.3c-0.2,0.2-0.7,0.3-1.6,0.3c-0.3,0-0.4,0-0.5-0.1c-0.1-0.1-0.1-0.2-0.1-0.4c0.1-2.2,0.1-4,0.1-5.5
	c0-0.8,0-1.6-0.1-2.3c0.8,0.3,1.7,0.7,2.6,1.1h3.8v-1.8h-2.8v0.5c0,0.2-0.1,0.3-0.3,0.3c-0.2,0.1-0.7,0.1-1.3,0.1
	c-0.3,0-0.4,0-0.5-0.1c-0.1,0-0.1-0.1-0.1-0.3c0-1.5,0.1-2.7,0.1-3.3c0-0.4,0-0.9-0.1-1.4c0.8,0.3,1.5,0.6,2.3,1h2.7v-1.5l-1,0
	c-1.1,0-1.9,0.1-2.3,0.1c-0.6,0-1.3,0-2.1-0.1l0-0.3c1-0.1,2.1-0.2,3.4-0.4c1.9-0.3,3.6-0.7,5.1-1.1c0.4-0.1,0.8-0.3,1-0.4
	c0.4,0.2,0.8,0.4,1.2,0.7c0.7,0.4,1.1,0.6,1.2,0.7c0.1,0.1,0.2,0.2,0.2,0.3c0,0.1,0,0.1-0.1,0.1c0,0-0.1,0.1-0.2,0.1
	c-0.2,0-0.5-0.1-1-0.2c-1.3,0.2-2.4,0.4-3.3,0.4v1.6h2.8c0.4-0.4,0.7-0.8,1.1-1.1c0.6,0.4,1.1,0.7,1.7,1.1c0.1,0.1,0.2,0.2,0.2,0.3
	c0,0.1-0.1,0.2-0.2,0.3c0,0-0.2,0.1-0.4,0.3c0,0.5,0,1.4,0.1,2.6c0,0.2-0.1,0.3-0.3,0.4c-0.3,0.1-0.7,0.2-1.3,0.2
	c-0.3,0-0.4,0-0.5-0.1c-0.1,0-0.1-0.1-0.1-0.3V15.7z M180.4,8.5h-12.1c0,2-0.1,3.2-0.1,3.5c0,0.3,0,0.8-0.1,1.4
	c-0.3,3.2-1,5.9-2.1,7.8c-0.6,1.1-1.4,2.1-2.2,3l-0.2-0.1c0.5-1,0.8-1.9,1-2.7c0.5-1.7,0.9-3.7,1-6c0.1-1.6,0.2-3.9,0.2-6.9
	c0-1.8,0-3.4-0.1-4.5c1,0.4,1.9,0.8,2.8,1.3h11.7c0.4-0.4,0.8-0.8,1.2-1.2c0.6,0.4,1.2,0.8,1.8,1.2c0.2,0.1,0.2,0.2,0.2,0.3
	c0,0.1-0.1,0.2-0.2,0.3c0,0-0.2,0.1-0.5,0.3v0.5c0,0.4,0,1,0.1,1.9c0,0.2,0,0.3-0.1,0.4c-0.2,0.2-0.7,0.2-1.6,0.2
	c-0.2,0-0.4,0-0.5-0.1c-0.1,0-0.1-0.1-0.2-0.3V8.5z"/>
<defs>
	<filter id="Adobe_OpacityMaskFilter_4_" filterUnits="userSpaceOnUse" x="187" y="4.2" width="20.9" height="20.2">
		<feColorMatrix  type="matrix" values="1 0 0 0 0  0 1 0 0 0  0 0 1 0 0  0 0 0 1 0"/>
	</filter>
</defs>
<mask maskUnits="userSpaceOnUse" x="187" y="4.2" width="20.9" height="20.2" id="mask-8_2_">
	<g class="st11">
		<polygon id="path-7_2_" class="st2" points="0,40 353.1,40 353.1,0 0,0 		"/>
	</g>
</mask>
<path id="Fill-34" class="st12" d="M199.5,17.5h1.9V12h-1.9V17.5z M192.1,16.7l0.1-0.1c0.7,0.2,1.2,0.4,1.6,0.6
	c0.4,0.2,0.7,0.5,0.7,0.9c0,0.3-0.1,0.6-0.2,0.9c-0.1,0.1-0.2,0.2-0.3,0.2c-0.1,0-0.2-0.1-0.3-0.4C193.2,17.9,192.7,17.2,192.1,16.7
	L192.1,16.7z M190.8,17.1L191,17c0.7,0.4,1.3,0.8,1.7,1.2c0.4,0.4,0.5,0.7,0.5,1c0,0.3-0.1,0.6-0.3,0.8c-0.2,0.2-0.3,0.4-0.5,0.4
	c-0.2,0-0.2-0.1-0.3-0.4C191.9,19,191.5,18,190.8,17.1L190.8,17.1z M190.3,15.3h1.5v-3h-1.5V15.3z M190.3,11.9h1.5V9.2h-1.5V11.9z
	 M190.3,8.7h1.5V6h-1.5V8.7z M189.5,17.4l0.1-0.1c0.5,0.4,0.9,0.9,1.3,1.5c0.3,0.5,0.5,0.9,0.5,1.2c0,0.3-0.1,0.6-0.4,0.9
	c-0.2,0.2-0.4,0.3-0.7,0.3c-0.1,0-0.2-0.1-0.3-0.2c0-0.1-0.1-0.2-0.1-0.4c0-0.8,0-1.4-0.1-2C189.8,18.3,189.7,17.9,189.5,17.4
	L189.5,17.4z M193.9,8.7h0.4c0.3-0.4,0.7-0.8,1.1-1.2c0.5,0.4,1,0.8,1.5,1.3C197,8.9,197,9,197,9c0,0.1-0.1,0.1-0.3,0.1h-2.8v2.7
	h0.4l0.5-0.6l0.5-0.6c0.4,0.4,0.7,0.6,0.9,0.8c0.6-1,1-2.1,1.5-3.3c0.5-1.6,0.7-2.9,0.8-3.9c1.2,0.2,2.2,0.4,3,0.6
	c0.3,0.1,0.5,0.2,0.5,0.3c0,0.2-0.4,0.4-1.1,0.5c-0.4,0.9-0.9,1.8-1.4,2.5h5.2c0.4-0.5,0.8-0.9,1.2-1.3c0.6,0.5,1.2,0.9,1.8,1.4
	c0.1,0.1,0.2,0.2,0.2,0.3c0,0.2-0.3,0.4-0.8,0.7c0,4.2-0.2,7.4-0.4,9.6c-0.3,2.1-0.6,3.5-1.1,4.2c-0.3,0.4-0.6,0.8-1,1
	c-0.4,0.2-0.8,0.3-1.4,0.3c-0.2,0-0.4,0-0.4,0c-0.1,0-0.2,0-0.3-0.1c0,0-0.1-0.1-0.1-0.3c-0.1-0.6-0.3-1-0.6-1.2
	c-0.2-0.2-0.7-0.4-1.3-0.5c0,0-0.4-0.1-1.1-0.3l0-0.3c0.4,0,1,0.1,1.9,0.2c0.7,0.1,1.3,0.1,1.8,0.1c0.3,0,0.5-0.1,0.7-0.2
	c0.4-0.3,0.7-1.8,1-4.5c0.2-1.7,0.2-4.2,0.2-7.6v-1h-5.6c-0.6,0.8-1.1,1.4-1.5,1.8c0.5,0.3,1.1,0.6,1.8,1h1.7l0.5-0.6l0.5-0.6
	c0.5,0.4,1,0.8,1.5,1.2c0.2,0.2,0.3,0.3,0.3,0.3c0,0.1-0.1,0.2-0.2,0.3c-0.1,0-0.2,0.1-0.5,0.3c0,3.2,0,5.3,0.1,6.1
	c0,0.1,0,0.2-0.1,0.3c-0.1,0.1-0.6,0.2-1.3,0.2c-0.3,0-0.5,0-0.6-0.1c-0.1,0-0.1-0.1-0.1-0.3v-0.8h-1.9v1.2c0,0.2,0,0.3-0.1,0.3
	c-0.1,0.1-0.5,0.2-1.1,0.2c-0.4,0-0.7,0-0.7-0.1c0,0-0.1-0.1-0.1-0.3c0-1.5,0.1-3,0.1-4.5c0-1.6,0-3-0.1-4c-0.3,0.3-0.7,0.6-1.1,1
	c0.1,0.1,0.2,0.2,0.3,0.3c0.1,0.1,0.1,0.1,0.1,0.2c0,0.1-0.1,0.1-0.3,0.1h-2.7v3h0.8c0.3-0.4,0.6-0.8,1-1.1c0.5,0.4,1,0.8,1.5,1.2
	c0.1,0.1,0.2,0.2,0.2,0.3c0,0.1-0.1,0.2-0.2,0.3c-0.1,0-0.2,0.1-0.5,0.3c-0.1,1.9-0.2,3.3-0.4,4.3c-0.2,1.1-0.4,1.9-0.7,2.5
	c-0.3,0.5-0.6,0.8-1.1,1c-0.5,0.2-0.9,0.3-1.4,0.3c-0.1,0-0.3,0-0.3-0.1c0,0-0.1-0.1-0.1-0.3c-0.1-0.5-0.2-0.9-0.6-1.2
	c-0.3-0.3-0.9-0.5-1.8-0.8l0-0.3c1.6,0.2,2.5,0.2,2.8,0.2c0.3,0,0.5-0.1,0.7-0.2c0.2-0.3,0.4-1.1,0.6-2.5c0.1-1,0.2-2.2,0.2-3.5
	h-4.2v0.5c0,0.1,0,0.2-0.1,0.3c-0.1,0.1-0.6,0.2-1.4,0.2c-0.3,0-0.5,0-0.6-0.1c-0.1,0-0.1-0.2-0.1-0.3c0.1-2.1,0.1-4.3,0.1-6.6
	c0-2.3,0-4.1-0.1-5.5c0.8,0.4,1.5,0.8,2.3,1.3h3.7c0.4-0.5,0.8-0.9,1.2-1.4c0.6,0.5,1.2,1,1.8,1.5c0.1,0.1,0.1,0.1,0.1,0.2
	c0,0.1-0.1,0.1-0.3,0.1h-3.2V8.7z M188.6,17.4l0.2,0c0.3,0.9,0.4,1.7,0.4,2.3c0,0.8-0.1,1.5-0.3,2c-0.1,0.3-0.3,0.5-0.5,0.7
	c-0.2,0.1-0.3,0.2-0.5,0.2c-0.2,0-0.4-0.2-0.6-0.5c-0.1-0.3-0.2-0.6-0.2-1c0-0.2,0.1-0.4,0.2-0.6c0-0.1,0.1-0.2,0.3-0.3
	c0.3-0.3,0.5-0.5,0.6-0.6C188.3,19.1,188.5,18.4,188.6,17.4L188.6,17.4z"/>
<defs>
	<filter id="Adobe_OpacityMaskFilter_5_" filterUnits="userSpaceOnUse" x="209.7" y="4.3" width="20.9" height="20.2">
		<feColorMatrix  type="matrix" values="1 0 0 0 0  0 1 0 0 0  0 0 1 0 0  0 0 0 1 0"/>
	</filter>
</defs>
<mask maskUnits="userSpaceOnUse" x="209.7" y="4.3" width="20.9" height="20.2" id="mask-8_3_">
	<g class="st13">
		<polygon id="path-7_3_" class="st2" points="0,40 353.1,40 353.1,0 0,0 		"/>
	</g>
</mask>
<path id="Fill-35" class="st14" d="M220.3,11.2h5.1V8.8h-5.1V11.2z M220.3,8.3h5.1V6h-5.1V8.3z M218,4.3c0.9,0.4,1.7,0.8,2.5,1.2
	h4.6c0.4-0.4,0.8-0.8,1.2-1.2c0.6,0.4,1.2,0.8,1.7,1.2c0.2,0.1,0.3,0.3,0.3,0.4c0,0.1-0.1,0.2-0.2,0.3c-0.1,0.1-0.2,0.1-0.5,0.3v1.2
	c0,0.9,0,2.3,0.1,4.2c0,0.2-0.1,0.4-0.2,0.4c-0.2,0.1-0.7,0.1-1.4,0.1c-0.3,0-0.5,0-0.6-0.1c-0.1,0-0.1-0.1-0.1-0.3v-0.5h-5.1v0.5
	c0,0.2,0,0.3-0.1,0.3c-0.1,0.1-0.6,0.2-1.4,0.2c-0.4,0-0.6,0-0.8-0.1c-0.1-0.1-0.1-0.2-0.1-0.4c0-1.2,0.1-2.6,0.1-4.1
	C218.1,6.4,218.1,5.1,218,4.3L218,4.3z M223.2,16.5c-0.7,1.1-1.4,2-2.3,2.8c-1.1,1-2.4,1.8-3.8,2.4c-0.5,0.2-1.2,0.5-2,0.7l-0.1-0.3
	c2.8-1.5,4.7-3.4,5.8-5.6h-1c-0.5,0.5-1.1,1-1.7,1.4c-1.2,0.9-2.4,1.5-3.6,2l-0.1-0.2c2.1-1.6,3.6-3.5,4.7-5.6h-1.6
	c-0.5,0-1,0-1.4,0.1l-0.1-0.8c0.4,0.1,0.9,0.2,1.5,0.2h9.4c0.5-0.5,1-1.1,1.5-1.6c0.7,0.6,1.4,1.1,2.2,1.7c0.1,0.1,0.1,0.2,0.1,0.2
	c0,0.1-0.1,0.1-0.3,0.1h-8.6c-0.5,0.8-1,1.4-1.5,1.9h6.8c0.4-0.4,0.8-0.8,1.1-1.2c0.6,0.4,1.2,0.8,1.7,1.2c0.2,0.1,0.2,0.2,0.2,0.3
	c0,0.2-0.2,0.4-0.7,0.6c-0.2,2.1-0.4,3.7-0.6,4.9c-0.2,0.9-0.5,1.6-0.9,2c-0.4,0.4-1,0.6-1.8,0.8c-0.3,0-0.5,0.1-0.6,0.1
	c-0.1,0-0.2,0-0.3-0.1c0,0-0.1-0.1-0.1-0.3c0-0.5-0.2-0.9-0.6-1.2c-0.3-0.2-0.9-0.4-1.8-0.8l0-0.3c1.3,0.1,2.2,0.2,2.7,0.2
	c0.4,0,0.7-0.1,0.8-0.2c0.1-0.1,0.2-0.3,0.3-0.7c0.3-1.2,0.5-2.9,0.7-4.9h-0.4c-0.3,0.6-0.6,1.1-0.7,1.4c-1.2,2-2.8,3.5-4.9,4.7
	c-1.2,0.7-2.7,1.3-4.4,1.8l-0.1-0.2c1.4-0.7,2.5-1.4,3.4-2.1c1.8-1.4,3.3-3.2,4.4-5.5H223.2z M214.5,10.6h0.4c0.4-0.5,0.7-1,1.1-1.4
	c0.6,0.5,1.1,1.1,1.6,1.6c0.1,0.1,0.1,0.1,0.1,0.2c0,0.1-0.1,0.1-0.2,0.1h-3v5.5c0.7-0.3,1.6-0.6,2.5-1l0.1,0.2
	c-1,0.9-1.9,1.7-2.8,2.3c-0.2,0.1-1.2,0.8-2.9,2c0,0.4-0.1,0.6-0.1,0.7c-0.1,0.2-0.1,0.3-0.3,0.3c-0.1,0-0.3-0.2-0.4-0.5
	c-0.4-1.1-0.7-2-1-2.7c0.6-0.1,1.4-0.3,2.4-0.6v-6.2h-1.1c-0.5,0-1,0.1-1.3,0.1l-0.1-0.8c0.3,0.1,0.8,0.2,1.4,0.2h1.1V6.9
	c0-0.9,0-1.6-0.1-2.3c1.3,0.1,2.3,0.2,2.9,0.3c0.3,0.1,0.5,0.2,0.5,0.3c0,0.1-0.1,0.2-0.2,0.3c-0.1,0.1-0.3,0.1-0.7,0.2V10.6z"/>
<defs>
	<filter id="Adobe_OpacityMaskFilter_6_" filterUnits="userSpaceOnUse" x="233.3" y="4.4" width="18.3" height="20.2">
		<feColorMatrix  type="matrix" values="1 0 0 0 0  0 1 0 0 0  0 0 1 0 0  0 0 0 1 0"/>
	</filter>
</defs>
<mask maskUnits="userSpaceOnUse" x="233.3" y="4.4" width="18.3" height="20.2" id="mask-8_4_">
	<g class="st15">
		<polygon id="path-7_4_" class="st2" points="0,40 353.1,40 353.1,0 0,0 		"/>
	</g>
</mask>
<path id="Fill-36" class="st16" d="M248.4,16V9.8h-5.1v0.6v0.6v2.4l0,2.4H248.4z M240.7,16l0-2.1l0-2.2v-0.9l0-0.9H236V16H240.7z
	 M248.4,16.5h-5.1v0.3c0,3,0,5.4,0.1,7.1c0,0.2,0,0.3-0.1,0.4c-0.1,0.2-0.7,0.3-1.6,0.3c-0.4,0-0.7,0-0.8-0.1
	c-0.2-0.1-0.3-0.2-0.3-0.5c0.1-2.1,0.1-4.4,0.1-7v-0.6H236v1.2c0,0.2-0.1,0.4-0.2,0.5c-0.2,0.1-0.7,0.2-1.4,0.2
	c-0.4,0-0.7,0-0.8-0.1c-0.2,0-0.2-0.2-0.2-0.5c0.1-2.6,0.1-4.5,0.1-5.8c0-1.5,0-2.9-0.1-4.1c0.8,0.3,1.3,0.6,1.6,0.7
	c0.2,0.1,0.7,0.4,1.5,0.8h4.3v-1c0-1,0-1.8,0-2.4c0-0.5-0.1-1-0.1-1.6c1.6,0.1,2.6,0.2,3.2,0.3c0.3,0.1,0.5,0.2,0.5,0.4
	c0,0.1-0.1,0.2-0.3,0.3c-0.1,0.1-0.3,0.1-0.7,0.2v3.8h4.8c0.5-0.5,0.9-1,1.4-1.5c0.7,0.4,1.3,0.9,1.8,1.3c0.2,0.2,0.3,0.3,0.3,0.5
	c0,0.1-0.1,0.2-0.2,0.4c-0.1,0.1-0.3,0.2-0.5,0.3c0,2.6,0,5,0.1,7.2c0,0.3-0.1,0.4-0.2,0.5c-0.2,0.1-0.7,0.2-1.5,0.2
	c-0.3,0-0.6,0-0.7-0.1c-0.1,0-0.2-0.2-0.2-0.4V16.5z"/>
<defs>
	<filter id="Adobe_OpacityMaskFilter_7_" filterUnits="userSpaceOnUse" x="254.3" y="3.7" width="20.4" height="20.4">
		<feColorMatrix  type="matrix" values="1 0 0 0 0  0 1 0 0 0  0 0 1 0 0  0 0 0 1 0"/>
	</filter>
</defs>
<mask maskUnits="userSpaceOnUse" x="254.3" y="3.7" width="20.4" height="20.4" id="mask-8_8_">
	<g class="st17">
		<polygon id="path-7_8_" class="st2" points="-55.7,39.3 297.5,39.3 297.5,-0.7 -55.7,-0.7 		"/>
	</g>
</mask>
<path id="Fill-40" class="st18" d="M262.1,3.9l0.2-0.2c2.4,0.8,3.6,1.7,3.6,2.6c0,0.4-0.2,0.8-0.5,1.3c-0.3,0.4-0.7,0.6-1.1,0.6
	c-0.2,0-0.4-0.1-0.5-0.4c0-0.1-0.1-0.4-0.2-0.8c-0.2-0.8-0.4-1.5-0.7-1.9C262.7,4.7,262.4,4.3,262.1,3.9L262.1,3.9z M257.6,4.2
	l0.1-0.2c0.9,0.3,1.6,0.6,2.2,0.9c1,0.5,1.5,1.1,1.5,1.7c0,0.4-0.2,0.8-0.5,1.2c-0.3,0.3-0.6,0.5-0.9,0.5c-0.2,0-0.4-0.1-0.5-0.3
	c-0.1-0.1-0.2-0.3-0.2-0.6c-0.3-0.9-0.5-1.5-0.7-1.9C258.2,5.1,257.9,4.7,257.6,4.2L257.6,4.2z M265.6,16.1h4.6l0.8-1l0.9-1
	c0.9,0.7,1.7,1.3,2.5,2c0.1,0.1,0.1,0.2,0.1,0.2c0,0.1-0.1,0.2-0.3,0.2h-8.7V19l0,1.5l0,1.3c0,0.5-0.1,0.9-0.2,1.1
	c-0.4,0.6-1.1,0.9-2.2,1c-0.3,0-0.5,0.1-0.7,0.1c-0.2,0-0.3,0-0.3-0.1c0,0-0.1-0.1-0.1-0.3c-0.1-0.5-0.3-0.8-0.6-1.1
	c-0.2-0.2-0.7-0.4-1.4-0.6c-0.1,0-0.7-0.2-1.7-0.4l0-0.3c2,0.1,3.4,0.2,4.3,0.2h0.1c0.2,0,0.3-0.1,0.3-0.3v-4.5h-6.9
	c-0.7,0-1.3,0-1.8,0.1l-0.1-0.8c0.5,0.1,1.2,0.2,1.9,0.2h7v-0.4c0-0.9,0-1.6-0.1-2.2c0.8,0.1,1.5,0.2,2.3,0.3c0.7-0.6,1.3-1.4,2-2.4
	h-7.4c-0.6,0-1.1,0-1.6,0.1l-0.1-0.8c0.5,0.1,1.1,0.1,1.7,0.2h7.5c0.4-0.4,0.8-0.8,1.2-1.2c0.7,0.5,1.3,0.9,1.7,1.2
	c0.3-0.7,0.5-1.4,0.6-2.2h-13.6v0.2c0,1-0.1,1.8-0.3,2.4c-0.2,0.5-0.4,0.8-0.7,1c-0.3,0.2-0.5,0.3-0.8,0.3c-0.3,0-0.5-0.1-0.8-0.4
	c-0.3-0.3-0.4-0.8-0.4-1.3c0-0.3,0.1-0.6,0.3-0.7c0,0,0.2-0.2,0.6-0.3c0.5-0.3,0.8-0.6,1.1-1.1c0.2-0.3,0.3-0.5,0.4-0.8
	c0.1-0.3,0.1-0.7,0.2-1.2h0.3c0.1,0.6,0.2,1.1,0.2,1.5h9.5c1-1.6,1.6-3.2,2-4.6c0.8,0.2,1.7,0.5,2.9,0.9c0.4,0.1,0.6,0.3,0.6,0.4
	c0,0.2-0.3,0.3-0.8,0.3c0,0-0.1,0-0.2,0c-1.2,1.2-2.4,2.1-3.5,2.9h3.1c0.4-0.5,0.9-0.9,1.4-1.3c0.8,0.6,1.5,1.2,2.3,1.7
	c0.2,0.2,0.3,0.3,0.3,0.4c0,0.2-0.1,0.3-0.4,0.4c-0.1,0-0.4,0-0.9,0.1c-0.4,0.3-0.7,0.5-0.8,0.5L271,11c-0.1,0.1-0.2,0.1-0.4,0.3
	l0.3,0.2c0.2,0.2,0.3,0.3,0.3,0.4c0,0.2-0.3,0.3-0.8,0.3c-0.1,0-0.2,0-0.3,0c-1.4,0.7-2.7,1.3-3.9,1.8c0.2,0.1,0.2,0.1,0.2,0.3
	c0,0.1-0.1,0.2-0.3,0.3c-0.1,0-0.2,0.1-0.5,0.2V16.1z"/>
<defs>
	<filter id="Adobe_OpacityMaskFilter_8_" filterUnits="userSpaceOnUse" x="53.5" y="29.9" width="6.4" height="9.1">
		<feColorMatrix  type="matrix" values="1 0 0 0 0  0 1 0 0 0  0 0 1 0 0  0 0 0 1 0"/>
	</filter>
</defs>
<mask maskUnits="userSpaceOnUse" x="53.5" y="29.9" width="6.4" height="9.1" id="mask-8_10_">
	<g class="st19">
		<polygon id="path-7_10_" class="st2" points="6.3,40 317.9,40 317.9,4.7 6.3,4.7 		"/>
	</g>
</mask>
<path id="Fill-42" class="st20" d="M57.2,36c-0.2,0.6-0.4,1.2-0.7,1.7C56,38.5,55.3,39,54.3,39c-0.4,0-0.8-0.1-0.8-0.4
	c0-0.1,0.1-0.3,0.2-0.4c0.1-0.1,0.2-0.2,0.3-0.2c0.2,0,0.3,0.1,0.5,0.2c0.2,0.1,0.3,0.2,0.5,0.2c0.3,0,0.4-0.4,0.6-0.9
	c0.1-0.2,0.3-1,0.7-2.1l1.3-4.1c0.3-0.9,0.3-1.2-0.3-1.2l-0.4,0c-0.1-0.1,0-0.2,0.1-0.3c0.6,0,1.1,0,1.6,0c0.5,0,0.9,0,1.3,0
	c0.1,0.1,0.1,0.3,0,0.3l-0.2,0c-0.5,0.1-0.6,0.2-0.9,1.2L57.2,36z"/>
<defs>
	<filter id="Adobe_OpacityMaskFilter_9_" filterUnits="userSpaceOnUse" x="59.1" y="32.6" width="4.9" height="4.4">
		<feColorMatrix  type="matrix" values="1 0 0 0 0  0 1 0 0 0  0 0 1 0 0  0 0 0 1 0"/>
	</filter>
</defs>
<mask maskUnits="userSpaceOnUse" x="59.1" y="32.6" width="4.9" height="4.4" id="mask-8_11_">
	<g class="st21">
		<polygon id="path-7_11_" class="st2" points="6.3,40 317.9,40 317.9,4.7 6.3,4.7 		"/>
	</g>
</mask>
<path id="Fill-43" class="st22" d="M60.2,33.6c0.1-0.2,0.1-0.3,0-0.3c-0.2,0-0.7,0.4-1,0.7c-0.1,0-0.2-0.1-0.2-0.2
	c0.3-0.5,1.2-1.3,2-1.3c0.2,0,0.4,0.2,0.4,0.4c0,0,0,0.2-0.1,0.3l-1.1,2.7c-0.1,0.2,0,0.3,0.1,0.3c0.1,0,0.4-0.2,0.8-0.6
	c0.9-0.8,1.6-2.2,2-3.1c0.1,0,0.2,0,0.3,0c0.2,0,0.5,0.1,0.5,0.2c-0.3,0.7-0.8,2.1-1.2,3.2c-0.1,0.2-0.1,0.3,0.1,0.3
	c0.2,0,0.7-0.5,1-0.8c0.1,0,0.2,0,0.2,0.2c-0.3,0.5-1.3,1.3-2,1.3c-0.2,0-0.4-0.2-0.3-0.5l0.7-1.7h0c-0.7,0.9-1.9,2.2-2.6,2.2
	c-0.3,0-0.5-0.3-0.5-0.5c0-0.2,0.1-0.3,0.1-0.5L60.2,33.6z"/>
<defs>
	<filter id="Adobe_OpacityMaskFilter_10_" filterUnits="userSpaceOnUse" x="64.6" y="32.6" width="4.8" height="4.5">
		<feColorMatrix  type="matrix" values="1 0 0 0 0  0 1 0 0 0  0 0 1 0 0  0 0 0 1 0"/>
	</filter>
</defs>
<mask maskUnits="userSpaceOnUse" x="64.6" y="32.6" width="4.8" height="4.5" id="mask-8_12_">
	<g class="st23">
		<polygon id="path-7_12_" class="st2" points="6.3,40 317.9,40 317.9,4.7 6.3,4.7 		"/>
	</g>
</mask>
<path id="Fill-44" class="st24" d="M69.4,33.2c0,0.2-0.1,0.6-0.2,0.8c-0.2,0.5-0.7,1.7-0.9,2.1c-0.1,0.1-0.1,0.2,0,0.2
	c0.2,0,0.7-0.4,1-0.7c0.1,0,0.2,0.1,0.2,0.2c-0.4,0.6-1.2,1.3-2,1.3c-0.2,0-0.4-0.2-0.4-0.3c0-0.1,0-0.3,0.2-0.6
	c0.3-0.6,0.6-1.5,0.9-2.1c0.1-0.2,0.2-0.5,0.2-0.6c0-0.1,0-0.2-0.1-0.2c-0.2,0-0.6,0.3-1.1,0.9c-0.6,0.7-1.1,1.7-1.6,2.8
	C65.4,37,65.3,37,65.1,37c-0.2,0-0.6-0.1-0.5-0.4c0-0.1,1-2.8,1.1-3c0.1-0.2,0.1-0.3,0-0.3c-0.2,0-0.6,0.3-0.9,0.5
	c-0.1,0-0.2-0.1-0.2-0.2c0.3-0.5,1.1-1.1,1.8-1.1c0.4,0,0.4,0.3,0.3,0.5l-0.6,1.6h0c0.7-0.9,1.6-2.2,2.5-2.2
	C69.2,32.6,69.4,32.9,69.4,33.2"/>
<defs>
	<filter id="Adobe_OpacityMaskFilter_11_" filterUnits="userSpaceOnUse" x="70.2" y="30" width="3" height="7">
		<feColorMatrix  type="matrix" values="1 0 0 0 0  0 1 0 0 0  0 0 1 0 0  0 0 0 1 0"/>
	</filter>
</defs>
<mask maskUnits="userSpaceOnUse" x="70.2" y="30" width="3" height="7" id="mask-8_13_">
	<g class="st25">
		<polygon id="path-7_13_" class="st2" points="6.3,40 317.9,40 317.9,4.7 6.3,4.7 		"/>
	</g>
</mask>
<path id="Fill-45" class="st26" d="M72,30.8c0-0.4,0.3-0.8,0.7-0.8c0.3,0,0.5,0.2,0.5,0.5c0,0.4-0.3,0.8-0.7,0.8
	C72.1,31.3,72,31.1,72,30.8L72,30.8z M71.4,36.1c0,0.1-0.1,0.2,0,0.2c0.2,0,0.7-0.4,1.1-0.7c0.1,0,0.2,0.1,0.2,0.2
	c-0.3,0.4-1.3,1.3-2.1,1.3c-0.2,0-0.3-0.2-0.3-0.3c0-0.1,0-0.2,0.1-0.4l1.2-2.8c0-0.1,0-0.2,0-0.2c-0.1,0-0.6,0.3-0.9,0.6
	c-0.1,0-0.2-0.1-0.1-0.2c0.6-0.7,1.5-1.1,1.9-1.1c0.1,0,0.3,0.1,0.3,0.3c0,0.1,0,0.2-0.1,0.5L71.4,36.1z"/>
<defs>
	<filter id="Adobe_OpacityMaskFilter_12_" filterUnits="userSpaceOnUse" x="73.2" y="32.6" width="4" height="4.4">
		<feColorMatrix  type="matrix" values="1 0 0 0 0  0 1 0 0 0  0 0 1 0 0  0 0 0 1 0"/>
	</filter>
</defs>
<mask maskUnits="userSpaceOnUse" x="73.2" y="32.6" width="4" height="4.4" id="mask-8_14_">
	<g class="st27">
		<polygon id="path-7_14_" class="st2" points="6.3,40 317.9,40 317.9,4.7 6.3,4.7 		"/>
	</g>
</mask>
<path id="Fill-46" class="st28" d="M75.4,36c0.4-0.5,0.9-1.8,0.9-2.5c0-0.3,0-0.6-0.3-0.6c-0.2,0-0.4,0.1-0.7,0.5
	c-0.5,0.6-1,1.9-1,2.7c0,0.3,0.1,0.5,0.4,0.5C74.9,36.6,75.1,36.5,75.4,36 M74.4,33.3c0.6-0.6,1.1-0.7,1.6-0.7
	c0.9,0,1.3,0.6,1.3,1.4c0,0.7-0.3,1.6-1,2.3C75.6,36.9,75,37,74.6,37c-0.9,0-1.3-0.6-1.3-1.4C73.3,34.9,73.7,33.9,74.4,33.3"/>
<defs>
	<filter id="Adobe_OpacityMaskFilter_13_" filterUnits="userSpaceOnUse" x="78" y="32.6" width="3.8" height="4.5">
		<feColorMatrix  type="matrix" values="1 0 0 0 0  0 1 0 0 0  0 0 1 0 0  0 0 0 1 0"/>
	</filter>
</defs>
<mask maskUnits="userSpaceOnUse" x="78" y="32.6" width="3.8" height="4.5" id="mask-8_15_">
	<g class="st29">
		<polygon id="path-7_15_" class="st2" points="6.3,40 317.9,40 317.9,4.7 6.3,4.7 		"/>
	</g>
</mask>
<path id="Fill-47" class="st30" d="M79.8,33.7l-0.4,1.1h0.1c0.3-0.6,0.7-1.2,0.9-1.5c0.3-0.4,0.6-0.7,0.9-0.7c0.3,0,0.5,0.3,0.5,0.6
	c0,0.3-0.2,0.8-0.6,0.8c-0.1,0-0.2-0.1-0.2-0.3c0-0.2-0.1-0.3-0.2-0.3c-0.1,0-0.4,0.2-0.7,0.8c-0.4,0.6-0.8,1.7-1.3,2.7
	C78.8,37,78.7,37,78.5,37c-0.2,0-0.6-0.1-0.5-0.4c0.2-0.7,0.8-2.2,1.1-3.1c0.1-0.2,0-0.3-0.1-0.3c-0.2,0-0.6,0.3-0.8,0.6
	c-0.1,0-0.2-0.1-0.2-0.2c0.3-0.5,0.8-1.1,1.5-1.1C80,32.6,80,33.2,79.8,33.7"/>
<defs>
	<filter id="Adobe_OpacityMaskFilter_14_" filterUnits="userSpaceOnUse" x="84.5" y="29.8" width="9.3" height="7">
		<feColorMatrix  type="matrix" values="1 0 0 0 0  0 1 0 0 0  0 0 1 0 0  0 0 0 1 0"/>
	</filter>
</defs>
<mask maskUnits="userSpaceOnUse" x="84.5" y="29.8" width="9.3" height="7" id="mask-8_23_">
	<g class="st31">
		<polygon id="path-7_23_" class="st2" points="-34,39.9 277.6,39.9 277.6,4.6 -34,4.6 		"/>
	</g>
</mask>
<path id="Fill-55" class="st32" d="M87,31.3c0.3-0.9,0.3-1.2-0.2-1.2l-0.3,0c-0.1-0.1,0-0.2,0.1-0.3c0.5,0,0.9,0,1.5,0
	c0.5,0,0.9,0,1.4,0c0.1,0.1,0.1,0.3,0,0.3l-0.3,0c-0.5,0.1-0.6,0.2-0.9,1.2l-0.4,1.3c-0.1,0.3-0.1,0.3,0.4,0.3h2.2
	c0.5,0,0.5,0,0.6-0.3l0.4-1.3c0.3-0.9,0.3-1.2-0.2-1.2l-0.3,0c-0.1-0.1,0-0.2,0.1-0.3c0.5,0,0.9,0,1.5,0c0.5,0,0.9,0,1.4,0
	c0.1,0.1,0.1,0.3,0,0.3l-0.3,0c-0.5,0.1-0.6,0.2-0.9,1.2l-1.2,3.9c-0.3,0.9-0.3,1.2,0.3,1.2l0.3,0c0.1,0.1,0,0.3-0.1,0.3
	c-0.6,0-1,0-1.5,0c-0.5,0-0.9,0-1.4,0c-0.1-0.1-0.1-0.3,0-0.3l0.3,0c0.5-0.1,0.6-0.2,0.9-1.2l0.5-1.6c0.1-0.2,0.1-0.3-0.4-0.3H88
	c-0.5,0-0.5,0-0.6,0.3l-0.5,1.6c-0.3,0.9-0.3,1.2,0.2,1.2l0.4,0c0.1,0.1,0,0.3-0.1,0.3c-0.6,0-1.1,0-1.6,0c-0.5,0-0.9,0-1.3,0
	c-0.1-0.1-0.1-0.3,0-0.3l0.2,0c0.5-0.1,0.6-0.2,0.9-1.2L87,31.3z"/>
<defs>
	<filter id="Adobe_OpacityMaskFilter_15_" filterUnits="userSpaceOnUse" x="93" y="29.9" width="3" height="7">
		<feColorMatrix  type="matrix" values="1 0 0 0 0  0 1 0 0 0  0 0 1 0 0  0 0 0 1 0"/>
	</filter>
</defs>
<mask maskUnits="userSpaceOnUse" x="93" y="29.9" width="3" height="7" id="mask-8_24_">
	<g class="st33">
		<polygon id="path-7_24_" class="st2" points="-34,39.9 277.6,39.9 277.6,4.6 -34,4.6 		"/>
	</g>
</mask>
<path id="Fill-56" class="st34" d="M94.8,30.7c0-0.4,0.3-0.8,0.7-0.8c0.3,0,0.5,0.2,0.5,0.5c0,0.4-0.3,0.8-0.7,0.8
	C94.9,31.2,94.8,31,94.8,30.7L94.8,30.7z M94.2,36c0,0.1-0.1,0.2,0,0.2c0.2,0,0.7-0.4,1.1-0.7c0.1,0,0.2,0.1,0.2,0.2
	c-0.3,0.4-1.3,1.3-2.1,1.3c-0.2,0-0.3-0.2-0.3-0.3c0-0.1,0-0.2,0.1-0.4l1.2-2.8c0-0.1,0-0.2,0-0.2c-0.1,0-0.6,0.3-0.9,0.6
	c-0.1,0-0.2-0.1-0.1-0.2c0.6-0.7,1.5-1.1,1.9-1.1c0.1,0,0.3,0.1,0.3,0.3c0,0.1,0,0.2-0.1,0.5L94.2,36z"/>
<defs>
	<filter id="Adobe_OpacityMaskFilter_16_" filterUnits="userSpaceOnUse" x="95" y="32.5" width="5.6" height="7.1">
		<feColorMatrix  type="matrix" values="1 0 0 0 0  0 1 0 0 0  0 0 1 0 0  0 0 0 1 0"/>
	</filter>
</defs>
<mask maskUnits="userSpaceOnUse" x="95" y="32.5" width="5.6" height="7.1" id="mask-8_25_">
	<g class="st35">
		<polygon id="path-7_25_" class="st2" points="-34,39.9 277.6,39.9 277.6,4.6 -34,4.6 		"/>
	</g>
</mask>
<path id="Fill-57" class="st36" d="M98.5,32.9c-0.2,0-0.4,0.1-0.7,0.5c-0.4,0.4-0.8,1.3-0.8,1.8c0,0.2,0.1,0.3,0.3,0.3
	c0.2,0,0.4-0.2,0.7-0.6c0.4-0.5,0.7-1.3,0.7-1.6C98.8,33,98.6,32.9,98.5,32.9 M98.6,38.6c0-0.2-0.2-0.5-0.5-0.7
	c-0.4-0.3-0.8-0.5-0.9-0.5c-0.1,0-0.5,0.1-0.7,0.3c-0.3,0.2-0.4,0.4-0.4,0.7c0,0.5,0.6,0.8,1.3,0.8C97.9,39.2,98.6,39,98.6,38.6
	 M95,38.6c0-0.8,1.2-1.3,1.8-1.4c-0.3-0.2-0.4-0.3-0.4-0.5c0-0.2,0.4-0.6,0.6-0.8c-0.3-0.1-0.9-0.4-0.9-1.1c0-0.5,0.3-1.2,0.9-1.7
	c0.4-0.4,0.9-0.6,1.6-0.6c0.1,0,0.3,0,0.4,0.1c0.1,0.1,0.3,0.1,0.3,0.1c0.1,0,0.3,0,0.5-0.1c0.2,0,0.4-0.1,0.5-0.1
	c0.2,0,0.3,0.1,0.3,0.4c0,0.3-0.2,0.4-0.3,0.4c-0.1,0-0.2,0-0.3-0.1c-0.1,0-0.3-0.1-0.3-0.1c0,0-0.1,0-0.1,0.1
	c0,0.1,0.1,0.3,0.1,0.3c0,0.9-0.6,1.7-1.5,2.1c-0.2,0.1-0.5,0.2-0.8,0.2c-0.1,0.1-0.2,0.2-0.2,0.3c0,0.1,0.2,0.3,0.5,0.5
	c0.3,0.1,0.7,0.4,1,0.6c0.5,0.3,0.7,0.7,0.7,1.1c0,0.8-1.4,1.3-2.6,1.3C96.1,39.6,95,39.4,95,38.6"/>
<defs>
	<filter id="Adobe_OpacityMaskFilter_17_" filterUnits="userSpaceOnUse" x="100.1" y="29.2" width="5" height="7.7">
		<feColorMatrix  type="matrix" values="1 0 0 0 0  0 1 0 0 0  0 0 1 0 0  0 0 0 1 0"/>
	</filter>
</defs>
<mask maskUnits="userSpaceOnUse" x="100.1" y="29.2" width="5" height="7.7" id="mask-8_26_">
	<g class="st37">
		<polygon id="path-7_26_" class="st2" points="-34,39.9 277.6,39.9 277.6,4.6 -34,4.6 		"/>
	</g>
</mask>
<path id="Fill-58" class="st38" d="M102.2,30.7c0.2-0.5,0.2-0.7,0-0.8l-0.3-0.1c0-0.1,0-0.1,0-0.2c0.3-0.1,1.1-0.3,1.6-0.3
	c0,0,0.1,0.1,0.1,0.1c-0.2,0.5-0.4,1.2-0.6,1.8l-1.1,3.2l0,0c0.5-0.7,1-1,1.3-1.3c0.4-0.3,0.8-0.5,1.2-0.5c0.5,0,0.7,0.4,0.7,0.8
	c0,0.8-0.5,1.9-0.9,2.6c-0.3,0.5-1,1.1-1.5,1.1c-0.3,0-0.5-0.2-0.5-0.4c0-0.2,0.2-0.4,0.3-0.4c0.1,0,0.1,0,0.2,0.1
	c0.1,0.1,0.2,0.2,0.3,0.2c0.1,0,0.2-0.1,0.3-0.4c0.3-0.7,0.8-2.1,0.8-2.7c0-0.2-0.1-0.3-0.2-0.3c-0.1,0-0.3,0.1-0.5,0.2
	c-0.3,0.2-0.6,0.6-1.1,1.2c-0.5,0.7-1.1,2-1.3,2.3c-0.1,0.1-0.2,0.2-0.4,0.2c-0.2,0-0.5-0.1-0.4-0.4L102.2,30.7z"/>
<defs>
	<filter id="Adobe_OpacityMaskFilter_18_" filterUnits="userSpaceOnUse" x="108.3" y="29.7" width="5.5" height="7.3">
		<feColorMatrix  type="matrix" values="1 0 0 0 0  0 1 0 0 0  0 0 1 0 0  0 0 0 1 0"/>
	</filter>
</defs>
<mask maskUnits="userSpaceOnUse" x="108.3" y="29.7" width="5.5" height="7.3" id="mask-8_27_">
	<g class="st39">
		<polygon id="path-7_27_" class="st2" points="-34,39.9 277.6,39.9 277.6,4.6 -34,4.6 		"/>
	</g>
</mask>
<path id="Fill-59" class="st40" d="M108.4,36.1c-0.1-0.5,0-1,0-1.4c0.1-0.1,0.3-0.1,0.3,0c0.1,0.4,0.2,0.8,0.4,1.1
	c0.3,0.4,0.7,0.7,1.3,0.7c0.7,0,1.4-0.4,1.4-1.4c0-0.7-0.5-1.2-1.1-1.6c-0.4-0.3-1-0.9-1-1.8c0-1.3,1-2.1,2.4-2.1
	c0.7,0,1.4,0.2,1.8,0.5c-0.1,0.3-0.3,0.8-0.4,1.3c-0.1,0.1-0.3,0.1-0.3,0c0.1-0.7-0.2-1.4-1.2-1.4c-0.8,0-1.3,0.6-1.3,1.2
	c0,0.7,0.7,1.2,1,1.4c0.7,0.5,1.2,1.1,1.2,2c0,1.3-1,2.2-2.6,2.2C109.4,37,108.6,36.6,108.4,36.1"/>
<defs>
	<filter id="Adobe_OpacityMaskFilter_19_" filterUnits="userSpaceOnUse" x="113.6" y="32.5" width="3.8" height="4.5">
		<feColorMatrix  type="matrix" values="1 0 0 0 0  0 1 0 0 0  0 0 1 0 0  0 0 0 1 0"/>
	</filter>
</defs>
<mask maskUnits="userSpaceOnUse" x="113.6" y="32.5" width="3.8" height="4.5" id="mask-8_28_">
	<g class="st41">
		<polygon id="path-7_28_" class="st2" points="-34,39.9 277.6,39.9 277.6,4.6 -34,4.6 		"/>
	</g>
</mask>
<path id="Fill-60" class="st42" d="M113.6,35.8c0-0.7,0.4-1.7,1.2-2.5c0.6-0.5,1.1-0.8,1.7-0.8c0.5,0,0.9,0.3,0.9,0.7
	c0,0.4-0.4,0.6-0.6,0.6c-0.2,0-0.3-0.1-0.3-0.3c0-0.2,0-0.6-0.3-0.6c-0.2,0-0.5,0.2-0.8,0.7c-0.3,0.5-0.7,1.3-0.7,2.1
	c0,0.5,0.2,0.6,0.4,0.6c0.3,0,0.7-0.2,1.1-0.6c0.1,0,0.2,0.1,0.2,0.2c-0.4,0.5-1.2,1.1-1.9,1.1C114,36.9,113.6,36.5,113.6,35.8"/>
<defs>
	<filter id="Adobe_OpacityMaskFilter_20_" filterUnits="userSpaceOnUse" x="117.4" y="29.2" width="5" height="7.7">
		<feColorMatrix  type="matrix" values="1 0 0 0 0  0 1 0 0 0  0 0 1 0 0  0 0 0 1 0"/>
	</filter>
</defs>
<mask maskUnits="userSpaceOnUse" x="117.4" y="29.2" width="5" height="7.7" id="mask-8_29_">
	<g class="st43">
		<polygon id="path-7_29_" class="st2" points="-34,39.9 277.6,39.9 277.6,4.6 -34,4.6 		"/>
	</g>
</mask>
<path id="Fill-61" class="st44" d="M119.5,30.7c0.2-0.5,0.2-0.7,0-0.8l-0.3-0.1c0-0.1,0-0.1,0-0.2c0.3-0.1,1.1-0.3,1.6-0.3
	c0,0,0.1,0.1,0.1,0.1c-0.2,0.5-0.4,1.2-0.6,1.8l-1.1,3.2l0,0c0.5-0.7,1-1,1.3-1.3c0.4-0.3,0.8-0.5,1.2-0.5c0.5,0,0.7,0.4,0.7,0.8
	c0,0.8-0.5,1.9-0.9,2.6c-0.3,0.5-1,1.1-1.5,1.1c-0.3,0-0.5-0.2-0.5-0.4c0-0.2,0.2-0.4,0.3-0.4c0.1,0,0.1,0,0.2,0.1
	c0.1,0.1,0.2,0.2,0.3,0.2c0.1,0,0.2-0.1,0.3-0.4c0.3-0.7,0.8-2.1,0.8-2.7c0-0.2-0.1-0.3-0.2-0.3c-0.1,0-0.3,0.1-0.5,0.2
	c-0.3,0.2-0.6,0.6-1.1,1.2c-0.5,0.7-1.1,2-1.3,2.3c-0.1,0.1-0.2,0.2-0.4,0.2c-0.2,0-0.5-0.1-0.4-0.4L119.5,30.7z"/>
<defs>
	<filter id="Adobe_OpacityMaskFilter_21_" filterUnits="userSpaceOnUse" x="122.9" y="32.5" width="4" height="4.4">
		<feColorMatrix  type="matrix" values="1 0 0 0 0  0 1 0 0 0  0 0 1 0 0  0 0 0 1 0"/>
	</filter>
</defs>
<mask maskUnits="userSpaceOnUse" x="122.9" y="32.5" width="4" height="4.4" id="mask-8_30_">
	<g class="st45">
		<polygon id="path-7_30_" class="st2" points="-34,39.9 277.6,39.9 277.6,4.6 -34,4.6 		"/>
	</g>
</mask>
<path id="Fill-62" class="st46" d="M125,35.9c0.4-0.5,0.9-1.8,0.9-2.5c0-0.3,0-0.6-0.3-0.6c-0.2,0-0.4,0.1-0.7,0.5
	c-0.5,0.6-1,1.9-1,2.7c0,0.3,0.1,0.5,0.4,0.5C124.5,36.6,124.7,36.4,125,35.9 M124,33.2c0.6-0.6,1.1-0.7,1.6-0.7
	c0.9,0,1.3,0.6,1.3,1.4c0,0.7-0.3,1.6-1,2.3c-0.6,0.6-1.2,0.7-1.7,0.7c-0.9,0-1.3-0.6-1.3-1.4C122.9,34.8,123.3,33.8,124,33.2"/>
<defs>
	<filter id="Adobe_OpacityMaskFilter_22_" filterUnits="userSpaceOnUse" x="127.5" y="32.5" width="4" height="4.4">
		<feColorMatrix  type="matrix" values="1 0 0 0 0  0 1 0 0 0  0 0 1 0 0  0 0 0 1 0"/>
	</filter>
</defs>
<mask maskUnits="userSpaceOnUse" x="127.5" y="32.5" width="4" height="4.4" id="mask-8_31_">
	<g class="st47">
		<polygon id="path-7_31_" class="st2" points="-34,39.9 277.6,39.9 277.6,4.6 -34,4.6 		"/>
	</g>
</mask>
<path id="Fill-63" class="st48" d="M129.7,35.9c0.4-0.5,0.9-1.8,0.9-2.5c0-0.3,0-0.6-0.3-0.6c-0.2,0-0.4,0.1-0.7,0.5
	c-0.5,0.6-1,1.9-1,2.7c0,0.3,0.1,0.5,0.4,0.5C129.1,36.6,129.4,36.4,129.7,35.9 M128.6,33.2c0.6-0.6,1.1-0.7,1.6-0.7
	c0.9,0,1.3,0.6,1.3,1.4c0,0.7-0.3,1.6-1,2.3c-0.6,0.6-1.2,0.7-1.7,0.7c-0.9,0-1.3-0.6-1.3-1.4C127.6,34.8,128,33.8,128.6,33.2"/>
<defs>
	<filter id="Adobe_OpacityMaskFilter_23_" filterUnits="userSpaceOnUse" x="132" y="29.2" width="3.4" height="7.7">
		<feColorMatrix  type="matrix" values="1 0 0 0 0  0 1 0 0 0  0 0 1 0 0  0 0 0 1 0"/>
	</filter>
</defs>
<mask maskUnits="userSpaceOnUse" x="132" y="29.2" width="3.4" height="7.7" id="mask-8_32_">
	<g class="st49">
		<polygon id="path-7_32_" class="st2" points="-34,39.9 277.6,39.9 277.6,4.6 -34,4.6 		"/>
	</g>
</mask>
<path id="Fill-64" class="st50" d="M133.2,35.9c-0.1,0.3-0.1,0.4,0,0.4c0.2,0,0.8-0.6,1.1-1c0.1,0,0.2,0.1,0.2,0.2
	c-0.3,0.6-0.9,1.4-2,1.4c-0.4,0-0.5-0.2-0.5-0.4c0-0.2,0-0.4,0.2-0.8l1.7-5.1c0.2-0.5,0.1-0.7,0-0.8l-0.2-0.1c0-0.1,0-0.1,0-0.2
	c0.3-0.1,1.2-0.3,1.7-0.3c0,0,0.1,0.1,0.1,0.1c-0.1,0.4-0.3,0.8-0.6,1.6L133.2,35.9z"/>
<defs>
	<filter id="Adobe_OpacityMaskFilter_24_" filterUnits="userSpaceOnUse" x="137.3" y="32.3" width="4.9" height="4.7">
		<feColorMatrix  type="matrix" values="1 0 0 0 0  0 1 0 0 0  0 0 1 0 0  0 0 0 1 0"/>
	</filter>
</defs>
<mask maskUnits="userSpaceOnUse" x="137.3" y="32.3" width="4.9" height="4.7" id="mask-8_33_">
	<g class="st51">
		<polygon id="path-7_33_" class="st2" points="-34,39.9 277.6,39.9 277.6,4.6 -34,4.6 		"/>
	</g>
</mask>
<path id="Fill-65" class="st52" d="M139.7,33.5c-0.6,0.6-1.1,1.8-1.2,2.5c0,0.1,0,0.2,0.1,0.2c0.2,0,0.6-0.4,1.1-0.8
	c0.5-0.6,1-1.5,1.2-2c-0.1-0.3-0.3-0.4-0.5-0.4C140.2,33.1,140,33.2,139.7,33.5L139.7,33.5z M141.4,32.3c0,0,0.1,0,0.2,0
	c0.2,0,0.5,0.1,0.6,0.3c-0.3,0.7-1,2.4-1.4,3.5c-0.1,0.1,0,0.2,0.1,0.2c0.2,0,0.6-0.2,1.1-0.7c0.1,0,0.2,0.1,0.2,0.2
	c-0.5,0.6-1.3,1.2-2,1.2c-0.3,0-0.3-0.2-0.3-0.3c0-0.1,0-0.2,0.1-0.4l0.4-1h0c-0.7,1-1.8,1.8-2.4,1.8c-0.3,0-0.6-0.3-0.6-0.6
	c0-0.4,0.4-1.5,1.2-2.4c0.5-0.5,1-0.9,1.3-1c0.3-0.2,0.6-0.2,0.8-0.2c0.1,0,0.2,0,0.2,0.1c0.1,0,0.2,0.1,0.2,0.2L141.4,32.3z"/>
<defs>
	<filter id="Adobe_OpacityMaskFilter_25_" filterUnits="userSpaceOnUse" x="142.8" y="31.6" width="3.4" height="5.4">
		<feColorMatrix  type="matrix" values="1 0 0 0 0  0 1 0 0 0  0 0 1 0 0  0 0 0 1 0"/>
	</filter>
</defs>
<mask maskUnits="userSpaceOnUse" x="142.8" y="31.6" width="3.4" height="5.4" id="mask-8_34_">
	<g class="st53">
		<polygon id="path-7_34_" class="st2" points="-34,39.9 277.6,39.9 277.6,4.6 -34,4.6 		"/>
	</g>
</mask>
<path id="Fill-66" class="st54" d="M144.9,33.2l-0.9,2.7c-0.1,0.2,0,0.3,0.1,0.3c0.2,0,0.8-0.5,1.2-0.9c0.1,0,0.2,0.1,0.2,0.2
	c-0.5,0.7-1.5,1.4-2.2,1.4c-0.2,0-0.4-0.2-0.4-0.4c0-0.1,0-0.3,0.1-0.6l1-2.8h-0.8c-0.1-0.1,0-0.3,0.1-0.3l0.9-0.2l0.7-1
	c0.1,0,0.1-0.1,0.3-0.1c0.1,0,0.3,0.1,0.3,0.1l-0.3,1h1.1c0.1,0.1,0,0.4-0.1,0.5H144.9z"/>
<defs>
	<filter id="Adobe_OpacityMaskFilter_26_" filterUnits="userSpaceOnUse" x="148.2" y="29.8" width="8.8" height="7">
		<feColorMatrix  type="matrix" values="1 0 0 0 0  0 1 0 0 0  0 0 1 0 0  0 0 0 1 0"/>
	</filter>
</defs>
<mask maskUnits="userSpaceOnUse" x="148.2" y="29.8" width="8.8" height="7" id="mask-8_35_">
	<g class="st55">
		<polygon id="path-7_35_" class="st2" points="-34,39.9 277.6,39.9 277.6,4.6 -34,4.6 		"/>
	</g>
</mask>
<path id="Fill-67" class="st56" d="M150.8,31.3c0.3-0.9,0.3-1.2-0.2-1.2l-0.3,0c-0.1-0.1,0-0.2,0.1-0.3c0.5,0,0.9,0,1.5,0
	s0.9,0,1.4,0c0.1,0.1,0.1,0.3,0,0.3l-0.3,0c-0.5,0.1-0.6,0.2-0.9,1.2l-0.4,1.4c-0.1,0.2-0.1,0.3,0.1,0.3c0.1,0,0.2,0,0.4-0.1
	c0.2-0.1,0.6-0.4,0.9-0.8l1.2-1.1c0.2-0.2,0.5-0.5,0.6-0.6c0.1-0.1,0.1-0.1,0.1-0.2c0-0.1-0.1-0.1-0.2-0.1l-0.2,0
	c-0.1-0.1-0.1-0.3,0.1-0.3c0.5,0,0.8,0,1.3,0c0.4,0,0.9,0,1.2,0c0.1,0,0.1,0.3,0,0.3l-0.2,0c-0.2,0-0.5,0.1-0.7,0.2
	c-0.4,0.1-1.1,0.7-1.9,1.4l-1,0.9c-0.2,0.1-0.3,0.3-0.3,0.3c0,0.1,0,0.1,0.1,0.3c0.2,0.5,1,2.1,1.2,2.5c0.2,0.4,0.3,0.6,0.7,0.7
	l0.3,0.1c0.1,0.1,0.1,0.3,0,0.3c-0.4,0-0.8,0-1.3,0c-0.4,0-0.9,0-1.3,0c-0.1-0.1-0.1-0.3,0-0.3l0.3,0c0.3-0.1,0.3-0.2,0.2-0.5
	c0-0.1-0.4-1-0.5-1.1L152,34c-0.2-0.5-0.3-0.6-0.5-0.6c-0.2,0-0.3,0.1-0.4,0.5l-0.4,1.4c-0.3,0.9-0.3,1.2,0.2,1.2l0.3,0
	c0.1,0.1,0,0.3-0.1,0.3c-0.6,0-1,0-1.5,0c-0.5,0-0.9,0-1.4,0c-0.1-0.1-0.1-0.3,0-0.3l0.3,0c0.5-0.1,0.6-0.2,0.9-1.2L150.8,31.3z"/>
<defs>
	<filter id="Adobe_OpacityMaskFilter_27_" filterUnits="userSpaceOnUse" x="155.7" y="32.5" width="4" height="4.4">
		<feColorMatrix  type="matrix" values="1 0 0 0 0  0 1 0 0 0  0 0 1 0 0  0 0 0 1 0"/>
	</filter>
</defs>
<mask maskUnits="userSpaceOnUse" x="155.7" y="32.5" width="4" height="4.4" id="mask-8_36_">
	<g class="st57">
		<polygon id="path-7_36_" class="st2" points="-34,39.9 277.6,39.9 277.6,4.6 -34,4.6 		"/>
	</g>
</mask>
<path id="Fill-68" class="st58" d="M157.9,35.9c0.4-0.5,0.9-1.8,0.9-2.5c0-0.3,0-0.6-0.3-0.6c-0.2,0-0.4,0.1-0.7,0.5
	c-0.5,0.6-1,1.9-1,2.7c0,0.3,0.1,0.5,0.4,0.5C157.3,36.6,157.5,36.4,157.9,35.9 M156.8,33.2c0.6-0.6,1.1-0.7,1.6-0.7
	c0.9,0,1.3,0.6,1.3,1.4c0,0.7-0.3,1.6-1,2.3c-0.6,0.6-1.2,0.7-1.7,0.7c-0.9,0-1.3-0.6-1.3-1.4C155.7,34.8,156.2,33.8,156.8,33.2"/>
<defs>
	<filter id="Adobe_OpacityMaskFilter_28_" filterUnits="userSpaceOnUse" x="160.4" y="32.5" width="7.3" height="4.5">
		<feColorMatrix  type="matrix" values="1 0 0 0 0  0 1 0 0 0  0 0 1 0 0  0 0 0 1 0"/>
	</filter>
</defs>
<mask maskUnits="userSpaceOnUse" x="160.4" y="32.5" width="7.3" height="4.5" id="mask-8_37_">
	<g class="st59">
		<polygon id="path-7_37_" class="st2" points="-34,39.9 277.6,39.9 277.6,4.6 -34,4.6 		"/>
	</g>
</mask>
<path id="Fill-69" class="st60" d="M162.6,33l-0.6,1.6h0c0.7-1,1.6-2.1,2.4-2.1c0.6,0,0.6,0.6,0.5,0.9c-0.1,0.2-0.3,0.8-0.5,1.2h0
	c0.9-1.4,1.7-2.2,2.4-2.2c0.5,0,0.7,0.3,0.7,0.6c0,0.2-0.1,0.5-0.2,0.8c-0.2,0.5-0.7,1.7-0.9,2.1c-0.1,0.1-0.1,0.2,0,0.2
	c0.2,0,0.7-0.4,1-0.7c0.1,0,0.2,0.1,0.2,0.2c-0.3,0.6-1.2,1.3-2,1.3c-0.2,0-0.4-0.2-0.4-0.3c0-0.1,0.1-0.3,0.2-0.6
	c0.3-0.6,0.6-1.5,0.9-2.1c0.1-0.2,0.2-0.5,0.2-0.6c0-0.1,0-0.2-0.2-0.2c-0.2,0-0.6,0.3-1.1,0.9c-0.5,0.7-1,1.7-1.6,2.8
	c-0.1,0.1-0.2,0.2-0.3,0.2c-0.3,0-0.6-0.1-0.5-0.3c0-0.1,0.8-2.2,1.1-2.8c0.1-0.1,0.2-0.4,0.2-0.6c0-0.1,0-0.2-0.2-0.2
	c-0.2,0-0.6,0.3-1.2,1c-0.5,0.7-1,1.7-1.5,2.7c-0.1,0.1-0.1,0.2-0.3,0.2c-0.3,0-0.6-0.1-0.5-0.3c0-0.1,1-2.8,1.1-3.1
	c0.1-0.3,0.1-0.4-0.1-0.4c-0.3,0-0.7,0.3-0.9,0.6c-0.1,0-0.2-0.1-0.2-0.2c0.3-0.6,0.9-1.1,1.8-1.1C162.6,32.5,162.7,32.8,162.6,33"
	/>
<defs>
	<filter id="Adobe_OpacityMaskFilter_29_" filterUnits="userSpaceOnUse" x="168.2" y="32.3" width="4.9" height="4.7">
		<feColorMatrix  type="matrix" values="1 0 0 0 0  0 1 0 0 0  0 0 1 0 0  0 0 0 1 0"/>
	</filter>
</defs>
<mask maskUnits="userSpaceOnUse" x="168.2" y="32.3" width="4.9" height="4.7" id="mask-8_38_">
	<g class="st61">
		<polygon id="path-7_38_" class="st2" points="-34,39.9 277.6,39.9 277.6,4.6 -34,4.6 		"/>
	</g>
</mask>
<path id="Fill-70" class="st62" d="M170.5,33.5c-0.6,0.6-1.1,1.8-1.2,2.5c0,0.1,0,0.2,0.1,0.2c0.2,0,0.6-0.4,1.1-0.8
	c0.5-0.6,1-1.5,1.2-2c-0.1-0.3-0.3-0.4-0.5-0.4C171,33.1,170.9,33.2,170.5,33.5L170.5,33.5z M172.3,32.3c0,0,0.1,0,0.2,0
	c0.2,0,0.5,0.1,0.6,0.3c-0.3,0.7-1,2.4-1.4,3.5c-0.1,0.1,0,0.2,0.1,0.2c0.2,0,0.6-0.2,1.1-0.7c0.1,0,0.2,0.1,0.2,0.2
	c-0.5,0.6-1.3,1.2-2,1.2c-0.3,0-0.3-0.2-0.3-0.3c0-0.1,0-0.2,0.1-0.4l0.4-1h0c-0.7,1-1.8,1.8-2.4,1.8c-0.3,0-0.6-0.3-0.6-0.6
	c0-0.4,0.4-1.5,1.2-2.4c0.5-0.5,1-0.9,1.3-1c0.3-0.2,0.6-0.2,0.8-0.2c0.1,0,0.2,0,0.2,0.1c0.1,0,0.2,0.1,0.2,0.2L172.3,32.3z"/>
<defs>
	<filter id="Adobe_OpacityMaskFilter_30_" filterUnits="userSpaceOnUse" x="173.7" y="29.2" width="4.5" height="7.7">
		<feColorMatrix  type="matrix" values="1 0 0 0 0  0 1 0 0 0  0 0 1 0 0  0 0 0 1 0"/>
	</filter>
</defs>
<mask maskUnits="userSpaceOnUse" x="173.7" y="29.2" width="4.5" height="7.7" id="mask-8_39_">
	<g class="st63">
		<polygon id="path-7_39_" class="st2" points="-34,39.9 277.6,39.9 277.6,4.6 -34,4.6 		"/>
	</g>
</mask>
<path id="Fill-71" class="st64" d="M175.5,34.1c-0.6,0.7-0.8,1.5-0.8,1.9c0,0.3,0.1,0.5,0.3,0.5c0.2,0,0.5-0.2,0.9-0.7
	c0.7-0.8,1.3-2,1.3-2.5c0-0.3-0.1-0.4-0.3-0.4C176.6,33,176.1,33.4,175.5,34.1 M177.1,35.7c-0.8,0.8-1.7,1.2-2.4,1.2
	c-0.7,0-1-0.4-1-1c0-0.5,0.2-1.1,0.5-1.8l1.3-3.4c0.2-0.5,0.2-0.6,0-0.8l-0.3-0.2c0-0.1,0-0.1,0-0.2c0.3-0.1,1.1-0.3,1.6-0.3
	c0,0,0.1,0.1,0.1,0.1c-0.2,0.5-0.4,0.9-0.6,1.4l-1.3,3.3h0c0.6-0.9,1.4-1.6,2.1-1.6c0.8,0,1,0.5,1,1
	C178.2,34.1,177.9,34.9,177.1,35.7"/>
<defs>
	<filter id="Adobe_OpacityMaskFilter_31_" filterUnits="userSpaceOnUse" x="178.3" y="32.3" width="4.9" height="4.7">
		<feColorMatrix  type="matrix" values="1 0 0 0 0  0 1 0 0 0  0 0 1 0 0  0 0 0 1 0"/>
	</filter>
</defs>
<mask maskUnits="userSpaceOnUse" x="178.3" y="32.3" width="4.9" height="4.7" id="mask-8_40_">
	<g class="st65">
		<polygon id="path-7_40_" class="st2" points="-34,39.9 277.6,39.9 277.6,4.6 -34,4.6 		"/>
	</g>
</mask>
<path id="Fill-72" class="st66" d="M180.7,33.5c-0.6,0.6-1.1,1.8-1.2,2.5c0,0.1,0,0.2,0.1,0.2c0.2,0,0.6-0.4,1.1-0.8
	c0.5-0.6,1-1.5,1.2-2c-0.1-0.3-0.3-0.4-0.5-0.4C181.2,33.1,181,33.2,180.7,33.5L180.7,33.5z M182.4,32.3c0,0,0.1,0,0.2,0
	c0.2,0,0.5,0.1,0.6,0.3c-0.3,0.7-1,2.4-1.4,3.5c-0.1,0.1,0,0.2,0.1,0.2c0.2,0,0.6-0.2,1.1-0.7c0.1,0,0.2,0.1,0.2,0.2
	c-0.5,0.6-1.3,1.2-2,1.2c-0.3,0-0.3-0.2-0.3-0.3c0-0.1,0-0.2,0.1-0.4l0.4-1h0c-0.7,1-1.8,1.8-2.4,1.8c-0.3,0-0.6-0.3-0.6-0.6
	c0-0.4,0.4-1.5,1.2-2.4c0.5-0.5,1-0.9,1.3-1c0.3-0.2,0.6-0.2,0.8-0.2c0.1,0,0.2,0,0.2,0.1c0.1,0,0.2,0.1,0.2,0.2L182.4,32.3z"/>
<defs>
	<filter id="Adobe_OpacityMaskFilter_32_" filterUnits="userSpaceOnUse" x="225.8" y="34.9" width="2" height="2.7">
		<feColorMatrix  type="matrix" values="1 0 0 0 0  0 1 0 0 0  0 0 1 0 0  0 0 0 1 0"/>
	</filter>
</defs>
<mask maskUnits="userSpaceOnUse" x="225.8" y="34.9" width="2" height="2.7" id="mask-8_41_">
	<g class="st67">
		<polygon id="path-7_41_" class="st2" points="8.5,39.5 320.2,39.5 320.2,4.2 8.5,4.2 		"/>
	</g>
</mask>
<path id="Fill-73" class="st68" d="M226,37.6c-0.1,0-0.1-0.2-0.1-0.3c0.5-0.2,1-0.6,1-1.1c0-0.2-0.1-0.4-0.3-0.5
	c-0.1,0-0.2-0.2-0.2-0.3c0-0.3,0.3-0.5,0.6-0.5c0.4,0,0.8,0.4,0.8,1C227.8,36.7,226.9,37.3,226,37.6"/>
<defs>
	<filter id="Adobe_OpacityMaskFilter_33_" filterUnits="userSpaceOnUse" x="188" y="29.8" width="7.8" height="7.2">
		<feColorMatrix  type="matrix" values="1 0 0 0 0  0 1 0 0 0  0 0 1 0 0  0 0 0 1 0"/>
	</filter>
</defs>
<mask maskUnits="userSpaceOnUse" x="188" y="29.8" width="7.8" height="7.2" id="mask-8_42_">
	<g class="st69">
		<polygon id="path-7_42_" class="st2" points="-34,39.9 277.6,39.9 277.6,4.6 -34,4.6 		"/>
	</g>
</mask>
<path id="Fill-74" class="st70" d="M191.1,30.1c-0.5,0.1-0.6,0.2-0.9,1.2l-0.8,2.4c-0.1,0.4-0.2,0.9-0.2,1.2c0,0.9,0.4,1.5,1.5,1.5
	c1.3,0,2-1.2,2.4-2.5l0.5-1.6c0.2-0.7,0.4-1.5,0.4-1.7c0.1-0.4,0-0.5-0.5-0.6l-0.3,0c-0.1-0.1-0.1-0.2,0-0.3c0.4,0,0.8,0,1.3,0
	c0.4,0,0.8,0,1.2,0c0.1,0.1,0.1,0.2,0,0.3l-0.3,0.1c-0.3,0.1-0.5,0.1-0.7,0.5c-0.1,0.2-0.3,0.8-0.6,1.8l-0.5,1.6
	c-0.3,0.8-0.6,1.6-1.2,2.2c-0.5,0.5-1.3,0.7-2.1,0.7c-1.4,0-2.4-0.6-2.3-1.9c0-0.3,0.1-0.7,0.2-1.1l0.8-2.6c0.3-0.9,0.3-1.1-0.3-1.2
	l-0.3,0c-0.1-0.1,0-0.2,0.1-0.3c0.5,0,0.9,0,1.5,0c0.5,0,0.9,0,1.4,0c0.1,0.1,0.1,0.3,0,0.3L191.1,30.1z"/>
<defs>
	<filter id="Adobe_OpacityMaskFilter_34_" filterUnits="userSpaceOnUse" x="194.8" y="32.5" width="4.8" height="4.5">
		<feColorMatrix  type="matrix" values="1 0 0 0 0  0 1 0 0 0  0 0 1 0 0  0 0 0 1 0"/>
	</filter>
</defs>
<mask maskUnits="userSpaceOnUse" x="194.8" y="32.5" width="4.8" height="4.5" id="mask-8_43_">
	<g class="st71">
		<polygon id="path-7_43_" class="st2" points="-34,39.9 277.6,39.9 277.6,4.6 -34,4.6 		"/>
	</g>
</mask>
<path id="Fill-75" class="st72" d="M199.5,33.1c0,0.2-0.1,0.6-0.2,0.8c-0.2,0.5-0.7,1.7-0.9,2.1c-0.1,0.1-0.1,0.2,0,0.2
	c0.2,0,0.7-0.4,1-0.7c0.1,0,0.2,0.1,0.2,0.2c-0.4,0.6-1.2,1.3-2,1.3c-0.2,0-0.4-0.2-0.4-0.3c0-0.1,0-0.3,0.2-0.6
	c0.3-0.6,0.6-1.5,0.9-2.1c0.1-0.2,0.2-0.5,0.2-0.6c0-0.1,0-0.2-0.1-0.2c-0.2,0-0.6,0.3-1.1,0.9c-0.6,0.7-1.1,1.7-1.6,2.8
	c-0.1,0.1-0.2,0.2-0.4,0.2c-0.2,0-0.6-0.1-0.5-0.4c0-0.1,1-2.8,1.1-3c0.1-0.2,0.1-0.3,0-0.3c-0.2,0-0.6,0.3-0.9,0.5
	c-0.1,0-0.2-0.1-0.2-0.2c0.3-0.5,1.1-1.1,1.8-1.1c0.4,0,0.4,0.3,0.3,0.5l-0.6,1.6h0c0.7-0.9,1.6-2.2,2.5-2.2
	C199.3,32.5,199.5,32.8,199.5,33.1"/>
<defs>
	<filter id="Adobe_OpacityMaskFilter_35_" filterUnits="userSpaceOnUse" x="200.3" y="29.9" width="3" height="7">
		<feColorMatrix  type="matrix" values="1 0 0 0 0  0 1 0 0 0  0 0 1 0 0  0 0 0 1 0"/>
	</filter>
</defs>
<mask maskUnits="userSpaceOnUse" x="200.3" y="29.9" width="3" height="7" id="mask-8_44_">
	<g class="st73">
		<polygon id="path-7_44_" class="st2" points="-34,39.9 277.6,39.9 277.6,4.6 -34,4.6 		"/>
	</g>
</mask>
<path id="Fill-76" class="st74" d="M202.1,30.7c0-0.4,0.3-0.8,0.7-0.8c0.3,0,0.5,0.2,0.5,0.5c0,0.4-0.3,0.8-0.7,0.8
	C202.3,31.2,202.1,31,202.1,30.7L202.1,30.7z M201.5,36c0,0.1-0.1,0.2,0,0.2c0.2,0,0.7-0.4,1.1-0.7c0.1,0,0.2,0.1,0.2,0.2
	c-0.3,0.4-1.3,1.3-2.1,1.3c-0.2,0-0.3-0.2-0.3-0.3c0-0.1,0-0.2,0.1-0.4l1.2-2.8c0-0.1,0-0.2,0-0.2c-0.1,0-0.6,0.3-0.9,0.6
	c-0.1,0-0.2-0.1-0.1-0.2c0.6-0.7,1.5-1.1,1.9-1.1c0.1,0,0.3,0.1,0.3,0.3c0,0.1,0,0.2-0.1,0.5L201.5,36z"/>
<defs>
	<filter id="Adobe_OpacityMaskFilter_36_" filterUnits="userSpaceOnUse" x="203.4" y="32.5" width="4.3" height="4.4">
		<feColorMatrix  type="matrix" values="1 0 0 0 0  0 1 0 0 0  0 0 1 0 0  0 0 0 1 0"/>
	</filter>
</defs>
<mask maskUnits="userSpaceOnUse" x="203.4" y="32.5" width="4.3" height="4.4" id="mask-8_45_">
	<g class="st75">
		<polygon id="path-7_45_" class="st2" points="-34,39.9 277.6,39.9 277.6,4.6 -34,4.6 		"/>
	</g>
</mask>
<path id="Fill-77" class="st76" d="M203.7,36.3c0-0.2,0.1-0.5,0.2-0.9l0.7-1.8c0.1-0.2,0.1-0.3,0-0.3c-0.2,0-0.7,0.4-0.9,0.7
	c-0.1,0-0.2-0.1-0.2-0.2c0.3-0.5,1.1-1.2,1.9-1.2c0.3,0,0.5,0.3,0.4,0.6c0,0.1-0.1,0.5-0.2,0.6l-0.7,1.7c-0.1,0.2-0.2,0.4-0.2,0.6
	c0,0.1,0.1,0.3,0.3,0.3c0.2,0,0.6-0.3,1.1-0.8c0.4-0.6,0.7-1.3,0.7-1.7c0-0.3,0-0.6-0.1-0.8c0-0.3,0.3-0.5,0.6-0.5
	c0.5,0,0.5,0.4,0.5,0.7c0,0.8-0.8,2.2-1.8,3c-0.8,0.7-1.3,0.8-1.7,0.8C203.9,36.9,203.7,36.5,203.7,36.3"/>
<defs>
	<filter id="Adobe_OpacityMaskFilter_37_" filterUnits="userSpaceOnUse" x="208" y="32.5" width="3.8" height="4.4">
		<feColorMatrix  type="matrix" values="1 0 0 0 0  0 1 0 0 0  0 0 1 0 0  0 0 0 1 0"/>
	</filter>
</defs>
<mask maskUnits="userSpaceOnUse" x="208" y="32.5" width="3.8" height="4.4" id="mask-8_46_">
	<g class="st77">
		<polygon id="path-7_46_" class="st2" points="-34,39.9 277.6,39.9 277.6,4.6 -34,4.6 		"/>
	</g>
</mask>
<path id="Fill-78" class="st78" d="M210,33.3c-0.4,0.4-0.6,1-0.8,1.3c0.5-0.2,0.9-0.4,1.2-0.7c0.3-0.3,0.4-0.6,0.4-0.8
	c0-0.1-0.1-0.3-0.2-0.3C210.5,32.9,210.3,33,210,33.3 M208,35.8c0-0.8,0.5-2,1.5-2.7c0.6-0.4,1.1-0.6,1.5-0.6c0.5,0,0.8,0.4,0.8,0.7
	c0,0.9-1.4,1.5-2.6,1.8c-0.1,0.1-0.1,0.4-0.1,0.7c0,0.4,0.2,0.6,0.5,0.6c0.4,0,0.8-0.2,1.2-0.7c0.1,0,0.2,0.1,0.2,0.2
	c-0.6,0.8-1.3,1.1-2,1.1C208.3,36.9,208,36.4,208,35.8"/>
<defs>
	<filter id="Adobe_OpacityMaskFilter_38_" filterUnits="userSpaceOnUse" x="212.2" y="32.5" width="3.8" height="4.5">
		<feColorMatrix  type="matrix" values="1 0 0 0 0  0 1 0 0 0  0 0 1 0 0  0 0 0 1 0"/>
	</filter>
</defs>
<mask maskUnits="userSpaceOnUse" x="212.2" y="32.5" width="3.8" height="4.5" id="mask-8_47_">
	<g class="st79">
		<polygon id="path-7_47_" class="st2" points="-34,39.9 277.6,39.9 277.6,4.6 -34,4.6 		"/>
	</g>
</mask>
<path id="Fill-79" class="st80" d="M214,33.6l-0.4,1.1h0.1c0.3-0.6,0.7-1.2,0.9-1.5c0.3-0.4,0.6-0.7,0.9-0.7c0.3,0,0.5,0.3,0.5,0.6
	c0,0.3-0.2,0.8-0.6,0.8c-0.1,0-0.2-0.1-0.2-0.3c0-0.2-0.1-0.3-0.2-0.3c-0.1,0-0.4,0.2-0.7,0.8c-0.4,0.6-0.8,1.7-1.3,2.7
	c-0.1,0.1-0.2,0.2-0.4,0.2c-0.2,0-0.6-0.1-0.5-0.4c0.2-0.7,0.8-2.2,1.1-3.1c0.1-0.2,0-0.3-0.1-0.3c-0.2,0-0.6,0.3-0.8,0.6
	c-0.1,0-0.2-0.1-0.2-0.2c0.3-0.5,0.8-1.1,1.5-1.1C214.3,32.5,214.2,33.1,214,33.6"/>
<defs>
	<filter id="Adobe_OpacityMaskFilter_39_" filterUnits="userSpaceOnUse" x="215.7" y="32.5" width="3.3" height="4.5">
		<feColorMatrix  type="matrix" values="1 0 0 0 0  0 1 0 0 0  0 0 1 0 0  0 0 0 1 0"/>
	</filter>
</defs>
<mask maskUnits="userSpaceOnUse" x="215.7" y="32.5" width="3.3" height="4.5" id="mask-8_48_">
	<g class="st81">
		<polygon id="path-7_48_" class="st2" points="-34,39.9 277.6,39.9 277.6,4.6 -34,4.6 		"/>
	</g>
</mask>
<path id="Fill-80" class="st82" d="M215.7,36.2c0-0.2,0.2-0.5,0.4-0.5c0.1,0,0.2,0.1,0.2,0.1c0.3,0.3,0.5,0.5,0.8,0.5
	c0.2,0,0.4-0.2,0.4-0.4c0-0.3-0.3-0.7-0.5-1c-0.3-0.4-0.4-0.7-0.4-1c0-0.4,0.2-0.8,0.6-1.1c0.3-0.3,0.7-0.4,0.9-0.4
	c0.5,0,0.8,0.4,0.8,0.7c0,0.3-0.2,0.4-0.3,0.4c-0.1,0-0.2,0-0.2-0.1c-0.3-0.3-0.5-0.5-0.7-0.5c-0.2,0-0.4,0.2-0.4,0.3
	c0,0.3,0.3,0.7,0.5,0.9c0.3,0.4,0.5,0.7,0.5,1.1c0,0.4-0.2,0.8-0.6,1.1c-0.3,0.3-0.7,0.4-1.2,0.4S215.7,36.6,215.7,36.2"/>
<defs>
	<filter id="Adobe_OpacityMaskFilter_40_" filterUnits="userSpaceOnUse" x="219.4" y="29.9" width="3" height="7">
		<feColorMatrix  type="matrix" values="1 0 0 0 0  0 1 0 0 0  0 0 1 0 0  0 0 0 1 0"/>
	</filter>
</defs>
<mask maskUnits="userSpaceOnUse" x="219.4" y="29.9" width="3" height="7" id="mask-8_49_">
	<g class="st83">
		<polygon id="path-7_49_" class="st2" points="-34,39.9 277.6,39.9 277.6,4.6 -34,4.6 		"/>
	</g>
</mask>
<path id="Fill-81" class="st84" d="M221.1,30.7c0-0.4,0.3-0.8,0.7-0.8c0.3,0,0.5,0.2,0.5,0.5c0,0.4-0.3,0.8-0.7,0.8
	C221.3,31.2,221.1,31,221.1,30.7L221.1,30.7z M220.5,36c0,0.1-0.1,0.2,0,0.2c0.2,0,0.7-0.4,1.1-0.7c0.1,0,0.2,0.1,0.2,0.2
	c-0.3,0.4-1.3,1.3-2.1,1.3c-0.2,0-0.3-0.2-0.3-0.3c0-0.1,0-0.2,0.1-0.4l1.2-2.8c0-0.1,0-0.2,0-0.2c-0.1,0-0.6,0.3-0.9,0.6
	c-0.1,0-0.2-0.1-0.1-0.2c0.6-0.7,1.5-1.1,1.9-1.1c0.1,0,0.3,0.1,0.3,0.3c0,0.1,0,0.2-0.1,0.5L220.5,36z"/>
<defs>
	<filter id="Adobe_OpacityMaskFilter_41_" filterUnits="userSpaceOnUse" x="222.5" y="31.6" width="3.4" height="5.4">
		<feColorMatrix  type="matrix" values="1 0 0 0 0  0 1 0 0 0  0 0 1 0 0  0 0 0 1 0"/>
	</filter>
</defs>
<mask maskUnits="userSpaceOnUse" x="222.5" y="31.6" width="3.4" height="5.4" id="mask-8_50_">
	<g class="st85">
		<polygon id="path-7_50_" class="st2" points="-34,39.9 277.6,39.9 277.6,4.6 -34,4.6 		"/>
	</g>
</mask>
<path id="Fill-82" class="st86" d="M224.6,33.2l-0.9,2.7c-0.1,0.2,0,0.3,0.1,0.3c0.2,0,0.8-0.5,1.2-0.9c0.1,0,0.2,0.1,0.2,0.2
	c-0.5,0.7-1.5,1.4-2.2,1.4c-0.2,0-0.4-0.2-0.4-0.4c0-0.1,0-0.3,0.1-0.6l1-2.8h-0.8c-0.1-0.1,0-0.3,0.1-0.3l0.9-0.2l0.7-1
	c0.1,0,0.1-0.1,0.3-0.1c0.1,0,0.3,0.1,0.3,0.1l-0.3,1h1.1c0.1,0.1,0,0.4-0.1,0.5H224.6z"/>
<defs>
	<filter id="Adobe_OpacityMaskFilter_42_" filterUnits="userSpaceOnUse" x="224.4" y="32.5" width="5.5" height="7.1">
		<feColorMatrix  type="matrix" values="1 0 0 0 0  0 1 0 0 0  0 0 1 0 0  0 0 0 1 0"/>
	</filter>
</defs>
<mask maskUnits="userSpaceOnUse" x="224.4" y="32.5" width="5.5" height="7.1" id="mask-8_51_">
	<g class="st87">
		<polygon id="path-7_51_" class="st2" points="-34,39.9 277.6,39.9 277.6,4.6 -34,4.6 		"/>
	</g>
</mask>
<path id="Fill-83" class="st88" d="M228,34.3c0,0.7,0,1.5-0.1,2.2h0c0.4-0.7,0.7-1.5,0.9-2.4c0.1-0.4,0.2-1.1,0.2-1.3
	c0-0.3,0.2-0.4,0.3-0.4c0.1,0,0.3,0,0.4,0.1c0.1,0.1,0.1,0.1,0.1,0.3c0,0.2-0.3,1.5-1.2,3.1c-0.5,0.8-1.1,1.8-1.8,2.6
	c-0.7,0.8-1.3,1-1.8,1c-0.4,0-0.7-0.2-0.7-0.6c0-0.4,0.2-0.6,0.5-0.6c0.2,0,0.3,0.1,0.4,0.2c0.1,0.2,0.2,0.3,0.4,0.3
	c0.2,0,0.4-0.1,0.6-0.3c0.3-0.3,0.5-0.7,0.6-1.3c0.1-0.5,0.2-1.3,0.2-2.3c0-1.2-0.2-1.8-0.4-1.8c-0.2,0-0.5,0.4-0.6,0.8
	c-0.1,0.1-0.3,0-0.3-0.1c0.2-0.6,0.7-1.5,1.4-1.5C227.7,32.5,228,33.3,228,34.3"/>
<defs>
	<filter id="Adobe_OpacityMaskFilter_43_" filterUnits="userSpaceOnUse" x="232.1" y="32.5" width="4" height="4.4">
		<feColorMatrix  type="matrix" values="1 0 0 0 0  0 1 0 0 0  0 0 1 0 0  0 0 0 1 0"/>
	</filter>
</defs>
<mask maskUnits="userSpaceOnUse" x="232.1" y="32.5" width="4" height="4.4" id="mask-8_52_">
	<g class="st89">
		<polygon id="path-7_52_" class="st2" points="-34,39.9 277.6,39.9 277.6,4.6 -34,4.6 		"/>
	</g>
</mask>
<path id="Fill-84" class="st90" d="M234.2,35.9c0.4-0.5,0.9-1.8,0.9-2.5c0-0.3,0-0.6-0.3-0.6c-0.2,0-0.4,0.1-0.7,0.5
	c-0.5,0.6-1,1.9-1,2.7c0,0.3,0.1,0.5,0.4,0.5C233.7,36.6,233.9,36.4,234.2,35.9 M233.2,33.2c0.6-0.6,1.1-0.7,1.6-0.7
	c0.9,0,1.3,0.6,1.3,1.4c0,0.7-0.3,1.6-1,2.3c-0.6,0.6-1.2,0.7-1.7,0.7c-0.9,0-1.3-0.6-1.3-1.4C232.1,34.8,232.5,33.8,233.2,33.2"/>
<defs>
	<filter id="Adobe_OpacityMaskFilter_44_" filterUnits="userSpaceOnUse" x="234.6" y="29.2" width="7.3" height="10.4">
		<feColorMatrix  type="matrix" values="1 0 0 0 0  0 1 0 0 0  0 0 1 0 0  0 0 0 1 0"/>
	</filter>
</defs>
<mask maskUnits="userSpaceOnUse" x="234.6" y="29.2" width="7.3" height="10.4" id="mask-8_53_">
	<g class="st91">
		<polygon id="path-7_53_" class="st2" points="-34,39.9 277.6,39.9 277.6,4.6 -34,4.6 		"/>
	</g>
</mask>
<path id="Fill-85" class="st92" d="M238.9,33.1c-0.4,1.1-0.8,3-1.2,4c-0.3,0.8-0.5,1.5-0.8,1.8c-0.2,0.3-0.8,0.7-1.4,0.7
	c-0.5,0-0.9-0.3-0.9-0.7c0-0.3,0.2-0.5,0.4-0.5c0.1,0,0.2,0.1,0.3,0.2c0.2,0.3,0.4,0.5,0.6,0.5c0.2,0,0.3-0.2,0.5-0.9
	c0.4-1.3,0.9-3.3,1.4-5.2h-0.9c-0.1-0.1,0-0.4,0.1-0.5h0.9c0.2-0.8,0.5-1.5,0.9-2.2c0.5-0.8,1.2-1.2,2-1.2c0.7,0,1.1,0.4,1.1,0.8
	c0,0.4-0.3,0.7-0.6,0.7c-0.1,0-0.2-0.1-0.2-0.2c-0.1-0.7-0.4-0.9-0.6-0.9c-0.2,0-0.5,0.3-0.7,0.7c-0.3,0.7-0.6,1.5-0.8,2.3h1.3
	c0.1,0.1,0,0.4-0.1,0.5H238.9z"/>
<defs>
	<filter id="Adobe_OpacityMaskFilter_45_" filterUnits="userSpaceOnUse" x="243.4" y="29.5" width="6.9" height="7.3">
		<feColorMatrix  type="matrix" values="1 0 0 0 0  0 1 0 0 0  0 0 1 0 0  0 0 0 1 0"/>
	</filter>
</defs>
<mask maskUnits="userSpaceOnUse" x="243.4" y="29.5" width="6.9" height="7.3" id="mask-8_54_">
	<g class="st93">
		<polygon id="path-7_54_" class="st2" points="-34,39.9 277.6,39.9 277.6,4.6 -34,4.6 		"/>
	</g>
</mask>
<path id="Fill-86" class="st94" d="M249.2,29.8c0.5,0,0.6-0.1,0.8-0.3c0.1,0,0.2,0,0.3,0c-0.2,0.4-0.5,1.3-0.6,1.6
	c-0.1,0.1-0.3,0.1-0.3,0c0-0.4,0-0.8-0.2-0.9c-0.2-0.1-0.4-0.1-0.8-0.1h-0.6c-0.3,0-0.3,0-0.4,0.4l-1.4,4.6
	c-0.3,0.9-0.3,1.2,0.2,1.2l0.4,0c0.1,0.1,0,0.3-0.1,0.3c-0.7,0-1.1,0-1.6,0c-0.5,0-0.9,0-1.5,0c-0.1-0.1-0.1-0.3,0-0.3l0.4-0.1
	c0.5,0,0.6-0.2,0.9-1.2l1.5-4.6c0.1-0.4,0.1-0.4-0.3-0.4h-0.5c-0.4,0-0.7,0-0.9,0.2c-0.3,0.2-0.5,0.4-0.8,0.8
	c-0.1,0.1-0.3,0-0.3-0.1c0.3-0.6,0.6-1.2,0.8-1.6c0-0.1,0.2-0.1,0.3,0c0,0.2,0.1,0.3,0.8,0.3H249.2z"/>
<defs>
	<filter id="Adobe_OpacityMaskFilter_46_" filterUnits="userSpaceOnUse" x="248.1" y="32.5" width="3.3" height="4.5">
		<feColorMatrix  type="matrix" values="1 0 0 0 0  0 1 0 0 0  0 0 1 0 0  0 0 0 1 0"/>
	</filter>
</defs>
<mask maskUnits="userSpaceOnUse" x="248.1" y="32.5" width="3.3" height="4.5" id="mask-8_55_">
	<g class="st95">
		<polygon id="path-7_55_" class="st2" points="-34,39.9 277.6,39.9 277.6,4.6 -34,4.6 		"/>
	</g>
</mask>
<path id="Fill-87" class="st96" d="M248.1,36.2c0-0.2,0.2-0.5,0.4-0.5c0.1,0,0.2,0.1,0.2,0.1c0.3,0.3,0.5,0.5,0.8,0.5
	c0.2,0,0.4-0.2,0.4-0.4c0-0.3-0.3-0.7-0.5-1c-0.3-0.4-0.4-0.7-0.4-1c0-0.4,0.2-0.8,0.6-1.1c0.3-0.3,0.7-0.4,1-0.4
	c0.5,0,0.8,0.4,0.8,0.7c0,0.3-0.2,0.4-0.3,0.4c-0.1,0-0.2,0-0.2-0.1c-0.3-0.3-0.5-0.5-0.7-0.5c-0.2,0-0.4,0.2-0.4,0.3
	c0,0.3,0.3,0.7,0.5,0.9c0.3,0.4,0.5,0.7,0.5,1.1c0,0.4-0.2,0.8-0.6,1.1c-0.3,0.3-0.7,0.4-1.2,0.4C248.5,36.9,248.1,36.6,248.1,36.2"
	/>
<defs>
	<filter id="Adobe_OpacityMaskFilter_47_" filterUnits="userSpaceOnUse" x="251.8" y="32.5" width="4.9" height="4.4">
		<feColorMatrix  type="matrix" values="1 0 0 0 0  0 1 0 0 0  0 0 1 0 0  0 0 0 1 0"/>
	</filter>
</defs>
<mask maskUnits="userSpaceOnUse" x="251.8" y="32.5" width="4.9" height="4.4" id="mask-8_56_">
	<g class="st97">
		<polygon id="path-7_56_" class="st2" points="-34,39.9 277.6,39.9 277.6,4.6 -34,4.6 		"/>
	</g>
</mask>
<path id="Fill-88" class="st98" d="M253,33.5c0.1-0.2,0.1-0.3,0-0.3c-0.2,0-0.7,0.4-1,0.7c-0.1,0-0.2-0.1-0.2-0.2
	c0.3-0.5,1.2-1.3,2-1.3c0.2,0,0.4,0.2,0.4,0.4c0,0,0,0.2-0.1,0.3l-1.1,2.7c-0.1,0.2,0,0.3,0.1,0.3c0.1,0,0.4-0.2,0.8-0.6
	c0.9-0.8,1.6-2.2,2-3.1c0.1,0,0.2,0,0.3,0c0.2,0,0.5,0.1,0.5,0.2c-0.3,0.7-0.8,2.1-1.2,3.2c-0.1,0.2-0.1,0.3,0.1,0.3
	c0.2,0,0.7-0.5,1-0.8c0.1,0,0.2,0,0.2,0.2c-0.3,0.5-1.3,1.3-2,1.3c-0.2,0-0.4-0.2-0.3-0.5l0.7-1.7h0c-0.7,0.9-1.9,2.2-2.6,2.2
	c-0.3,0-0.5-0.3-0.5-0.5c0-0.2,0.1-0.3,0.1-0.5L253,33.5z"/>
<defs>
	<filter id="Adobe_OpacityMaskFilter_48_" filterUnits="userSpaceOnUse" x="257.1" y="29.2" width="4.9" height="7.7">
		<feColorMatrix  type="matrix" values="1 0 0 0 0  0 1 0 0 0  0 0 1 0 0  0 0 0 1 0"/>
	</filter>
</defs>
<mask maskUnits="userSpaceOnUse" x="257.1" y="29.2" width="4.9" height="7.7" id="mask-8_57_">
	<g class="st99">
		<polygon id="path-7_57_" class="st2" points="-34,39.9 277.6,39.9 277.6,4.6 -34,4.6 		"/>
	</g>
</mask>
<path id="Fill-89" class="st100" d="M260.2,34.3c0.4-0.3,0.7-0.6,0.7-0.9c0-0.2-0.1-0.3-0.3-0.3c-0.3,0-0.8,0.3-1.3,0.8
	c-0.3,0.3-0.5,0.6-0.5,0.8c0,0.1,0,0.1,0.1,0.1C259.1,34.8,259.6,34.7,260.2,34.3 M262,33.2c0,0.3-0.1,0.6-0.6,1
	c-0.3,0.3-0.9,0.5-1.4,0.6c-0.1,0-0.1,0.1,0,0.2c0.1,0.3,0.2,0.6,0.3,0.9c0.1,0.2,0.2,0.3,0.3,0.3c0.2,0,0.4-0.2,0.7-0.5
	c0.1,0,0.2,0,0.2,0.1c-0.3,0.6-0.9,1.1-1.4,1.1c-0.3,0-0.5-0.2-0.6-0.5c-0.1-0.3-0.3-0.6-0.4-1.1c0-0.1-0.1-0.2-0.3-0.2
	c-0.2,0-0.3,0.1-0.4,0.4l-0.5,1.2c-0.1,0.1-0.2,0.2-0.4,0.2c-0.2,0-0.6-0.1-0.5-0.4l2-5.8c0.2-0.6,0.2-0.7,0-0.8l-0.3-0.1
	c0-0.1,0-0.1,0-0.2c0.3-0.1,1.1-0.3,1.6-0.4c0.1,0,0.1,0,0.1,0.1c-0.1,0.4-0.3,0.7-0.5,1.4l-1.1,3.1h0c0.6-0.6,1.2-1.4,2.2-1.4
	C261.8,32.5,262,32.9,262,33.2"/>
<defs>
	<filter id="Adobe_OpacityMaskFilter_49_" filterUnits="userSpaceOnUse" x="262.5" y="32.5" width="4.9" height="4.4">
		<feColorMatrix  type="matrix" values="1 0 0 0 0  0 1 0 0 0  0 0 1 0 0  0 0 0 1 0"/>
	</filter>
</defs>
<mask maskUnits="userSpaceOnUse" x="262.5" y="32.5" width="4.9" height="4.4" id="mask-8_58_">
	<g class="st101">
		<polygon id="path-7_58_" class="st2" points="-34,39.9 277.6,39.9 277.6,4.6 -34,4.6 		"/>
	</g>
</mask>
<path id="Fill-90" class="st102" d="M263.6,33.5c0.1-0.2,0.1-0.3,0-0.3c-0.2,0-0.7,0.4-1,0.7c-0.1,0-0.2-0.1-0.2-0.2
	c0.3-0.5,1.2-1.3,2-1.3c0.2,0,0.4,0.2,0.4,0.4c0,0,0,0.2-0.1,0.3l-1.1,2.7c-0.1,0.2,0,0.3,0.1,0.3c0.1,0,0.4-0.2,0.8-0.6
	c0.9-0.8,1.6-2.2,2-3.1c0.1,0,0.2,0,0.3,0c0.2,0,0.5,0.1,0.5,0.2c-0.3,0.7-0.8,2.1-1.2,3.2c-0.1,0.2-0.1,0.3,0.1,0.3
	c0.2,0,0.7-0.5,1-0.8c0.1,0,0.2,0,0.2,0.2c-0.3,0.5-1.3,1.3-2,1.3c-0.2,0-0.4-0.2-0.3-0.5l0.7-1.7h0c-0.7,0.9-1.9,2.2-2.6,2.2
	c-0.3,0-0.5-0.3-0.5-0.5c0-0.2,0.1-0.3,0.1-0.5L263.6,33.5z"/>
<defs>
	<filter id="Adobe_OpacityMaskFilter_50_" filterUnits="userSpaceOnUse" x="268.1" y="29.2" width="4.5" height="7.7">
		<feColorMatrix  type="matrix" values="1 0 0 0 0  0 1 0 0 0  0 0 1 0 0  0 0 0 1 0"/>
	</filter>
</defs>
<mask maskUnits="userSpaceOnUse" x="268.1" y="29.2" width="4.5" height="7.7" id="mask-8_59_">
	<g class="st103">
		<polygon id="path-7_59_" class="st2" points="-34,39.9 277.6,39.9 277.6,4.6 -34,4.6 		"/>
	</g>
</mask>
<path id="Fill-91" class="st104" d="M269.9,34.1c-0.6,0.7-0.8,1.5-0.8,1.9c0,0.3,0.1,0.5,0.3,0.5c0.2,0,0.5-0.2,0.9-0.7
	c0.7-0.8,1.3-2,1.3-2.5c0-0.3-0.1-0.4-0.3-0.4C271,33,270.5,33.4,269.9,34.1 M271.5,35.7c-0.8,0.8-1.7,1.2-2.4,1.2c-0.7,0-1-0.4-1-1
	c0-0.5,0.2-1.1,0.5-1.8l1.3-3.4c0.2-0.5,0.2-0.6,0-0.8l-0.3-0.2c0-0.1,0-0.1,0-0.2c0.3-0.1,1.1-0.3,1.6-0.3c0,0,0.1,0.1,0.1,0.1
	c-0.2,0.5-0.4,0.9-0.6,1.4l-1.3,3.3h0c0.6-0.9,1.4-1.6,2.1-1.6c0.8,0,1,0.5,1,1C272.6,34.1,272.3,34.9,271.5,35.7"/>
<defs>
	<filter id="Adobe_OpacityMaskFilter_51_" filterUnits="userSpaceOnUse" x="272.7" y="32.3" width="4.9" height="4.7">
		<feColorMatrix  type="matrix" values="1 0 0 0 0  0 1 0 0 0  0 0 1 0 0  0 0 0 1 0"/>
	</filter>
</defs>
<mask maskUnits="userSpaceOnUse" x="272.7" y="32.3" width="4.9" height="4.7" id="mask-8_60_">
	<g class="st105">
		<polygon id="path-7_60_" class="st2" points="-34,39.9 277.6,39.9 277.6,4.6 -34,4.6 		"/>
	</g>
</mask>
<path id="Fill-92" class="st106" d="M275.1,33.5c-0.6,0.6-1.1,1.8-1.2,2.5c0,0.1,0,0.2,0.1,0.2c0.2,0,0.6-0.4,1.1-0.8
	c0.5-0.6,1-1.5,1.2-2c-0.1-0.3-0.3-0.4-0.5-0.4C275.6,33.1,275.4,33.2,275.1,33.5L275.1,33.5z M276.8,32.3c0,0,0.1,0,0.2,0
	c0.2,0,0.5,0.1,0.6,0.3c-0.3,0.7-1,2.4-1.4,3.5c-0.1,0.1,0,0.2,0.1,0.2c0.2,0,0.6-0.2,1.1-0.7c0.1,0,0.2,0.1,0.2,0.2
	c-0.5,0.6-1.3,1.2-2,1.2c-0.3,0-0.3-0.2-0.3-0.3c0-0.1,0-0.2,0.1-0.4l0.4-1h0c-0.7,1-1.8,1.8-2.4,1.8c-0.3,0-0.6-0.3-0.6-0.6
	c0-0.4,0.4-1.5,1.2-2.4c0.5-0.5,1-0.9,1.3-1c0.3-0.2,0.6-0.2,0.8-0.2c0.1,0,0.2,0,0.2,0.1c0.1,0,0.2,0.1,0.2,0.2L276.8,32.3z"/>
<text transform="matrix(0.9781 0 0 1 274.6221 22.9443)" class="st107 st108">生徒会</text>
<g>
	<g>
		<path d="M281.5,34.9c0.1,0.9,0.7,1.4,1.6,1.4c0.9,0,1.5-0.4,1.5-1.3c0-0.6-0.3-1-1.4-1.5c-1.3-0.5-1.7-1-1.7-1.8
			c0-1,0.7-1.9,2.3-1.9c1.5,0,2.2,0.9,2.2,1.9h-0.9c-0.1-0.7-0.4-1.2-1.4-1.2c-0.9,0-1.3,0.5-1.3,1.1c0,0.5,0.2,0.8,1.3,1.2
			c1.4,0.5,1.9,1.1,1.9,2c0,1.1-0.7,2.1-2.5,2.1c-1.6,0-2.4-0.9-2.4-2.1H281.5z"/>
		<path d="M286.7,31.9h0.8l0.3-1.5h0.8l-0.3,1.5h1.1l-0.2,0.7h-1.1l-0.6,3.1c-0.1,0.5-0.1,0.7,0.4,0.7c0.1,0,0.3,0,0.5,0l-0.1,0.7
			c-0.2,0.1-0.5,0.1-0.7,0.1c-0.8,0-1.1-0.4-0.9-1.2l0.7-3.2h-0.8L286.7,31.9z"/>
		<path d="M293.6,35.6c-0.1,0.5-0.2,1-0.3,1.4h-0.8c0-0.2,0.1-0.6,0.1-0.9c-0.3,0.6-0.9,1-1.7,1c-0.9,0-1.5-0.5-1.2-1.9l0.7-3.3h0.8
			l-0.7,3.2c-0.1,0.7-0.1,1.2,0.7,1.2c0.8,0,1.4-0.6,1.8-2l0.5-2.4h0.8L293.6,35.6z"/>
		<path d="M300.5,29.6l-1.3,5.9c-0.1,0.5-0.2,1-0.3,1.4h-0.8c0-0.1,0.1-0.5,0.1-0.8c-0.3,0.5-0.8,0.9-1.7,0.9c-1.1,0-1.6-0.8-1.6-2
			c0-1.5,0.9-3.3,2.7-3.3c0.9,0,1.3,0.5,1.4,0.8l0.6-3H300.5z M295.8,35c0,0.9,0.4,1.3,1.1,1.3c1,0,1.6-0.9,1.8-2.1
			c0.2-1.1-0.1-1.7-1.1-1.7C296.4,32.5,295.8,33.9,295.8,35z"/>
		<path d="M301.5,34.5c0,0.2,0,0.3,0,0.5c0,0.9,0.4,1.3,1.1,1.3c0.7,0,1.1-0.4,1.3-0.8h0.9c-0.3,0.8-1,1.5-2.3,1.5
			c-1.3,0-1.9-0.8-1.9-2c0-1.4,0.8-3.3,2.7-3.3c1.4,0,1.8,0.9,1.8,1.8c0,0.3,0,0.6-0.1,0.9H301.5z M304.2,33.9c0-0.1,0-0.3,0-0.4
			c0-0.7-0.3-1.1-1.1-1.1c-0.8,0-1.3,0.5-1.6,1.5H304.2z"/>
		<path d="M306.4,33.2c0.1-0.4,0.2-0.9,0.3-1.3h0.8c0,0.2-0.1,0.7-0.2,0.9c0.3-0.5,0.8-1,1.7-1c1,0,1.6,0.6,1.3,2l-0.7,3.2h-0.8
			l0.7-3.1c0.2-0.8,0-1.3-0.8-1.3c-0.9,0-1.5,0.9-1.7,1.9l-0.5,2.5h-0.8L306.4,33.2z"/>
		<path d="M311.5,31.9h0.8l0.3-1.5h0.8l-0.3,1.5h1.1l-0.2,0.7H313l-0.6,3.1c-0.1,0.5-0.1,0.7,0.4,0.7c0.1,0,0.3,0,0.5,0l-0.1,0.7
			c-0.2,0.1-0.5,0.1-0.7,0.1c-0.8,0-1.1-0.4-0.9-1.2l0.7-3.2h-0.8L311.5,31.9z"/>
		<path d="M322.6,34.9c-0.5,1.3-1.4,2.1-3,2.1c-1.8,0-2.5-1.2-2.5-2.8c0-2,1.1-4.3,3.6-4.3c1.5,0,2.4,0.8,2.4,2.2h-0.9
			c-0.1-0.9-0.6-1.5-1.6-1.5c-1.7,0-2.5,1.8-2.5,3.6c0,1.1,0.5,2.1,1.7,2.1c0.9,0,1.6-0.5,2-1.4H322.6z"/>
		<path d="M328,33.9c0,1.3-0.8,3.2-2.7,3.2c-1.2,0-1.9-0.8-1.9-2c0-1.4,0.9-3.2,2.7-3.2C327.2,31.8,328,32.5,328,33.9z M324.2,35
			c0,0.8,0.4,1.4,1.1,1.4c1.2,0,1.8-1.4,1.8-2.5c0-0.9-0.4-1.4-1.1-1.4C324.8,32.5,324.2,33.9,324.2,35z"/>
		<path d="M329.4,33.2c0.1-0.4,0.2-0.9,0.3-1.3h0.8c0,0.2-0.1,0.7-0.2,0.9c0.3-0.5,0.8-1,1.7-1c1,0,1.6,0.6,1.3,2l-0.7,3.2h-0.8
			l0.7-3.1c0.2-0.8,0-1.3-0.8-1.3c-0.9,0-1.5,0.9-1.7,1.9l-0.5,2.5h-0.8L329.4,33.2z"/>
		<path d="M338.3,35.4c-0.3,1-1,1.6-2.3,1.6c-1.2,0-1.8-0.8-1.8-2c0-1.5,0.9-3.3,2.6-3.3c1.4,0,1.8,1,1.8,1.7h-0.8c0-0.6-0.3-1-1-1
			c-1.2,0-1.7,1.5-1.7,2.5c0,1,0.4,1.4,1.1,1.4c0.6,0,1-0.4,1.3-0.9H338.3z"/>
		<path d="M340.2,31.9h0.8l-1.1,5.1h-0.8L340.2,31.9z M340.7,29.6h0.8l-0.2,1.1h-0.8L340.7,29.6z"/>
		<path d="M341.4,37l1.6-7.3h0.8l-1.6,7.3H341.4z"/>
	</g>
</g>
</svg>
